SplineFontDB: 3.2
FontName: GothicII
FullName: Gothic II
FamilyName: Gothic II 
Weight: Book
Copyright: Typeface (c) High-Logic. 1999, 2000. All Rights Reserved
Version: 1.02 August 24, 1999
ItalicAngle: 0
UnderlinePosition: -292
UnderlineWidth: 150
Ascent: 1638
Descent: 410
InvalidEm: 0
sfntRevision: 0x00010000
LayerCount: 2
Layer: 0 1 "Warstwa t+AUIA-a" 1
Layer: 1 1 "Plan pierwszy" 0
XUID: [1021 280 -1055617066 5201]
StyleMap: 0x0040
FSType: 8
OS2Version: 1
OS2_WeightWidthSlopeOnly: 0
OS2_UseTypoMetrics: 0
CreationTime: 935496000
ModificationTime: 1725415566
PfmFamily: 17
TTFWeight: 400
TTFWidth: 5
LineGap: 67
VLineGap: 0
Panose: 2 0 0 0 0 0 0 0 0 0
OS2TypoAscent: 1491
OS2TypoAOffset: 0
OS2TypoDescent: -431
OS2TypoDOffset: 0
OS2TypoLinegap: 307
OS2WinAscent: 1854
OS2WinAOffset: 0
OS2WinDescent: 434
OS2WinDOffset: 0
HheadAscent: 1854
HheadAOffset: 0
HheadDescent: -434
HheadDOffset: 0
OS2SubXSize: 1434
OS2SubYSize: 1331
OS2SubXOff: 0
OS2SubYOff: 283
OS2SupXSize: 1434
OS2SupYSize: 1331
OS2SupXOff: 0
OS2SupYOff: 977
OS2StrikeYSize: 102
OS2StrikeYPos: 530
OS2Vendor: 'HL  '
OS2CodePages: 4000001f.00000000
OS2UnicodeRanges: 00000287.00000000.00000000.00000000
MarkAttachClasses: 1
DEI: 91125
ShortTable: maxp 16
  1
  0
  647
  204
  5
  0
  0
  2
  16
  47
  66
  0
  1036
  0
  1
  1
EndShort
LangName: 1033 "Typeface +AKkA High-Logic. 1999, 2000. All Rights Reserved" "" "Regular" "FontForge 2.0 : Gothic II : 4-9-2024" "" "Version 1.02 August 24, 1999" "" "NewWGL4Font is a registered trademark of High-Logic." "High-Logic" "High-Logic - Erwin Denissen" "Template" "http://www.high-logic.com/" "http://www.high-logic.com/"
LangName: 1027 "" "" "Normal"
LangName: 1029 "" "" "oby+AQ0A-ejn+AOkA"
LangName: 1030 "" "" "normal"
LangName: 1031 "" "" "Standard"
LangName: 1032 "" "" "+A5oDsQO9A78DvQO5A7oDrAAA"
LangName: 1034 "" "" "Normal"
LangName: 1035 "" "" "Normaali"
LangName: 1036 "" "" "Normal"
LangName: 1038 "" "" "Norm+AOEA-l"
LangName: 1040 "" "" "Normale"

StartChar: .notdef
Encoding: 65536 -1 0
Width: 1224
GlyphClass: 1
Flags: W
LayerCount: 2
Fore
SplineSet
256 0 m 1,0,-1
 256 1280 l 1,1,-1
 1280 1280 l 1,2,-1
 1280 0 l 1,3,-1
 256 0 l 1,0,-1
288 32 m 1,4,-1
 1248 32 l 1,5,-1
 1248 1248 l 1,6,-1
 288 1248 l 1,7,-1
 288 32 l 1,4,-1
EndSplineSet
EndChar

StartChar: exclam
Encoding: 33 33 4
Width: 713
GlyphClass: 1
Flags: W
LayerCount: 2
Fore
SplineSet
82 99 m 0,0,1
 118 135 118 135 138 153.5 c 128,-1,2
 158 172 158 172 181.5 184 c 128,-1,3
 205 196 205 196 218.5 196 c 128,-1,4
 232 196 232 196 256 184 c 128,-1,5
 280 172 280 172 299.5 153.5 c 128,-1,6
 319 135 319 135 356 99 c 0,7,8
 432 22 432 22 437 -1 c 0,9,10
 442 -21 442 -21 409 -29 c 0,11,12
 372 -38 372 -38 219 -38 c 0,13,14
 46 -38 46 -38 16 -25 c 256,15,16
 -14 -12 -14 -12 17 28 c 0,17,18
 33 50 33 50 82 99 c 0,0,1
46 1079 m 0,19,20
 30 1419 30 1419 38 1504 c 0,21,22
 47 1596 47 1596 88 1620 c 1,23,24
 127 1638 127 1638 219 1638 c 0,25,26
 314 1638 314 1638 344 1623 c 0,27,28
 388 1601 388 1601 398 1518 c 0,29,30
 409 1435 409 1435 394 1117 c 0,31,32
 393 1101 393 1101 392 1079 c 0,33,34
 385 928 385 928 367.5 807 c 128,-1,35
 350 686 350 686 327 610.5 c 128,-1,36
 304 535 304 535 275.5 495 c 128,-1,37
 247 455 247 455 218.5 455 c 128,-1,38
 190 455 190 455 162 495 c 128,-1,39
 134 535 134 535 111 610.5 c 128,-1,40
 88 686 88 686 70.5 807 c 128,-1,41
 53 928 53 928 46 1079 c 0,19,20
EndSplineSet
EndChar

StartChar: quotedbl
Encoding: 34 34 5
Width: 1049
GlyphClass: 1
Flags: W
LayerCount: 2
Fore
SplineSet
0 1179 m 0,0,1
 1 1265 1 1265 46.5 1374.5 c 128,-1,2
 92 1484 92 1484 154.5 1561 c 128,-1,3
 217 1638 217 1638 266 1638 c 0,4,5
 292 1638 292 1638 305 1600.5 c 128,-1,6
 318 1563 318 1563 315.5 1503.5 c 128,-1,7
 313 1444 313 1444 300.5 1377.5 c 128,-1,8
 288 1311 288 1311 262.5 1246 c 128,-1,9
 237 1181 237 1181 206 1139 c 0,10,11
 98 998 98 998 48 1007.5 c 128,-1,12
 -2 1017 -2 1017 0 1179 c 0,0,1
479 1179 m 0,13,14
 480 1265 480 1265 525 1374.5 c 128,-1,15
 570 1484 570 1484 633 1561 c 128,-1,16
 696 1638 696 1638 744 1638 c 0,17,18
 771 1638 771 1638 784 1600.5 c 128,-1,19
 797 1563 797 1563 794 1503.5 c 128,-1,20
 791 1444 791 1444 778.5 1377.5 c 128,-1,21
 766 1311 766 1311 741 1246 c 128,-1,22
 716 1181 716 1181 684 1139 c 0,23,24
 577 998 577 998 527 1007.5 c 128,-1,25
 477 1017 477 1017 479 1179 c 0,13,14
EndSplineSet
EndChar

StartChar: numbersign
Encoding: 35 35 6
Width: 2008
GlyphClass: 1
Flags: W
LayerCount: 2
Fore
SplineSet
279 281 m 0,0,1
 291 336 291 336 296.5 371 c 128,-1,2
 302 406 302 406 301.5 435 c 128,-1,3
 301 464 301 464 293.5 479 c 128,-1,4
 286 494 286 494 268.5 504.5 c 128,-1,5
 251 515 251 515 227.5 518 c 128,-1,6
 204 521 204 521 166 521 c 0,7,8
 97 521 97 521 48.5 544.5 c 128,-1,9
 0 568 0 568 0 601 c 128,-1,10
 0 634 0 634 56 657 c 128,-1,11
 112 680 112 680 190 680 c 0,12,13
 288 680 288 680 346 724 c 128,-1,14
 404 768 404 768 428 860 c 0,15,16
 443 915 443 915 452 951 c 128,-1,17
 461 987 461 987 466.5 1021 c 128,-1,18
 472 1055 472 1055 472 1074.5 c 128,-1,19
 472 1094 472 1094 465.5 1111.5 c 128,-1,20
 459 1129 459 1129 449 1136.5 c 128,-1,21
 439 1144 439 1144 419 1150 c 128,-1,22
 399 1156 399 1156 376.5 1157.5 c 128,-1,23
 354 1159 354 1159 319 1159 c 0,24,25
 253 1159 253 1159 206.5 1182.5 c 128,-1,26
 160 1206 160 1206 160 1239 c 128,-1,27
 160 1272 160 1272 228.5 1295.5 c 128,-1,28
 297 1319 297 1319 394 1319 c 0,29,30
 517 1319 517 1319 584.5 1357 c 128,-1,31
 652 1395 652 1395 678 1478 c 0,32,33
 699 1544 699 1544 737.5 1591 c 128,-1,34
 776 1638 776 1638 809 1638 c 128,-1,35
 842 1638 842 1638 850.5 1591 c 128,-1,36
 859 1544 859 1544 838 1478 c 0,37,38
 827 1443 827 1443 822.5 1419.5 c 128,-1,39
 818 1396 818 1396 822.5 1377 c 128,-1,40
 827 1358 827 1358 839.5 1347.5 c 128,-1,41
 852 1337 852 1337 878 1330 c 128,-1,42
 904 1323 904 1323 938.5 1321 c 128,-1,43
 973 1319 973 1319 1027 1319 c 0,44,45
 1154 1319 1154 1319 1222 1356.5 c 128,-1,46
 1290 1394 1290 1394 1317 1478 c 0,47,48
 1338 1544 1338 1544 1376 1591 c 128,-1,49
 1414 1638 1414 1638 1447 1638 c 128,-1,50
 1480 1638 1480 1638 1488.5 1591 c 128,-1,51
 1497 1544 1497 1544 1476 1478 c 0,52,53
 1447 1385 1447 1385 1470.5 1352 c 128,-1,54
 1494 1319 1494 1319 1591 1319 c 0,55,56
 1659 1319 1659 1319 1707 1295.5 c 128,-1,57
 1755 1272 1755 1272 1755 1239 c 128,-1,58
 1755 1206 1755 1206 1696.5 1182.5 c 128,-1,59
 1638 1159 1638 1159 1556 1159 c 128,-1,60
 1474 1159 1474 1159 1415 1141.5 c 128,-1,61
 1356 1124 1356 1124 1355.5 1099.5 c 128,-1,62
 1355 1075 1355 1075 1340.5 1004.5 c 128,-1,63
 1326 934 1326 934 1306 860 c 0,64,65
 1291 804 1291 804 1289 770.5 c 128,-1,66
 1287 737 1287 737 1301.5 716 c 128,-1,67
 1316 695 1316 695 1345 687.5 c 128,-1,68
 1374 680 1374 680 1427 680 c 0,69,70
 1497 680 1497 680 1546.5 657 c 128,-1,71
 1596 634 1596 634 1596 601 c 128,-1,72
 1596 568 1596 568 1527.5 544.5 c 128,-1,73
 1459 521 1459 521 1363 521 c 0,74,75
 1312 521 1312 521 1277 517.5 c 128,-1,76
 1242 514 1242 514 1212.5 503 c 128,-1,77
 1183 492 1183 492 1163.5 476 c 128,-1,78
 1144 460 1144 460 1127.5 432 c 128,-1,79
 1111 404 1111 404 1100 369 c 128,-1,80
 1089 334 1089 334 1077 281 c 0,81,82
 1056 183 1056 183 1017 112.5 c 128,-1,83
 978 42 978 42 945 42 c 0,84,85
 909 42 909 42 901.5 108.5 c 128,-1,86
 894 175 894 175 918 281 c 0,87,88
 928 328 928 328 933.5 356.5 c 128,-1,89
 939 385 939 385 940.5 413.5 c 128,-1,90
 942 442 942 442 940 456.5 c 128,-1,91
 938 471 938 471 926.5 485 c 128,-1,92
 915 499 915 499 902 504.5 c 128,-1,93
 889 510 889 510 861.5 514.5 c 128,-1,94
 834 519 834 519 806 520 c 128,-1,95
 778 521 778 521 731 521 c 0,96,97
 678 521 678 521 642 517.5 c 128,-1,98
 606 514 606 514 575.5 503.5 c 128,-1,99
 545 493 545 493 525.5 477 c 128,-1,100
 506 461 506 461 489.5 432.5 c 128,-1,101
 473 404 473 404 461.5 369 c 128,-1,102
 450 334 450 334 439 281 c 0,103,104
 417 183 417 183 378 112.5 c 128,-1,105
 339 42 339 42 306 42 c 0,106,107
 271 42 271 42 263.5 108.5 c 128,-1,108
 256 175 256 175 279 281 c 0,0,1
1118.5 740.5 m 128,-1,110
 1119 765 1119 765 1133.5 835.5 c 128,-1,111
 1148 906 1148 906 1167 980 c 0,112,113
 1176 1012 1176 1012 1180.5 1034 c 128,-1,114
 1185 1056 1185 1056 1184.5 1076 c 128,-1,115
 1184 1096 1184 1096 1179.5 1108 c 128,-1,116
 1175 1120 1175 1120 1161 1130 c 128,-1,117
 1147 1140 1147 1140 1129.5 1145 c 128,-1,118
 1112 1150 1112 1150 1080.5 1153.5 c 128,-1,119
 1049 1157 1049 1157 1014.5 1158 c 128,-1,120
 980 1159 980 1159 927 1159 c 0,121,122
 808 1159 808 1159 723 1141.5 c 128,-1,123
 638 1124 638 1124 637.5 1099.5 c 128,-1,124
 637 1075 637 1075 622.5 1004.5 c 128,-1,125
 608 934 608 934 588 860 c 0,126,127
 579 827 579 827 575 805.5 c 128,-1,128
 571 784 571 784 571 764 c 128,-1,129
 571 744 571 744 576 732 c 128,-1,130
 581 720 581 720 595 709.5 c 128,-1,131
 609 699 609 699 626.5 694.5 c 128,-1,132
 644 690 644 690 675.5 686 c 128,-1,133
 707 682 707 682 741.5 681 c 128,-1,134
 776 680 776 680 829 680 c 0,135,136
 948 680 948 680 1033 698 c 128,-1,109
 1118 716 1118 716 1118.5 740.5 c 128,-1,110
EndSplineSet
EndChar

StartChar: dollar
Encoding: 36 36 7
Width: 1204
GlyphClass: 1
Flags: W
LayerCount: 2
Fore
SplineSet
335 -489 m 0,0,1
 334 -429 334 -429 281 -343 c 128,-1,2
 228 -257 228 -257 154 -197 c 128,-1,3
 80 -137 80 -137 46 -75.5 c 128,-1,4
 12 -14 12 -14 38.5 13 c 128,-1,5
 65 40 65 40 106 24 c 128,-1,6
 147 8 147 8 178 -40 c 0,7,8
 205 -81 205 -81 221 -98.5 c 128,-1,9
 237 -116 237 -116 255.5 -116 c 128,-1,10
 274 -116 274 -116 292 -98 c 128,-1,11
 310 -80 310 -80 340 -38 c 0,12,13
 373 8 373 8 395 24 c 128,-1,14
 417 40 417 40 434 30 c 128,-1,15
 451 20 451 20 466 -18 c 0,16,17
 504 -111 504 -111 555 -117 c 0,18,19
 601 -122 601 -122 629 -56 c 0,20,21
 653 -2 653 -2 653 81 c 0,22,23
 653 190 653 190 580.5 280.5 c 128,-1,24
 508 371 508 371 334 481 c 0,25,26
 225 550 225 550 147.5 634 c 128,-1,27
 70 718 70 718 35 804.5 c 128,-1,28
 0 891 0 891 0.5 974 c 128,-1,29
 1 1057 1 1057 45.5 1131 c 128,-1,30
 90 1205 90 1205 174 1258 c 0,31,32
 240 1299 240 1299 287 1369.5 c 128,-1,33
 334 1440 334 1440 334 1498 c 128,-1,34
 334 1556 334 1556 357 1597 c 128,-1,35
 380 1638 380 1638 413 1638 c 128,-1,36
 446 1638 446 1638 470 1608.5 c 128,-1,37
 494 1579 494 1579 494 1538 c 0,38,39
 496 1438 496 1438 573 1558 c 0,40,41
 594 1590 594 1590 606.5 1606 c 128,-1,42
 619 1622 619 1622 628.5 1628 c 128,-1,43
 638 1634 638 1634 642.5 1623 c 128,-1,44
 647 1612 647 1612 649 1591 c 128,-1,45
 651 1570 651 1570 652 1531 c 0,46,47
 652 1471 652 1471 705 1385 c 128,-1,48
 758 1299 758 1299 832 1239 c 128,-1,49
 906 1179 906 1179 940 1117 c 128,-1,50
 974 1055 974 1055 947.5 1028.5 c 128,-1,51
 921 1002 921 1002 880 1017.5 c 128,-1,52
 839 1033 839 1033 808 1082 c 0,53,54
 782 1123 782 1123 765.5 1140.5 c 128,-1,55
 749 1158 749 1158 730.5 1158 c 128,-1,56
 712 1158 712 1158 694.5 1139.5 c 128,-1,57
 677 1121 677 1121 647 1079 c 0,58,59
 614 1034 614 1034 591.5 1017.5 c 128,-1,60
 569 1001 569 1001 552.5 1011 c 128,-1,61
 536 1021 536 1021 520 1059 c 0,62,63
 502 1105 502 1105 477 1130.5 c 128,-1,64
 452 1156 452 1156 427.5 1157 c 128,-1,65
 403 1158 403 1158 381.5 1142.5 c 128,-1,66
 360 1127 360 1127 347 1089.5 c 128,-1,67
 334 1052 334 1052 334 1002 c 0,68,69
 334 931 334 931 399.5 853.5 c 128,-1,70
 465 776 465 776 571 722 c 0,71,72
 671 670 671 670 752.5 591.5 c 128,-1,73
 834 513 834 513 885 426.5 c 128,-1,74
 936 340 936 340 960.5 245 c 128,-1,75
 985 150 985 150 978.5 65 c 128,-1,76
 972 -20 972 -20 929.5 -94.5 c 128,-1,77
 887 -169 887 -169 812 -216 c 0,78,79
 747 -257 747 -257 700 -327.5 c 128,-1,80
 653 -398 653 -398 653 -456 c 128,-1,81
 653 -514 653 -514 629.5 -555 c 128,-1,82
 606 -596 606 -596 573 -596 c 128,-1,83
 540 -596 540 -596 516 -567 c 128,-1,84
 492 -538 492 -538 492 -496 c 0,85,86
 491 -397 491 -397 413 -516 c 0,87,88
 393 -548 393 -548 380 -564 c 128,-1,89
 367 -580 367 -580 358 -586 c 128,-1,90
 349 -592 349 -592 344 -581.5 c 128,-1,91
 339 -571 339 -571 337 -549.5 c 128,-1,92
 335 -528 335 -528 335 -489 c 0,0,1
EndSplineSet
EndChar

StartChar: percent
Encoding: 37 37 8
Width: 1693
GlyphClass: 1
Flags: W
LayerCount: 2
Fore
SplineSet
137 85 m 0,0,1
 137 127 137 127 406 513.5 c 128,-1,2
 675 900 675 900 956 1269 c 128,-1,3
 1237 1638 1237 1638 1267 1638 c 0,4,5
 1324 1638 1324 1638 1326 1609 c 0,6,7
 1330 1567 1330 1567 1216 1401 c 0,8,9
 1167 1329 1167 1329 1075 1203 c 0,10,11
 816 847 816 847 536 445 c 0,12,13
 289 89 289 89 188 42 c 0,14,15
 137 18 137 18 137 85 c 0,0,1
841 242 m 0,16,17
 812 305 812 305 802.5 376.5 c 128,-1,18
 793 448 793 448 802 513.5 c 128,-1,19
 811 579 811 579 837 639 c 128,-1,20
 863 699 863 699 900 743 c 128,-1,21
 937 787 937 787 988 813.5 c 128,-1,22
 1039 840 1039 840 1095 840 c 128,-1,23
 1151 840 1151 840 1202 813.5 c 128,-1,24
 1253 787 1253 787 1290 743 c 128,-1,25
 1327 699 1327 699 1352.5 639 c 128,-1,26
 1378 579 1378 579 1387.5 513.5 c 128,-1,27
 1397 448 1397 448 1387.5 376.5 c 128,-1,28
 1378 305 1378 305 1349 242 c 0,29,30
 1309 153 1309 153 1238 97.5 c 128,-1,31
 1167 42 1167 42 1095 42 c 128,-1,32
 1023 42 1023 42 952 97.5 c 128,-1,33
 881 153 881 153 841 242 c 0,16,17
1215 441 m 0,34,35
 1215 518 1215 518 1185.5 582.5 c 128,-1,36
 1156 647 1156 647 1115 661 c 0,37,38
 1079 672 1079 672 1046 657 c 128,-1,39
 1013 642 1013 642 990.5 606 c 128,-1,40
 968 570 968 570 955 523 c 128,-1,41
 942 476 942 476 945 420.5 c 128,-1,42
 948 365 948 365 967 315 c 0,43,44
 1002 223 1002 223 1067 217 c 0,45,46
 1125 211 1125 211 1169 275 c 0,47,48
 1215 340 1215 340 1215 441 c 0,34,35
43 1040 m 0,49,50
 14 1103 14 1103 4.5 1174.5 c 128,-1,51
 -5 1246 -5 1246 4.5 1311.5 c 128,-1,52
 14 1377 14 1377 39.5 1437 c 128,-1,53
 65 1497 65 1497 102 1541 c 128,-1,54
 139 1585 139 1585 190 1611.5 c 128,-1,55
 241 1638 241 1638 297 1638 c 0,56,57
 369 1638 369 1638 440 1582.5 c 128,-1,58
 511 1527 511 1527 551 1439 c 0,59,60
 580 1375 580 1375 589.5 1303.5 c 128,-1,61
 599 1232 599 1232 590 1166.5 c 128,-1,62
 581 1101 581 1101 555 1041 c 128,-1,63
 529 981 529 981 492 937 c 128,-1,64
 455 893 455 893 404 866.5 c 128,-1,65
 353 840 353 840 297 840 c 0,66,67
 225 840 225 840 154 895.5 c 128,-1,68
 83 951 83 951 43 1040 c 0,49,50
417 1239 m 0,69,70
 417 1362 417 1362 353 1427 c 0,71,72
 302 1480 302 1480 245 1457 c 0,73,74
 197 1438 197 1438 169 1365 c 0,75,76
 150 1315 150 1315 147 1259.5 c 128,-1,77
 144 1204 144 1204 157 1157 c 128,-1,78
 170 1110 170 1110 192.5 1074 c 128,-1,79
 215 1038 215 1038 248 1023 c 128,-1,80
 281 1008 281 1008 317 1020 c 0,81,82
 358 1033 358 1033 387.5 1097.5 c 128,-1,83
 417 1162 417 1162 417 1239 c 0,69,70
EndSplineSet
EndChar

StartChar: ampersand
Encoding: 38 38 9
Width: 1768
GlyphClass: 1
Flags: W
LayerCount: 2
Fore
SplineSet
1273 -169 m 0,0,1
 1226 -113 1226 -113 1109.5 -96 c 128,-1,2
 993 -79 993 -79 786 -99 c 0,3,4
 622 -115 622 -115 481.5 -99 c 128,-1,5
 341 -83 341 -83 242 -42 c 128,-1,6
 143 -1 143 -1 81 64 c 128,-1,7
 19 129 19 129 4 206.5 c 128,-1,8
 -11 284 -11 284 24.5 376.5 c 128,-1,9
 60 469 60 469 149 564 c 0,10,11
 218 638 218 638 244.5 690.5 c 128,-1,12
 271 743 271 743 267.5 801.5 c 128,-1,13
 264 860 264 860 229 953 c 0,14,15
 195 1040 195 1040 187 1127 c 128,-1,16
 179 1214 179 1214 194.5 1289 c 128,-1,17
 210 1364 210 1364 247.5 1429 c 128,-1,18
 285 1494 285 1494 339.5 1540 c 128,-1,19
 394 1586 394 1586 467.5 1612 c 128,-1,20
 541 1638 541 1638 625 1638 c 0,21,22
 729 1638 729 1638 816 1598 c 128,-1,23
 903 1558 903 1558 959.5 1493 c 128,-1,24
 1016 1428 1016 1428 1045.5 1342 c 128,-1,25
 1075 1256 1075 1256 1071 1166.5 c 128,-1,26
 1067 1077 1067 1077 1024.5 985 c 128,-1,27
 982 893 982 893 903 820 c 0,28,29
 865 784 865 784 848 769 c 128,-1,30
 831 754 831 754 808 727 c 128,-1,31
 785 700 785 700 776.5 691.5 c 128,-1,32
 768 683 768 683 761.5 659 c 128,-1,33
 755 635 755 635 756 628 c 128,-1,34
 757 621 757 621 767.5 595.5 c 128,-1,35
 778 570 778 570 788.5 559.5 c 128,-1,36
 799 549 799 549 827.5 517 c 128,-1,37
 856 485 856 485 876 466 c 128,-1,38
 896 447 896 447 942 403 c 0,39,40
 998 350 998 350 1022 326.5 c 128,-1,41
 1046 303 1046 303 1081 276 c 128,-1,42
 1116 249 1116 249 1126.5 241.5 c 128,-1,43
 1137 234 1137 234 1157.5 235.5 c 128,-1,44
 1178 237 1178 237 1182 246 c 128,-1,45
 1186 255 1186 255 1198.5 286 c 128,-1,46
 1211 317 1211 317 1216 342.5 c 128,-1,47
 1221 368 1221 368 1233 427 c 0,48,49
 1254 532 1254 532 1301 606 c 128,-1,50
 1348 680 1348 680 1393 680 c 0,51,52
 1489 680 1489 680 1497 595 c 0,53,54
 1508 485 1508 485 1378 298 c 0,55,56
 1376 296 1376 296 1375 294 c 0,57,58
 1343 249 1343 249 1326 221.5 c 128,-1,59
 1309 194 1309 194 1298 165 c 128,-1,60
 1287 136 1287 136 1287 118.5 c 128,-1,61
 1287 101 1287 101 1298 75.5 c 128,-1,62
 1309 50 1309 50 1326 28 c 128,-1,63
 1343 6 1343 6 1375 -29 c 0,64,65
 1428 -87 1428 -87 1465.5 -144 c 128,-1,66
 1503 -201 1503 -201 1503 -224 c 0,67,68
 1503 -274 1503 -274 1453 -276 c 0,69,70
 1394 -279 1394 -279 1320 -217 c 0,71,72
 1295 -195 1295 -195 1273 -169 c 0,0,1
747 279 m 0,73,74
 472 567 472 567 405 417 c 0,75,76
 386 372 386 372 386 290 c 0,77,78
 386 239 386 239 392 203 c 128,-1,79
 398 167 398 167 414 138 c 128,-1,80
 430 109 430 109 455 91.5 c 128,-1,81
 480 74 480 74 520 62.5 c 128,-1,82
 560 51 560 51 611 46.5 c 128,-1,83
 662 42 662 42 733 42 c 0,84,85
 872 42 872 42 898 52 c 0,86,87
 930 65 930 65 901 108 c 0,88,89
 878 143 878 143 747 279 c 0,73,74
745 1194 m 0,90,91
 745 1326 745 1326 668.5 1363.5 c 128,-1,92
 592 1401 592 1401 474 1326 c 0,93,94
 437 1303 437 1303 419 1267.5 c 128,-1,95
 401 1232 401 1232 401 1195 c 128,-1,96
 401 1158 401 1158 416.5 1121.5 c 128,-1,97
 432 1085 432 1085 458.5 1058.5 c 128,-1,98
 485 1032 485 1032 523.5 1019.5 c 128,-1,99
 562 1007 562 1007 605 1015 c 0,100,101
 663 1026 663 1026 704 1078.5 c 128,-1,102
 745 1131 745 1131 745 1194 c 0,90,91
EndSplineSet
EndChar

StartChar: quotesingle
Encoding: 39 39 10
Width: 570
GlyphClass: 1
Flags: W
LayerCount: 2
Fore
SplineSet
53 1069 m 0,0,1
 7 1116 7 1116 0.5 1218 c 128,-1,2
 -6 1320 -6 1320 28 1423.5 c 128,-1,3
 62 1527 62 1527 122 1576 c 0,4,5
 159 1607 159 1607 193 1622.5 c 128,-1,6
 227 1638 227 1638 251 1638 c 128,-1,7
 275 1638 275 1638 289.5 1625 c 128,-1,8
 304 1612 304 1612 305.5 1590 c 128,-1,9
 307 1568 307 1568 292.5 1534.5 c 128,-1,10
 278 1501 278 1501 248 1465 c 0,11,12
 193 1399 193 1399 193.5 1368 c 128,-1,13
 194 1337 194 1337 251 1318 c 0,14,15
 292 1305 292 1305 305.5 1257 c 128,-1,16
 319 1209 319 1209 296 1151 c 0,17,18
 256 1046 256 1046 189 1023.5 c 128,-1,19
 122 1001 122 1001 53 1069 c 0,0,1
EndSplineSet
EndChar

StartChar: parenleft
Encoding: 40 40 11
Width: 728
GlyphClass: 1
Flags: W
LayerCount: 2
Fore
SplineSet
171 -162 m 0,0,1
 103 -50 103 -50 61 101 c 128,-1,2
 19 252 19 252 6 412.5 c 128,-1,3
 -7 573 -7 573 6.5 743 c 128,-1,4
 20 913 20 913 58 1064.5 c 128,-1,5
 96 1216 96 1216 160.5 1347 c 128,-1,6
 225 1478 225 1478 308 1562 c 0,7,8
 423 1677 423 1677 461 1620 c 0,9,10
 506 1556 506 1556 428 1306 c 0,11,12
 423 1288 423 1288 417 1270 c 0,13,14
 368 1123 368 1123 355.5 859 c 128,-1,15
 343 595 343 595 369 306 c 128,-1,16
 395 17 395 17 452 -201 c 0,17,18
 498 -376 498 -376 448 -411 c 0,19,20
 405 -442 405 -442 315 -353 c 0,21,22
 246 -284 246 -284 171 -162 c 0,0,1
EndSplineSet
EndChar

StartChar: parenright
Encoding: 41 41 12
Width: 728
GlyphClass: 1
Flags: W
LayerCount: 2
Fore
SplineSet
25 -189 m 0,0,1
 83 29 83 29 109 318.5 c 128,-1,2
 135 608 135 608 122.5 871.5 c 128,-1,3
 110 1135 110 1135 61 1282 c 0,4,5
 -45 1603 -45 1603 30 1635 c 0,6,7
 92 1662 92 1662 265 1475 c 0,8,9
 345 1389 345 1389 397.5 1245 c 128,-1,10
 450 1101 450 1101 470 936 c 128,-1,11
 490 771 490 771 481 587 c 128,-1,12
 472 403 472 403 436.5 237.5 c 128,-1,13
 401 72 401 72 334 -73.5 c 128,-1,14
 267 -219 267 -219 179 -307 c 0,15,16
 58 -428 58 -428 18.5 -397.5 c 128,-1,17
 -21 -367 -21 -367 25 -189 c 0,0,1
EndSplineSet
EndChar

StartChar: plus
Encoding: 43 43 14
Width: 1368
GlyphClass: 1
Flags: W
LayerCount: 2
Fore
SplineSet
486 516 m 0,0,1
 486 574 486 574 483.5 608.5 c 128,-1,2
 481 643 481 643 471 672.5 c 128,-1,3
 461 702 461 702 446.5 716.5 c 128,-1,4
 432 731 432 731 403 741 c 128,-1,5
 374 751 374 751 339 753.5 c 128,-1,6
 304 756 304 756 247 756 c 0,7,8
 148 756 148 756 77.5 779.5 c 128,-1,9
 7 803 7 803 7 835.5 c 128,-1,10
 7 868 7 868 77.5 891.5 c 128,-1,11
 148 915 148 915 247 915 c 0,12,13
 304 915 304 915 339 917.5 c 128,-1,14
 374 920 374 920 403 930.5 c 128,-1,15
 432 941 432 941 446.5 955 c 128,-1,16
 461 969 461 969 471 998.5 c 128,-1,17
 481 1028 481 1028 483.5 1063 c 128,-1,18
 486 1098 486 1098 486 1155 c 0,19,20
 486 1253 486 1253 509.5 1323.5 c 128,-1,21
 533 1394 533 1394 566 1394 c 128,-1,22
 599 1394 599 1394 622.5 1323.5 c 128,-1,23
 646 1253 646 1253 646 1155 c 0,24,25
 646 1098 646 1098 648.5 1063 c 128,-1,26
 651 1028 651 1028 661 998.5 c 128,-1,27
 671 969 671 969 685.5 955 c 128,-1,28
 700 941 700 941 729 930.5 c 128,-1,29
 758 920 758 920 793 917.5 c 128,-1,30
 828 915 828 915 885 915 c 0,31,32
 984 915 984 915 1054.5 891.5 c 128,-1,33
 1125 868 1125 868 1125 835.5 c 128,-1,34
 1125 803 1125 803 1054.5 779.5 c 128,-1,35
 984 756 984 756 885 756 c 0,36,37
 828 756 828 756 793 753.5 c 128,-1,38
 758 751 758 751 729 741 c 128,-1,39
 700 731 700 731 685.5 716.5 c 128,-1,40
 671 702 671 702 661 672.5 c 128,-1,41
 651 643 651 643 648.5 608.5 c 128,-1,42
 646 574 646 574 646 516 c 0,43,44
 646 418 646 418 622.5 347.5 c 128,-1,45
 599 277 599 277 566 277 c 128,-1,46
 533 277 533 277 509.5 347.5 c 128,-1,47
 486 418 486 418 486 516 c 0,0,1
EndSplineSet
EndChar

StartChar: comma
Encoding: 44 44 15
Width: 565
GlyphClass: 1
Flags: W
LayerCount: 2
Fore
SplineSet
6 74 m 0,0,1
 6 105 6 105 35 140 c 128,-1,2
 64 175 64 175 105 194 c 0,3,4
 165 222 165 222 165 240.5 c 128,-1,5
 165 259 165 259 105 287 c 0,6,7
 65 306 65 306 39.5 340 c 128,-1,8
 14 374 14 374 6.5 413 c 128,-1,9
 -1 452 -1 452 6 492.5 c 128,-1,10
 13 533 13 533 32.5 565.5 c 128,-1,11
 52 598 52 598 87 619 c 128,-1,12
 122 640 122 640 165 640 c 0,13,14
 210 640 210 640 245 611 c 128,-1,15
 280 582 280 582 300.5 536 c 128,-1,16
 321 490 321 490 328 430 c 128,-1,17
 335 370 335 370 327 311 c 128,-1,18
 319 252 319 252 294 194 c 0,19,20
 270 138 270 138 229 97 c 0,21,22
 141 9 141 9 69 4 c 0,23,24
 14 2 14 2 7 59 c 0,25,26
 6 66 6 66 6 74 c 0,0,1
EndSplineSet
EndChar

StartChar: hyphen
Encoding: 45 45 16
AltUni2: 0000ad.ffffffff.0 0000ad.ffffffff.0
Width: 1354
GlyphClass: 1
Flags: W
LayerCount: 2
Fore
SplineSet
6 718 m 128,-1,1
 6 752 6 752 166 775 c 128,-1,2
 326 798 326 798 565 798 c 128,-1,3
 804 798 804 798 964 775 c 128,-1,4
 1124 752 1124 752 1124 718 c 128,-1,5
 1124 684 1124 684 964 661 c 128,-1,6
 804 638 804 638 565 638 c 128,-1,7
 326 638 326 638 166 661 c 128,-1,0
 6 684 6 684 6 718 c 128,-1,1
EndSplineSet
EndChar

StartChar: period
Encoding: 46 46 17
Width: 565
GlyphClass: 1
Flags: W
LayerCount: 2
Fore
SplineSet
1 316.5 m 128,-1,1
 1 476 1 476 161 476 c 128,-1,2
 321 476 321 476 321 316.5 c 128,-1,3
 321 157 321 157 161 157 c 128,-1,0
 1 157 1 157 1 316.5 c 128,-1,1
EndSplineSet
EndChar

StartChar: slash
Encoding: 47 47 18
Width: 1196
GlyphClass: 1
Flags: W
LayerCount: 2
Fore
SplineSet
249 680 m 0,0,1
 317 884 317 884 366 1024 c 128,-1,2
 415 1164 415 1164 459 1276 c 128,-1,3
 503 1388 503 1388 535.5 1454 c 128,-1,4
 568 1520 568 1520 600.5 1563 c 128,-1,5
 633 1606 633 1606 661 1622 c 128,-1,6
 689 1638 689 1638 722 1638 c 0,7,8
 807 1638 807 1638 829 1607 c 128,-1,9
 851 1576 851 1576 821 1498 c 0,10,11
 766 1359 766 1359 569 760 c 0,12,13
 508 574 508 574 466 448.5 c 128,-1,14
 424 323 424 323 382.5 208 c 128,-1,15
 341 93 341 93 314 24 c 128,-1,16
 287 -45 287 -45 257.5 -105 c 128,-1,17
 228 -165 228 -165 208 -194 c 128,-1,18
 188 -223 188 -223 163 -244.5 c 128,-1,19
 138 -266 138 -266 116.5 -271.5 c 128,-1,20
 95 -277 95 -277 66 -277 c 0,21,22
 13 -277 13 -277 3 -232 c 0,23,24
 -13 -158 -13 -158 74 134 c 0,25,26
 126 311 126 311 249 680 c 0,0,1
EndSplineSet
EndChar

StartChar: zero
Encoding: 48 48 19
Width: 1208
GlyphClass: 1
Flags: W
LayerCount: 2
Fore
SplineSet
126 276 m 0,0,1
 73 375 73 375 42 489 c 128,-1,2
 11 603 11 603 3 716 c 128,-1,3
 -5 829 -5 829 7 943.5 c 128,-1,4
 19 1058 19 1058 48.5 1159 c 128,-1,5
 78 1260 78 1260 125 1348.5 c 128,-1,6
 172 1437 172 1437 231.5 1501 c 128,-1,7
 291 1565 291 1565 365.5 1601.5 c 128,-1,8
 440 1638 440 1638 522 1638 c 0,9,10
 597 1638 597 1638 654 1631 c 128,-1,11
 711 1624 711 1624 760.5 1606 c 128,-1,12
 810 1588 810 1588 844.5 1561 c 128,-1,13
 879 1534 879 1534 907 1490 c 128,-1,14
 935 1446 935 1446 952 1391 c 128,-1,15
 969 1336 969 1336 980.5 1258 c 128,-1,16
 992 1180 992 1180 996 1089.5 c 128,-1,17
 1000 999 1000 999 1000 880 c 128,-1,18
 1000 761 1000 761 996 670.5 c 128,-1,19
 992 580 992 580 980.5 502 c 128,-1,20
 969 424 969 424 952 369 c 128,-1,21
 935 314 935 314 907 270 c 128,-1,22
 879 226 879 226 844.5 199 c 128,-1,23
 810 172 810 172 760.5 154 c 128,-1,24
 711 136 711 136 654 129 c 128,-1,25
 597 122 597 122 522 122 c 0,26,27
 350 122 350 122 260.5 157 c 128,-1,28
 171 192 171 192 126 276 c 0,0,1
641 887 m 0,29,30
 641 1022 641 1022 637.5 1112.5 c 128,-1,31
 634 1203 634 1203 626.5 1269 c 128,-1,32
 619 1335 619 1335 604.5 1370.5 c 128,-1,33
 590 1406 590 1406 570.5 1422.5 c 128,-1,34
 551 1439 551 1439 522 1439 c 0,35,36
 477 1439 477 1439 437 1308 c 128,-1,37
 397 1177 397 1177 376.5 1004.5 c 128,-1,38
 356 832 356 832 360 652 c 128,-1,39
 364 472 364 472 398 384 c 0,40,41
 446 257 446 257 498 262 c 0,42,43
 557 268 557 268 597 429 c 0,44,45
 641 607 641 607 641 887 c 0,29,30
EndSplineSet
EndChar

StartChar: one
Encoding: 49 49 20
Width: 872
GlyphClass: 1
Flags: W
LayerCount: 2
Fore
SplineSet
38 179 m 0,0,1
 74 214 74 214 98.5 348 c 128,-1,2
 123 482 123 482 130 649.5 c 128,-1,3
 137 817 137 817 132 978.5 c 128,-1,4
 127 1140 127 1140 103.5 1250 c 128,-1,5
 80 1360 80 1360 44 1360 c 0,6,7
 -28 1360 -28 1360 20 1433 c 0,8,9
 32 1453 32 1453 54 1479 c 0,10,11
 304 1780 304 1780 396 1507 c 0,12,13
 453 1337 453 1337 453 937 c 0,14,15
 453 630 453 630 478.5 426.5 c 128,-1,16
 504 223 504 223 549 179 c 0,17,18
 600 127 600 127 560 107 c 0,19,20
 513 83 513 83 293 83 c 0,21,22
 51 83 51 83 16 113 c 0,23,24
 -7 134 -7 134 38 179 c 0,0,1
EndSplineSet
EndChar

StartChar: two
Encoding: 50 50 21
Width: 1281
GlyphClass: 1
Flags: W
LayerCount: 2
Fore
SplineSet
0 164 m 0,0,1
 0 214 0 214 95.5 353 c 128,-1,2
 191 492 191 492 325 638 c 0,3,4
 509 837 509 837 574 961 c 128,-1,5
 639 1085 639 1085 624 1208 c 0,6,7
 606 1358 606 1358 534 1427 c 0,8,9
 477 1483 477 1483 420 1451 c 0,10,11
 369 1421 369 1421 344 1327 c 0,12,13
 318 1227 318 1227 230 1182 c 0,14,15
 152 1142 152 1142 81 1170 c 0,16,17
 7 1200 7 1200 0 1289 c 0,18,19
 0 1296 0 1296 0 1303 c 0,20,21
 0 1469 0 1469 121 1553.5 c 128,-1,22
 242 1638 242 1638 479 1638 c 0,23,24
 584 1638 584 1638 671 1612.5 c 128,-1,25
 758 1587 758 1587 819 1541.5 c 128,-1,26
 880 1496 880 1496 919.5 1432.5 c 128,-1,27
 959 1369 959 1369 973 1294.5 c 128,-1,28
 987 1220 987 1220 976.5 1133.5 c 128,-1,29
 966 1047 966 1047 930.5 959.5 c 128,-1,30
 895 872 895 872 831 779 c 128,-1,31
 767 686 767 686 678 601 c 0,32,33
 506 434 506 434 474 299 c 0,34,35
 451 203 451 203 510 170 c 0,36,37
 579 131 579 131 712 203 c 0,38,39
 797 249 797 249 891 334 c 0,40,41
 914 355 914 355 929 368 c 128,-1,42
 944 381 944 381 959.5 392.5 c 128,-1,43
 975 404 975 404 984 409.5 c 128,-1,44
 993 415 993 415 1002.5 417 c 128,-1,45
 1012 419 1012 419 1016.5 416.5 c 128,-1,46
 1021 414 1021 414 1025.5 404.5 c 128,-1,47
 1030 395 1030 395 1032 383.5 c 128,-1,48
 1034 372 1034 372 1035.5 351 c 128,-1,49
 1037 330 1037 330 1037 308.5 c 128,-1,50
 1037 287 1037 287 1037 254 c 0,51,52
 1037 151 1037 151 1022 118 c 0,53,54
 1000 72 1000 72 920 57 c 0,55,56
 842 42 842 42 547 42 c 2,57,-1
 546 42 l 1,58,-1
 545 42 l 1,59,-1
 544 42 l 1,60,-1
 543 42 l 1,61,-1
 542 42 l 1,62,-1
 541 42 l 1,63,-1
 540 42 l 1,64,-1
 539 42 l 1,65,-1
 538 42 l 1,66,-1
 537 42 l 1,67,-1
 536 42 l 1,68,-1
 535 42 l 1,69,-1
 534 42 l 1,70,-1
 533 42 l 1,71,-1
 532 42 l 1,72,-1
 531 42 l 1,73,-1
 530 42 l 1,74,-1
 529 42 l 1,75,-1
 528 42 l 1,76,-1
 519 42 l 2,77,78
 360 42 360 42 263.5 47.5 c 128,-1,79
 167 53 167 53 106 67 c 128,-1,80
 45 81 45 81 22.5 103.5 c 128,-1,81
 0 126 0 126 0 164 c 0,0,1
EndSplineSet
EndChar

StartChar: three
Encoding: 51 51 22
Width: 1280
GlyphClass: 1
Flags: W
LayerCount: 2
Fore
SplineSet
96 140 m 0,0,1
 56 180 56 180 28 250 c 128,-1,2
 0 320 0 320 0 380 c 0,3,4
 0 475 0 475 74 510 c 0,5,6
 143 541 143 541 222 504 c 0,7,8
 309 464 309 464 340 370 c 0,9,10
 343 363 343 363 344 355 c 0,11,12
 375 239 375 239 441 222 c 0,13,14
 501 208 501 208 554 280 c 0,15,16
 610 355 610 355 625 486 c 0,17,18
 652 715 652 715 506 823 c 0,19,20
 476 845 476 845 459.5 857.5 c 128,-1,21
 443 870 443 870 428 885 c 128,-1,22
 413 900 413 900 407 908 c 128,-1,23
 401 916 401 916 401 927.5 c 128,-1,24
 401 939 401 939 406 945.5 c 128,-1,25
 411 952 411 952 425 964 c 128,-1,26
 439 976 439 976 455 985.5 c 128,-1,27
 471 995 471 995 499 1011 c 0,28,29
 565 1048 565 1048 605 1098.5 c 128,-1,30
 645 1149 645 1149 652 1198 c 128,-1,31
 659 1247 659 1247 647.5 1294.5 c 128,-1,32
 636 1342 636 1342 599.5 1376 c 128,-1,33
 563 1410 563 1410 516 1429 c 128,-1,34
 469 1448 469 1448 404 1440.5 c 128,-1,35
 339 1433 339 1433 272 1397 c 0,36,37
 126 1319 126 1319 53 1340 c 0,38,39
 -3 1357 -3 1357 20 1425 c 0,40,41
 35 1466 35 1466 78.5 1518.5 c 128,-1,42
 122 1571 122 1571 232.5 1602.5 c 128,-1,43
 343 1634 343 1634 464 1638 c 128,-1,44
 585 1642 585 1642 699 1618 c 128,-1,45
 813 1594 813 1594 862 1545 c 0,46,47
 923 1484 923 1484 944.5 1382 c 128,-1,48
 966 1280 966 1280 942.5 1177.5 c 128,-1,49
 919 1075 919 1075 858 1013 c 0,50,51
 817 972 817 972 808 944 c 128,-1,52
 799 916 799 916 819.5 891 c 128,-1,53
 840 866 840 866 898 834 c 0,54,55
 964 796 964 796 999.5 711 c 128,-1,56
 1035 626 1035 626 1034 530 c 128,-1,57
 1033 434 1033 434 996 336 c 128,-1,58
 959 238 959 238 891 177 c 0,59,60
 830 121 830 121 715 87 c 128,-1,61
 600 53 600 53 482 48 c 128,-1,62
 364 43 364 43 255 66.5 c 128,-1,63
 146 90 146 90 96 140 c 0,0,1
EndSplineSet
EndChar

StartChar: four
Encoding: 52 52 23
Width: 1601
GlyphClass: 1
Flags: W
LayerCount: 2
Fore
SplineSet
593 171 m 0,0,1
 653 231 653 231 684 289.5 c 128,-1,2
 715 348 715 348 717 398.5 c 128,-1,3
 719 449 719 449 694 493 c 128,-1,4
 669 537 669 537 620.5 568 c 128,-1,5
 572 599 572 599 497.5 616.5 c 128,-1,6
 423 634 423 634 330 634 c 0,7,8
 106 634 106 634 46 655 c 0,9,10
 -19 679 -19 679 9 744 c 0,11,12
 41 819 41 819 237 1019 c 0,13,14
 305 1090 305 1090 432 1215 c 0,15,16
 711 1491 711 1491 800 1564 c 0,17,18
 914 1656 914 1656 957 1633 c 0,19,20
 996 1611 996 1611 1004 1470 c 0,21,22
 1008 1404 1008 1404 1008 1242 c 0,23,24
 1008 1142 1008 1142 1010.5 1078.5 c 128,-1,25
 1013 1015 1013 1015 1020.5 960.5 c 128,-1,26
 1028 906 1028 906 1039 876 c 128,-1,27
 1050 846 1050 846 1072 820.5 c 128,-1,28
 1094 795 1094 795 1120 781 c 128,-1,29
 1146 767 1146 767 1188 753 c 0,30,31
 1322 709 1322 709 1322 697 c 128,-1,32
 1322 685 1322 685 1188 658 c 0,33,34
 1130 647 1130 647 1087 609 c 128,-1,35
 1044 571 1044 571 1025 517 c 128,-1,36
 1006 463 1006 463 1005.5 403 c 128,-1,37
 1005 343 1005 343 1030.5 281 c 128,-1,38
 1056 219 1056 219 1104 171 c 0,39,40
 1156 120 1156 120 1115 99 c 0,41,42
 1068 76 1068 76 849 76 c 0,43,44
 606 76 606 76 572 106 c 0,45,46
 548 126 548 126 593 171 c 0,0,1
689 953 m 0,47,48
 689 1019 689 1019 681 1066 c 128,-1,49
 673 1113 673 1113 661.5 1113 c 128,-1,50
 650 1113 650 1113 599.5 1066 c 128,-1,51
 549 1019 549 1019 490 953 c 0,52,53
 465 926 465 926 451.5 911 c 128,-1,54
 438 896 438 896 423 877.5 c 128,-1,55
 408 859 408 859 401.5 850 c 128,-1,56
 395 841 395 841 391 830 c 128,-1,57
 387 819 387 819 388 815 c 128,-1,58
 389 811 389 811 395.5 805.5 c 128,-1,59
 402 800 402 800 410.5 798.5 c 128,-1,60
 419 797 419 797 437 795.5 c 128,-1,61
 455 794 455 794 471.5 794 c 128,-1,62
 488 794 488 794 517 794 c 0,63,64
 606 794 606 794 647.5 832.5 c 128,-1,65
 689 871 689 871 689 953 c 0,47,48
EndSplineSet
EndChar

StartChar: five
Encoding: 53 53 24
Width: 1210
GlyphClass: 1
Flags: W
LayerCount: 2
Fore
SplineSet
174 138 m 0,0,1
 134 177 134 177 106 252.5 c 128,-1,2
 78 328 78 328 78 395 c 0,3,4
 78 497 78 497 90 506 c 0,5,6
 103 515 103 515 151 451 c 0,7,8
 169 427 169 427 205 375 c 0,9,10
 260 296 260 296 318 250.5 c 128,-1,11
 376 205 376 205 427.5 195 c 128,-1,12
 479 185 479 185 525 207 c 128,-1,13
 571 229 571 229 604.5 280 c 128,-1,14
 638 331 638 331 657 413.5 c 128,-1,15
 676 496 676 496 676 601 c 0,16,17
 676 801 676 801 665 856 c 0,18,19
 650 924 650 924 599 948 c 0,20,21
 555 969 555 969 411 982 c 0,22,23
 399 983 399 983 377 985 c 0,24,25
 142 1004 142 1004 47 1127 c 0,26,27
 -27 1223 -27 1223 13 1344 c 0,28,29
 53 1463 53 1463 185 1544 c 0,30,31
 339 1638 339 1638 557 1638 c 0,32,33
 756 1638 756 1638 896 1614.5 c 128,-1,34
 1036 1591 1036 1591 1036 1558 c 256,35,36
 1036 1525 1036 1525 942 1501.5 c 128,-1,37
 848 1478 848 1478 716 1478 c 0,38,39
 633 1478 633 1478 580.5 1474 c 128,-1,40
 528 1470 528 1470 489.5 1460.5 c 128,-1,41
 451 1451 451 1451 432.5 1432 c 128,-1,42
 414 1413 414 1413 405.5 1387 c 128,-1,43
 397 1361 397 1361 397 1319 c 0,44,45
 397 1228 397 1228 445 1193.5 c 128,-1,46
 493 1159 493 1159 621 1159 c 0,47,48
 717 1159 717 1159 785 1141 c 128,-1,49
 853 1123 853 1123 902.5 1084.5 c 128,-1,50
 952 1046 952 1046 980.5 979.5 c 128,-1,51
 1009 913 1009 913 1022.5 821.5 c 128,-1,52
 1036 730 1036 730 1036 601 c 0,53,54
 1036 476 1036 476 995 365.5 c 128,-1,55
 954 255 954 255 886.5 177.5 c 128,-1,56
 819 100 819 100 729.5 52 c 128,-1,57
 640 4 640 4 546 -5 c 128,-1,58
 452 -14 452 -14 353.5 21.5 c 128,-1,59
 255 57 255 57 174 138 c 0,0,1
EndSplineSet
EndChar

StartChar: six
Encoding: 54 54 25
Width: 1192
GlyphClass: 1
Flags: W
LayerCount: 2
Fore
SplineSet
83 181 m 0,0,1
 41 259 41 259 19.5 467 c 128,-1,2
 -2 675 -2 675 -0.5 893.5 c 128,-1,3
 1 1112 1 1112 26 1300 c 128,-1,4
 51 1488 51 1488 94 1531 c 0,5,6
 147 1584 147 1584 234.5 1611.5 c 128,-1,7
 322 1639 322 1639 416 1638.5 c 128,-1,8
 510 1638 510 1638 607.5 1615.5 c 128,-1,9
 705 1593 705 1593 782 1553.5 c 128,-1,10
 859 1514 859 1514 907.5 1455.5 c 128,-1,11
 956 1397 956 1397 956 1332 c 0,12,13
 956 1250 956 1250 896 1234 c 0,14,15
 833 1218 833 1218 753 1281 c 0,16,17
 712 1313 712 1313 677 1361 c 0,18,19
 645 1405 645 1405 604.5 1428.5 c 128,-1,20
 564 1452 564 1452 524.5 1453.5 c 128,-1,21
 485 1455 485 1455 447.5 1438 c 128,-1,22
 410 1421 410 1421 381.5 1388 c 128,-1,23
 353 1355 353 1355 335.5 1305 c 128,-1,24
 318 1255 318 1255 318 1196 c 0,25,26
 318 1153 318 1153 322 1123.5 c 128,-1,27
 326 1094 326 1094 337.5 1070 c 128,-1,28
 349 1046 349 1046 366 1031 c 128,-1,29
 383 1016 383 1016 413.5 1004.5 c 128,-1,30
 444 993 444 993 482 986 c 128,-1,31
 520 979 520 979 576 974 c 0,32,33
 668 965 668 965 742 925.5 c 128,-1,34
 816 886 816 886 864 822 c 128,-1,35
 912 758 912 758 935.5 675.5 c 128,-1,36
 959 593 959 593 953 494 c 128,-1,37
 947 395 947 395 910 290 c 0,38,39
 885 220 885 220 823 163.5 c 128,-1,40
 761 107 761 107 681.5 74.5 c 128,-1,41
 602 42 602 42 510.5 29.5 c 128,-1,42
 419 17 419 17 337 28.5 c 128,-1,43
 255 40 255 40 186 79 c 128,-1,44
 117 118 117 118 83 181 c 0,0,1
597 515 m 0,45,46
 597 662 597 662 565 730.5 c 128,-1,47
 533 799 533 799 457 814 c 0,48,49
 416 822 416 822 381 778 c 128,-1,50
 346 734 346 734 328.5 661 c 128,-1,51
 311 588 311 588 306 507.5 c 128,-1,52
 301 427 301 427 318.5 353 c 128,-1,53
 336 279 336 279 373 242 c 0,54,55
 447 168 447 168 510 219 c 0,56,57
 578 274 578 274 593 436 c 0,58,59
 597 474 597 474 597 515 c 0,45,46
EndSplineSet
EndChar

StartChar: seven
Encoding: 55 55 26
Width: 1208
GlyphClass: 1
Flags: W
LayerCount: 2
Fore
SplineSet
191 169 m 0,0,1
 313 486 313 486 297 618 c 0,2,3
 289 680 289 680 248 680 c 0,4,5
 212 680 212 680 186 703.5 c 128,-1,6
 160 727 160 727 160 760 c 128,-1,7
 160 793 160 793 194.5 816.5 c 128,-1,8
 229 840 229 840 278 840 c 0,9,10
 311 840 311 840 373 913.5 c 128,-1,11
 435 987 435 987 493 1085 c 128,-1,12
 551 1183 551 1183 594.5 1287.5 c 128,-1,13
 638 1392 638 1392 638 1448 c 0,14,15
 638 1493 638 1493 526 1485 c 0,16,17
 398 1476 398 1476 264 1417 c 0,18,19
 187 1384 187 1384 146 1346 c 0,20,21
 123 1325 123 1325 108.5 1312.5 c 128,-1,22
 94 1300 94 1300 78 1288 c 128,-1,23
 62 1276 62 1276 53.5 1270.5 c 128,-1,24
 45 1265 45 1265 35.5 1263.5 c 128,-1,25
 26 1262 26 1262 21.5 1264.5 c 128,-1,26
 17 1267 17 1267 12 1276 c 128,-1,27
 7 1285 7 1285 5.5 1296.5 c 128,-1,28
 4 1308 4 1308 2 1329.5 c 128,-1,29
 0 1351 0 1351 0 1372 c 128,-1,30
 0 1393 0 1393 0 1426 c 0,31,32
 0 1471 0 1471 0.5 1494.5 c 128,-1,33
 1 1518 1 1518 10.5 1545.5 c 128,-1,34
 20 1573 20 1573 28 1584 c 128,-1,35
 36 1595 36 1595 66 1608.5 c 128,-1,36
 96 1622 96 1622 121.5 1625.5 c 128,-1,37
 147 1629 147 1629 208.5 1633.5 c 128,-1,38
 270 1638 270 1638 323.5 1638 c 128,-1,39
 377 1638 377 1638 479 1638 c 0,40,41
 676 1638 676 1638 817 1629 c 128,-1,42
 958 1620 958 1620 958 1608 c 0,43,44
 958 1578 958 1578 838 1239 c 128,-1,45
 718 900 718 900 718 870 c 0,46,47
 718 858 718 858 753 849 c 128,-1,48
 788 840 788 840 837.5 840 c 128,-1,49
 887 840 887 840 922.5 816.5 c 128,-1,50
 958 793 958 793 958 760 c 128,-1,51
 958 727 958 727 914.5 703.5 c 128,-1,52
 871 680 871 680 811 680 c 0,53,54
 735 680 735 680 674 602.5 c 128,-1,55
 613 525 613 525 559 361 c 0,56,57
 502 191 502 191 441.5 116.5 c 128,-1,58
 381 42 381 42 298 42 c 0,59,60
 216 42 216 42 191 72 c 128,-1,61
 166 102 166 102 191 169 c 0,0,1
EndSplineSet
EndChar

StartChar: eight
Encoding: 56 56 27
Width: 1192
GlyphClass: 1
Flags: W
LayerCount: 2
Fore
SplineSet
115.5 137.5 m 128,-1,1
 76 177 76 177 48 278 c 128,-1,2
 20 379 20 379 20 481 c 128,-1,3
 20 583 20 583 48 684 c 128,-1,4
 76 785 76 785 115 824 c 0,5,6
 171 880 171 880 171 920 c 128,-1,7
 171 960 171 960 115 1016 c 0,8,9
 51 1080 51 1080 22.5 1153.5 c 128,-1,10
 -6 1227 -6 1227 1 1295 c 128,-1,11
 8 1363 8 1363 47 1426 c 128,-1,12
 86 1489 86 1489 149 1535.5 c 128,-1,13
 212 1582 212 1582 303 1610 c 128,-1,14
 394 1638 394 1638 498 1638 c 0,15,16
 743 1638 743 1638 860 1550 c 128,-1,17
 977 1462 977 1462 977 1279 c 0,18,19
 977 1210 977 1210 949 1132.5 c 128,-1,20
 921 1055 921 1055 881 1016 c 0,21,22
 826 960 826 960 826 920 c 128,-1,23
 826 880 826 880 881 824 c 0,24,25
 952 753 952 753 984.5 664.5 c 128,-1,26
 1017 576 1017 576 1010 491 c 128,-1,27
 1003 406 1003 406 963 323.5 c 128,-1,28
 923 241 923 241 857.5 179.5 c 128,-1,29
 792 118 792 118 698 80 c 128,-1,30
 604 42 604 42 498 42 c 0,31,32
 380 42 380 42 267.5 70 c 128,-1,0
 155 98 155 98 115.5 137.5 c 128,-1,1
618 528 m 0,33,34
 618 669 618 669 589.5 734.5 c 128,-1,35
 561 800 561 800 498 800 c 0,36,37
 452 800 452 800 414.5 751 c 128,-1,38
 377 702 377 702 358.5 630 c 128,-1,39
 340 558 340 558 342.5 469.5 c 128,-1,40
 345 381 345 381 372 309 c 0,41,42
 412 206 412 206 473 209 c 0,43,44
 528 211 528 211 570 294 c 0,45,46
 618 388 618 388 618 528 c 0,33,34
618 1239 m 0,47,48
 618 1316 618 1316 588.5 1380.5 c 128,-1,49
 559 1445 559 1445 518 1458 c 0,50,51
 483 1470 483 1470 450 1455 c 128,-1,52
 417 1440 417 1440 394.5 1404 c 128,-1,53
 372 1368 372 1368 359 1321 c 128,-1,54
 346 1274 346 1274 348.5 1218.5 c 128,-1,55
 351 1163 351 1163 370 1113 c 0,56,57
 405 1021 405 1021 470 1015 c 0,58,59
 528 1009 528 1009 573 1073 c 0,60,61
 618 1138 618 1138 618 1239 c 0,47,48
EndSplineSet
EndChar

StartChar: nine
Encoding: 57 57 28
Width: 1205
GlyphClass: 1
Flags: W
LayerCount: 2
Fore
SplineSet
111 147 m 0,0,1
 76 183 76 183 52.5 225.5 c 128,-1,2
 29 268 29 268 22.5 307 c 128,-1,3
 16 346 16 346 21.5 378.5 c 128,-1,4
 27 411 27 411 49 430.5 c 128,-1,5
 71 450 71 450 106 450 c 0,6,7
 144 450 144 450 199 411.5 c 128,-1,8
 254 373 254 373 294 318 c 0,9,10
 326 273 326 273 366.5 249.5 c 128,-1,11
 407 226 407 226 446.5 224.5 c 128,-1,12
 486 223 486 223 524 240.5 c 128,-1,13
 562 258 562 258 590.5 290.5 c 128,-1,14
 619 323 619 323 636 373.5 c 128,-1,15
 653 424 653 424 653 483 c 0,16,17
 653 525 653 525 649 554.5 c 128,-1,18
 645 584 645 584 633.5 608.5 c 128,-1,19
 622 633 622 633 605 647.5 c 128,-1,20
 588 662 588 662 557.5 674 c 128,-1,21
 527 686 527 686 489 692.5 c 128,-1,22
 451 699 451 699 396 705 c 0,23,24
 314 713 314 713 246 743 c 128,-1,25
 178 773 178 773 131.5 818 c 128,-1,26
 85 863 85 863 53.5 920.5 c 128,-1,27
 22 978 22 978 9.5 1041.5 c 128,-1,28
 -3 1105 -3 1105 1 1172 c 128,-1,29
 5 1239 5 1239 25.5 1302 c 128,-1,30
 46 1365 46 1365 84.5 1422.5 c 128,-1,31
 123 1480 123 1480 174.5 1524 c 128,-1,32
 226 1568 226 1568 298 1597 c 128,-1,33
 370 1626 370 1626 452 1633 c 0,34,35
 516 1635 516 1635 570.5 1638 c 128,-1,36
 625 1641 625 1641 670.5 1629.5 c 128,-1,37
 716 1618 716 1618 753 1605 c 128,-1,38
 790 1592 790 1592 820 1563 c 128,-1,39
 850 1534 850 1534 873 1501.5 c 128,-1,40
 896 1469 896 1469 913 1417.5 c 128,-1,41
 930 1366 930 1366 941.5 1308.5 c 128,-1,42
 953 1251 953 1251 960 1172.5 c 128,-1,43
 967 1094 967 1094 970 1007 c 128,-1,44
 973 920 973 920 973 810 c 0,45,46
 973 680 973 680 952 563 c 128,-1,47
 931 446 931 446 894 352.5 c 128,-1,48
 857 259 857 259 805 185 c 128,-1,49
 753 111 753 111 691.5 64 c 128,-1,50
 630 17 630 17 558.5 -4 c 128,-1,51
 487 -25 487 -25 413.5 -17 c 128,-1,52
 340 -9 340 -9 262 32.5 c 128,-1,53
 184 74 184 74 111 147 c 0,0,1
638 1149 m 0,54,55
 624 1328 624 1328 549 1412 c 0,56,57
 494 1475 494 1475 438 1447 c 0,58,59
 369 1413 369 1413 348 1263 c 0,60,61
 321 1072 321 1072 371.5 960.5 c 128,-1,62
 422 849 422 849 536 849 c 0,63,64
 586 849 586 849 610.5 875.5 c 128,-1,65
 635 902 635 902 642 968.5 c 128,-1,66
 649 1035 649 1035 638 1149 c 0,54,55
EndSplineSet
EndChar

StartChar: colon
Encoding: 58 58 29
Width: 566
GlyphClass: 1
Flags: W
LayerCount: 2
Fore
SplineSet
23 181 m 0,0,1
 3 213 3 213 2.5 247.5 c 128,-1,2
 2 282 2 282 17 310 c 128,-1,3
 32 338 32 338 57.5 359.5 c 128,-1,4
 83 381 83 381 113 389.5 c 128,-1,5
 143 398 143 398 176 390.5 c 128,-1,6
 209 383 209 383 236 356 c 0,7,8
 269 323 269 323 277.5 276.5 c 128,-1,9
 286 230 286 230 272.5 190 c 128,-1,10
 259 150 259 150 225.5 122 c 128,-1,11
 192 94 192 94 147 94 c 0,12,13
 118 94 118 94 81.5 119.5 c 128,-1,14
 45 145 45 145 23 181 c 0,0,1
23 819 m 0,15,16
 3 851 3 851 2.5 885.5 c 128,-1,17
 2 920 2 920 17 948.5 c 128,-1,18
 32 977 32 977 57.5 998 c 128,-1,19
 83 1019 83 1019 113 1028 c 128,-1,20
 143 1037 143 1037 176 1029 c 128,-1,21
 209 1021 209 1021 236 995 c 0,22,23
 269 961 269 961 277.5 915 c 128,-1,24
 286 869 286 869 272.5 829 c 128,-1,25
 259 789 259 789 225.5 760.5 c 128,-1,26
 192 732 192 732 147 732 c 0,27,28
 118 732 118 732 81.5 757.5 c 128,-1,29
 45 783 45 783 23 819 c 0,15,16
EndSplineSet
EndChar

StartChar: semicolon
Encoding: 59 59 30
AltUni2: 00037e.ffffffff.0 00037e.ffffffff.0
Width: 563
GlyphClass: 1
Flags: W
LayerCount: 2
Fore
SplineSet
3 -186 m 0,0,1
 3 -156 3 -156 32 -122.5 c 128,-1,2
 61 -89 61 -89 102 -73 c 0,3,4
 141 -57 141 -57 152 -41 c 128,-1,5
 163 -25 163 -25 148.5 -5 c 128,-1,6
 134 15 134 15 91 46 c 0,7,8
 63 65 63 65 46 95 c 128,-1,9
 29 125 29 125 25 157 c 128,-1,10
 21 189 21 189 25 223 c 128,-1,11
 29 257 29 257 43.5 285 c 128,-1,12
 58 313 58 313 77.5 334.5 c 128,-1,13
 97 356 97 356 124.5 362 c 128,-1,14
 152 368 152 368 182 359 c 0,15,16
 222 346 222 346 252 303.5 c 128,-1,17
 282 261 282 261 295 202.5 c 128,-1,18
 308 144 308 144 308.5 81 c 128,-1,19
 309 18 309 18 290.5 -42.5 c 128,-1,20
 272 -103 272 -103 238 -144 c 0,21,22
 161 -237 161 -237 86 -254 c 0,23,24
 23 -269 23 -269 7 -217 c 0,25,26
 3 -203 3 -203 3 -186 c 0,0,1
38 785 m 0,27,28
 18 817 18 817 17.5 851.5 c 128,-1,29
 17 886 17 886 32 914 c 128,-1,30
 47 942 47 942 72.5 963.5 c 128,-1,31
 98 985 98 985 128 994 c 128,-1,32
 158 1003 158 1003 191.5 995 c 128,-1,33
 225 987 225 987 251 961 c 0,34,35
 284 927 284 927 292.5 881 c 128,-1,36
 301 835 301 835 287.5 795 c 128,-1,37
 274 755 274 755 240.5 726.5 c 128,-1,38
 207 698 207 698 162 698 c 0,39,40
 133 698 133 698 96.5 723.5 c 128,-1,41
 60 749 60 749 38 785 c 0,27,28
EndSplineSet
EndChar

StartChar: less
Encoding: 60 60 31
Width: 1354
GlyphClass: 1
Flags: W
LayerCount: 2
Fore
SplineSet
235 181 m 0,0,1
 46 260 46 260 22 379 c 0,2,3
 0 488 0 488 119 592 c 0,4,5
 258 714 258 714 515 766 c 0,6,7
 658 795 658 795 815 795 c 0,8,9
 924 795 924 795 933 750 c 0,10,11
 941 711 941 711 872 668 c 0,12,13
 810 629 810 629 714 608 c 0,14,15
 406 541 406 541 334 446 c 0,16,17
 282 378 282 378 375 314 c 0,18,19
 424 280 424 280 523.5 242 c 128,-1,20
 623 204 623 204 714 184 c 0,21,22
 856 154 856 154 911 94 c 0,23,24
 952 51 952 51 914 23 c 0,25,26
 880 -1 880 -1 794 1 c 0,27,28
 736 3 736 3 572 56 c 128,-1,29
 408 109 408 109 235 181 c 0,0,1
EndSplineSet
EndChar

StartChar: equal
Encoding: 61 61 32
Width: 1199
GlyphClass: 1
Flags: W
LayerCount: 2
Fore
SplineSet
0 279 m 128,-1,1
 0 312 0 312 139.5 335.5 c 128,-1,2
 279 359 279 359 478.5 359 c 128,-1,3
 678 359 678 359 818 335.5 c 128,-1,4
 958 312 958 312 958 279 c 128,-1,5
 958 246 958 246 818 222.5 c 128,-1,6
 678 199 678 199 478.5 199 c 128,-1,7
 279 199 279 199 139.5 222.5 c 128,-1,0
 0 246 0 246 0 279 c 128,-1,1
0 598 m 128,-1,9
 0 631 0 631 139.5 654.5 c 128,-1,10
 279 678 279 678 478.5 678 c 128,-1,11
 678 678 678 678 818 654.5 c 128,-1,12
 958 631 958 631 958 598 c 128,-1,13
 958 565 958 565 818 541.5 c 128,-1,14
 678 518 678 518 478.5 518 c 128,-1,15
 279 518 279 518 139.5 541.5 c 128,-1,8
 0 565 0 565 0 598 c 128,-1,9
EndSplineSet
EndChar

StartChar: greater
Encoding: 62 62 33
Width: 1365
GlyphClass: 1
Flags: W
LayerCount: 2
Fore
SplineSet
0 72 m 128,-1,1
 0 100 0 100 94 150.5 c 128,-1,2
 188 201 188 201 319.5 244.5 c 128,-1,3
 451 288 451 288 544.5 335 c 128,-1,4
 638 382 638 382 638 404 c 128,-1,5
 638 426 638 426 544.5 473 c 128,-1,6
 451 520 451 520 319 564 c 0,7,8
 105 634 105 634 26 710 c 0,9,10
 -31 765 -31 765 23 789 c 0,11,12
 54 803 54 803 118 803 c 0,13,14
 185 803 185 803 431.5 715.5 c 128,-1,15
 678 628 678 628 897.5 529.5 c 128,-1,16
 1117 431 1117 431 1117 404 c 128,-1,17
 1117 377 1117 377 897.5 278.5 c 128,-1,18
 678 180 678 180 431.5 92.5 c 128,-1,19
 185 5 185 5 118 5 c 0,20,21
 69 5 69 5 34.5 24.5 c 128,-1,0
 0 44 0 44 0 72 c 128,-1,1
EndSplineSet
EndChar

StartChar: question
Encoding: 63 63 34
Width: 1046
GlyphClass: 1
Flags: W
LayerCount: 2
Fore
SplineSet
191 139 m 0,0,1
 171 171 171 171 170.5 205.5 c 128,-1,2
 170 240 170 240 185 268 c 128,-1,3
 200 296 200 296 225.5 317.5 c 128,-1,4
 251 339 251 339 281 348 c 128,-1,5
 311 357 311 357 344.5 349 c 128,-1,6
 378 341 378 341 404 315 c 0,7,8
 437 281 437 281 445.5 235 c 128,-1,9
 454 189 454 189 440.5 149 c 128,-1,10
 427 109 427 109 393.5 80.5 c 128,-1,11
 360 52 360 52 315 52 c 0,12,13
 286 52 286 52 249.5 77.5 c 128,-1,14
 213 103 213 103 191 139 c 0,0,1
209 584 m 0,15,16
 133 660 133 660 171 780.5 c 128,-1,17
 209 901 209 901 366 1088 c 0,18,19
 499 1246 499 1246 510 1368 c 0,20,21
 518 1459 518 1459 452 1483 c 0,22,23
 371 1512 371 1512 226 1421 c 0,24,25
 83 1332 83 1332 27.5 1362 c 128,-1,26
 -28 1392 -28 1392 25 1530 c 0,27,28
 52 1599 52 1599 130.5 1622.5 c 128,-1,29
 209 1646 209 1646 366 1633 c 0,30,31
 495 1622 495 1622 592 1580.5 c 128,-1,32
 689 1539 689 1539 738.5 1479.5 c 128,-1,33
 788 1420 788 1420 788 1343.5 c 128,-1,34
 788 1267 788 1267 732 1189 c 0,35,36
 690 1132 690 1132 625.5 1014.5 c 128,-1,37
 561 897 561 897 512 790 c 0,38,39
 424 599 424 599 355.5 552.5 c 128,-1,40
 287 506 287 506 209 584 c 0,15,16
EndSplineSet
EndChar

StartChar: at
Encoding: 64 64 35
Width: 2168
GlyphClass: 1
Flags: W
LayerCount: 2
Fore
SplineSet
656 -259 m 0,0,1
 512 -216 512 -216 393.5 -133.5 c 128,-1,2
 275 -51 275 -51 195 53.5 c 128,-1,3
 115 158 115 158 66 284.5 c 128,-1,4
 17 411 17 411 4 542.5 c 128,-1,5
 -9 674 -9 674 14.5 810.5 c 128,-1,6
 38 947 38 947 96 1070 c 128,-1,7
 154 1193 154 1193 253.5 1304.5 c 128,-1,8
 353 1416 353 1416 485 1497 c 0,9,10
 599 1566 599 1566 723.5 1601.5 c 128,-1,11
 848 1637 848 1637 967.5 1638 c 128,-1,12
 1087 1639 1087 1639 1204.5 1610.5 c 128,-1,13
 1322 1582 1322 1582 1424 1527 c 128,-1,14
 1526 1472 1526 1472 1613.5 1391 c 128,-1,15
 1701 1310 1701 1310 1763.5 1211.5 c 128,-1,16
 1826 1113 1826 1113 1861.5 991.5 c 128,-1,17
 1897 870 1897 870 1897 739 c 0,18,19
 1897 673 1897 673 1871.5 604.5 c 128,-1,20
 1846 536 1846 536 1802.5 477.5 c 128,-1,21
 1759 419 1759 419 1701.5 367 c 128,-1,22
 1644 315 1644 315 1581.5 278 c 128,-1,23
 1519 241 1519 241 1453 220.5 c 128,-1,24
 1387 200 1387 200 1329 198.5 c 128,-1,25
 1271 197 1271 197 1221 221 c 128,-1,26
 1171 245 1171 245 1141 294 c 0,27,28
 1119 330 1119 330 1055 327 c 128,-1,29
 991 324 991 324 899 282 c 0,30,31
 722 201 722 201 598 279 c 0,32,33
 498 341 498 341 473 479 c 0,34,35
 443 639 443 639 530 808 c 0,36,37
 578 900 578 900 657 978 c 0,38,39
 710 1031 710 1031 766.5 1069.5 c 128,-1,40
 823 1108 823 1108 876 1129.5 c 128,-1,41
 929 1151 929 1151 982.5 1159 c 128,-1,42
 1036 1167 1036 1167 1083.5 1159.5 c 128,-1,43
 1131 1152 1131 1152 1174.5 1133 c 128,-1,44
 1218 1114 1218 1114 1252 1080.5 c 128,-1,45
 1286 1047 1286 1047 1313 1004.5 c 128,-1,46
 1340 962 1340 962 1354 906.5 c 128,-1,47
 1368 851 1368 851 1371.5 787 c 128,-1,48
 1375 723 1375 723 1362 649 c 0,49,50
 1349 563 1349 563 1354 500.5 c 128,-1,51
 1359 438 1359 438 1384 405.5 c 128,-1,52
 1409 373 1409 373 1445.5 367 c 128,-1,53
 1482 361 1482 361 1533 388 c 128,-1,54
 1584 415 1584 415 1642 472 c 0,55,56
 1710 540 1710 540 1726 633 c 128,-1,57
 1742 726 1742 726 1711.5 820.5 c 128,-1,58
 1681 915 1681 915 1612.5 1008 c 128,-1,59
 1544 1101 1544 1101 1452.5 1173 c 128,-1,60
 1361 1245 1361 1245 1244 1289.5 c 128,-1,61
 1127 1334 1127 1334 1009 1334 c 0,62,63
 670 1334 670 1334 485.5 1138 c 128,-1,64
 301 942 301 942 301 581 c 0,65,66
 301 473 301 473 333.5 374.5 c 128,-1,67
 366 276 366 276 423 198.5 c 128,-1,68
 480 121 480 121 561 60 c 128,-1,69
 642 -1 642 -1 736.5 -39.5 c 128,-1,70
 831 -78 831 -78 940 -94.5 c 128,-1,71
 1049 -111 1049 -111 1160.5 -102 c 128,-1,72
 1272 -93 1272 -93 1389.5 -56 c 128,-1,73
 1507 -19 1507 -19 1616 46 c 0,74,75
 1809 159 1809 159 1842 167 c 0,76,77
 1862 172 1862 172 1862 157 c 0,78,79
 1862 140 1862 140 1818 58 c 0,80,81
 1771 -29 1771 -29 1679 -101 c 128,-1,82
 1587 -173 1587 -173 1466.5 -219.5 c 128,-1,83
 1346 -266 1346 -266 1210 -289.5 c 128,-1,84
 1074 -313 1074 -313 929.5 -305.5 c 128,-1,85
 785 -298 785 -298 656 -259 c 0,0,1
976 469 m 0,86,87
 1036 496 1036 496 1083.5 547.5 c 128,-1,88
 1131 599 1131 599 1155 659.5 c 128,-1,89
 1179 720 1179 720 1185 780.5 c 128,-1,90
 1191 841 1191 841 1169 893 c 128,-1,91
 1147 945 1147 945 1101 974 c 0,92,93
 1069 994 1069 994 1029.5 995.5 c 128,-1,94
 990 997 990 997 950.5 982 c 128,-1,95
 911 967 911 967 870 940.5 c 128,-1,96
 829 914 829 914 793 877 c 128,-1,97
 757 840 757 840 725.5 798.5 c 128,-1,98
 694 757 694 757 673 710.5 c 128,-1,99
 652 664 652 664 641 620 c 128,-1,100
 630 576 630 576 634.5 533 c 128,-1,101
 639 490 639 490 660 457 c 0,102,103
 671 439 671 439 677 429.5 c 128,-1,104
 683 420 683 420 693.5 409 c 128,-1,105
 704 398 704 398 709 393.5 c 128,-1,106
 714 389 714 389 727.5 385.5 c 128,-1,107
 741 382 741 382 748.5 382.5 c 128,-1,108
 756 383 756 383 776 387.5 c 128,-1,109
 796 392 796 392 810 397.5 c 128,-1,110
 824 403 824 403 854.5 415 c 128,-1,111
 885 427 885 427 908.5 438 c 128,-1,112
 932 449 932 449 976 469 c 0,86,87
EndSplineSet
EndChar

StartChar: A
Encoding: 65 65 36
Width: 1921
GlyphClass: 1
Flags: W
LayerCount: 2
Fore
SplineSet
167 64 m 0,0,1
 81 206 81 206 39 352.5 c 128,-1,2
 -3 499 -3 499 0 634.5 c 128,-1,3
 3 770 3 770 46 899 c 128,-1,4
 89 1028 89 1028 167 1138 c 128,-1,5
 245 1248 245 1248 359.5 1340.5 c 128,-1,6
 474 1433 474 1433 613.5 1498 c 128,-1,7
 753 1563 753 1563 925 1600 c 128,-1,8
 1097 1637 1097 1637 1285 1638 c 0,9,10
 1446 1639 1446 1639 1497 1626 c 0,11,12
 1572 1608 1572 1608 1602 1540 c 0,13,14
 1637 1461 1637 1461 1642 1222 c 0,15,16
 1644 1130 1644 1130 1644 882 c 0,17,18
 1644 439 1644 439 1633 327 c 0,19,20
 1620 193 1620 193 1575 154 c 0,21,22
 1541 126 1541 126 1452 124 c 0,23,24
 1436 124 1436 124 1399 124 c 0,25,26
 1352 124 1352 124 1323 124.5 c 128,-1,27
 1294 125 1294 125 1266 130 c 128,-1,28
 1238 135 1238 135 1223.5 140.5 c 128,-1,29
 1209 146 1209 146 1196.5 160 c 128,-1,30
 1184 174 1184 174 1180.5 189 c 128,-1,31
 1177 204 1177 204 1176 232 c 128,-1,32
 1175 260 1175 260 1178.5 288.5 c 128,-1,33
 1182 317 1182 317 1188 363 c 0,34,35
 1207 488 1207 488 1200 523 c 0,36,37
 1191 570 1191 570 1138 586 c 0,38,39
 1084 602 1084 602 879 602 c 0,40,41
 859 602 859 602 816 602 c 0,42,43
 729 602 729 602 668.5 599.5 c 128,-1,44
 608 597 608 597 557.5 588 c 128,-1,45
 507 579 507 579 478.5 566.5 c 128,-1,46
 450 554 450 554 433 531 c 128,-1,47
 416 508 416 508 415.5 480.5 c 128,-1,48
 415 453 415 453 427.5 410.5 c 128,-1,49
 440 368 440 368 463 319.5 c 128,-1,50
 486 271 486 271 524 204 c 0,51,52
 582 98 582 98 588.5 27.5 c 128,-1,53
 595 -43 595 -43 551 -96 c 0,54,55
 501 -156 501 -156 460.5 -177 c 128,-1,56
 420 -198 420 -198 374.5 -179 c 128,-1,57
 329 -160 329 -160 281 -102 c 128,-1,58
 233 -44 233 -44 167 64 c 0,0,1
1206 1121 m 0,59,60
 1206 1454 1206 1454 1059.5 1486.5 c 128,-1,61
 913 1519 913 1519 641 1247 c 0,62,63
 551 1157 551 1157 496 1087.5 c 128,-1,64
 441 1018 441 1018 419.5 963 c 128,-1,65
 398 908 398 908 410.5 870.5 c 128,-1,66
 423 833 423 833 472 808.5 c 128,-1,67
 521 784 521 784 603 773 c 128,-1,68
 685 762 685 762 807 762 c 0,69,70
 1020 762 1020 762 1079 773 c 0,71,72
 1156 788 1156 788 1181 841 c 0,73,74
 1204 889 1204 889 1205 1038 c 0,75,76
 1206 1063 1206 1063 1206 1121 c 0,59,60
EndSplineSet
EndChar

StartChar: B
Encoding: 66 66 37
Width: 2005
GlyphClass: 1
Flags: W
LayerCount: 2
Fore
SplineSet
26 208 m 0,0,1
 61 229 61 229 84 258.5 c 128,-1,2
 107 288 107 288 124 334.5 c 128,-1,3
 141 381 141 381 149.5 457 c 128,-1,4
 158 533 158 533 162 632 c 128,-1,5
 166 731 166 731 166 880 c 128,-1,6
 166 1029 166 1029 162 1128 c 128,-1,7
 158 1227 158 1227 149.5 1303 c 128,-1,8
 141 1379 141 1379 124 1425.5 c 128,-1,9
 107 1472 107 1472 84 1501.5 c 128,-1,10
 61 1531 61 1531 26 1552 c 0,11,12
 -42 1592 -42 1592 84 1616 c 0,13,14
 253 1648 253 1648 596 1635 c 0,15,16
 983 1620 983 1620 1155 1561 c 0,17,18
 1162 1559 1162 1559 1169 1556 c 0,19,20
 1213 1539 1213 1539 1237.5 1529.5 c 128,-1,21
 1262 1520 1262 1520 1286 1507 c 128,-1,22
 1310 1494 1310 1494 1319.5 1486.5 c 128,-1,23
 1329 1479 1329 1479 1334 1464.5 c 128,-1,24
 1339 1450 1339 1450 1335 1439.5 c 128,-1,25
 1331 1429 1331 1429 1317.5 1408 c 128,-1,26
 1304 1387 1304 1387 1288.5 1369.5 c 128,-1,27
 1273 1352 1273 1352 1244 1320 c 256,28,29
 1215 1288 1215 1288 1199.5 1270 c 128,-1,30
 1184 1252 1184 1252 1171 1228 c 128,-1,31
 1158 1204 1158 1204 1154 1190.5 c 128,-1,32
 1150 1177 1150 1177 1154 1152 c 128,-1,33
 1158 1127 1158 1127 1167.5 1110 c 128,-1,34
 1177 1093 1177 1093 1200 1059 c 128,-1,35
 1223 1025 1223 1025 1246.5 996.5 c 128,-1,36
 1270 968 1270 968 1313 917 c 0,37,38
 1436 771 1436 771 1501 658 c 128,-1,39
 1566 545 1566 545 1575.5 455.5 c 128,-1,40
 1585 366 1585 366 1537.5 303.5 c 128,-1,41
 1490 241 1490 241 1380.5 200.5 c 128,-1,42
 1271 160 1271 160 1104.5 142 c 128,-1,43
 938 124 938 124 705 124 c 0,44,45
 78 126 78 126 11 167 c 0,46,47
 -16 183 -16 183 26 208 c 0,0,1
1123 455 m 0,48,49
 1123 529 1123 529 1105 596 c 128,-1,50
 1087 663 1087 663 1056.5 712.5 c 128,-1,51
 1026 762 1026 762 984 795.5 c 128,-1,52
 942 829 942 829 897 841 c 128,-1,53
 852 853 852 853 803.5 840.5 c 128,-1,54
 755 828 755 828 712 789 c 0,55,56
 647 730 647 730 607.5 668.5 c 128,-1,57
 568 607 568 607 556.5 551.5 c 128,-1,58
 545 496 545 496 558 446 c 128,-1,59
 571 396 571 396 606.5 360 c 128,-1,60
 642 324 642 324 703.5 303 c 128,-1,61
 765 282 765 282 844 282 c 0,62,63
 905 282 905 282 946 284.5 c 128,-1,64
 987 287 987 287 1020 294.5 c 128,-1,65
 1053 302 1053 302 1071.5 313.5 c 128,-1,66
 1090 325 1090 325 1102.5 345.5 c 128,-1,67
 1115 366 1115 366 1119 391.5 c 128,-1,68
 1123 417 1123 417 1123 455 c 0,48,49
833 1377 m 0,69,70
 777 1418 777 1418 737.5 1440 c 128,-1,71
 698 1462 698 1462 667 1467.5 c 128,-1,72
 636 1473 636 1473 617 1459.5 c 128,-1,73
 598 1446 598 1446 586 1410 c 128,-1,74
 574 1374 574 1374 569.5 1320.5 c 128,-1,75
 565 1267 565 1267 565 1185 c 0,76,77
 565 1010 565 1010 575 976 c 0,78,79
 586 938 586 938 624 959 c 0,80,81
 655 977 655 977 769 1084 c 0,82,83
 808 1121 808 1121 831.5 1144 c 128,-1,84
 855 1167 855 1167 876.5 1191.5 c 128,-1,85
 898 1216 898 1216 907 1230 c 128,-1,86
 916 1244 916 1244 920 1261.5 c 128,-1,87
 924 1279 924 1279 920 1289.5 c 128,-1,88
 916 1300 916 1300 904 1316 c 128,-1,89
 892 1332 892 1332 876 1344.5 c 128,-1,90
 860 1357 860 1357 833 1377 c 0,69,70
EndSplineSet
EndChar

StartChar: C
Encoding: 67 67 38
Width: 2009
GlyphClass: 1
Flags: W
LayerCount: 2
Fore
SplineSet
381 211 m 0,0,1
 93 373 93 373 21 633 c 0,2,3
 -41 859 -41 859 71 1097 c 0,4,5
 170 1311 170 1311 373 1458 c 0,6,7
 611 1630 611 1630 893 1638 c 0,8,9
 1137 1644 1137 1644 1366 1521 c 0,10,11
 1453 1475 1453 1475 1515.5 1477 c 128,-1,12
 1578 1479 1578 1479 1640 1531 c 0,13,14
 1665 1552 1665 1552 1682 1562 c 128,-1,15
 1699 1572 1699 1572 1712.5 1572 c 128,-1,16
 1726 1572 1726 1572 1733.5 1562 c 128,-1,17
 1741 1552 1741 1552 1746.5 1527 c 128,-1,18
 1752 1502 1752 1502 1753.5 1466.5 c 128,-1,19
 1755 1431 1755 1431 1755 1377 c 0,20,21
 1755 1330 1755 1330 1754 1297.5 c 128,-1,22
 1753 1265 1753 1265 1749.5 1235.5 c 128,-1,23
 1746 1206 1746 1206 1741.5 1188.5 c 128,-1,24
 1737 1171 1737 1171 1727.5 1158.5 c 128,-1,25
 1718 1146 1718 1146 1707.5 1143 c 128,-1,26
 1697 1140 1697 1140 1678.5 1144 c 128,-1,27
 1660 1148 1660 1148 1640.5 1158 c 128,-1,28
 1621 1168 1621 1168 1591.5 1187.5 c 128,-1,29
 1562 1207 1562 1207 1531.5 1230.5 c 128,-1,30
 1501 1254 1501 1254 1458 1288 c 0,31,32
 1347 1375 1347 1375 1228 1417 c 128,-1,33
 1109 1459 1109 1459 1002 1456.5 c 128,-1,34
 895 1454 895 1454 798.5 1410.5 c 128,-1,35
 702 1367 702 1367 631.5 1290.5 c 128,-1,36
 561 1214 561 1214 519.5 1099.5 c 128,-1,37
 478 985 478 985 478 849 c 0,38,39
 478 714 478 714 512.5 604.5 c 128,-1,40
 547 495 547 495 608.5 420 c 128,-1,41
 670 345 670 345 758.5 301.5 c 128,-1,42
 847 258 847 258 953.5 251 c 128,-1,43
 1060 244 1060 244 1186.5 275 c 128,-1,44
 1313 306 1313 306 1447 376 c 0,45,46
 1639 475 1639 475 1703 468 c 0,47,48
 1746 464 1746 464 1698 411 c 0,49,50
 1652 361 1652 361 1540 288 c 0,51,52
 1396 193 1396 193 1174 147.5 c 128,-1,53
 952 102 952 102 733.5 118.5 c 128,-1,54
 515 135 515 135 381 211 c 0,0,1
EndSplineSet
EndChar

StartChar: D
Encoding: 68 68 39
Width: 2008
GlyphClass: 1
Flags: W
LayerCount: 2
Fore
SplineSet
36 204 m 0,0,1
 85 233 85 233 121 337 c 128,-1,2
 157 441 157 441 173 579.5 c 128,-1,3
 189 718 189 718 189 876.5 c 128,-1,4
 189 1035 189 1035 173 1173.5 c 128,-1,5
 157 1312 157 1312 121 1416 c 128,-1,6
 85 1520 85 1520 36 1548 c 0,7,8
 -46 1596 -46 1596 83 1620 c 0,9,10
 251 1651 251 1651 613 1630 c 0,11,12
 1016 1607 1016 1607 1221 1543 c 0,13,14
 1266 1529 1266 1529 1295 1514 c 0,15,16
 1612 1350 1612 1350 1713 1113 c 0,17,18
 1805 899 1805 899 1699 682 c 0,19,20
 1600 476 1600 476 1355 332 c 0,21,22
 1035 142 1035 142 584 123 c 0,23,24
 532 120 532 120 479 121 c 0,25,26
 51 122 51 122 7 157 c 0,27,28
 -15 174 -15 174 36 204 c 0,0,1
1133 437 m 0,29,30
 1196 500 1196 500 1235.5 580.5 c 128,-1,31
 1275 661 1275 661 1288 745 c 128,-1,32
 1301 829 1301 829 1293 917 c 128,-1,33
 1285 1005 1285 1005 1257 1085.5 c 128,-1,34
 1229 1166 1229 1166 1182 1237.5 c 128,-1,35
 1135 1309 1135 1309 1074.5 1361.5 c 128,-1,36
 1014 1414 1014 1414 936.5 1444.5 c 128,-1,37
 859 1475 859 1475 774 1475 c 0,38,39
 680 1475 680 1475 649 1458 c 0,40,41
 604 1434 604 1434 589 1343 c 0,42,43
 575 1253 575 1253 575 908 c 0,44,45
 575 894 575 894 575 876 c 0,46,47
 575 379 575 379 715 269 c 128,-1,48
 855 159 855 159 1133 437 c 0,29,30
EndSplineSet
EndChar

StartChar: E
Encoding: 69 69 40
Width: 2008
GlyphClass: 1
Flags: W
LayerCount: 2
Fore
SplineSet
28 210 m 0,0,1
 77 239 77 239 112.5 343 c 128,-1,2
 148 447 148 447 164.5 585 c 128,-1,3
 181 723 181 723 181 882 c 128,-1,4
 181 1041 181 1041 164.5 1179 c 128,-1,5
 148 1317 148 1317 112.5 1421 c 128,-1,6
 77 1525 77 1525 28 1554 c 0,7,8
 -41 1594 -41 1594 65 1613 c 0,9,10
 195 1636 195 1636 666 1638 c 0,11,12
 1135 1639 1135 1639 1250 1629 c 0,13,14
 1382 1617 1382 1617 1418 1574 c 0,15,16
 1443 1545 1443 1545 1444 1465 c 0,17,18
 1444 1454 1444 1454 1444 1428 c 0,19,20
 1444 1395 1444 1395 1444 1373.5 c 128,-1,21
 1444 1352 1444 1352 1442 1331 c 128,-1,22
 1440 1310 1440 1310 1438.5 1298.5 c 128,-1,23
 1437 1287 1437 1287 1432 1278 c 128,-1,24
 1427 1269 1427 1269 1422.5 1266.5 c 128,-1,25
 1418 1264 1418 1264 1408.5 1265.5 c 128,-1,26
 1399 1267 1399 1267 1390.5 1272.5 c 128,-1,27
 1382 1278 1382 1278 1366 1290 c 128,-1,28
 1350 1302 1350 1302 1335.5 1314.5 c 128,-1,29
 1321 1327 1321 1327 1298 1348 c 0,30,31
 1233 1407 1233 1407 1150.5 1444 c 128,-1,32
 1068 1481 1068 1481 988.5 1492 c 128,-1,33
 909 1503 909 1503 831.5 1492 c 128,-1,34
 754 1481 754 1481 696 1449.5 c 128,-1,35
 638 1418 638 1418 602 1364 c 128,-1,36
 566 1310 566 1310 566 1241 c 0,37,38
 566 1189 566 1189 569 1153.5 c 128,-1,39
 572 1118 572 1118 580.5 1090 c 128,-1,40
 589 1062 589 1062 602 1046 c 128,-1,41
 615 1030 615 1030 638 1019.5 c 128,-1,42
 661 1009 661 1009 689.5 1005.5 c 128,-1,43
 718 1002 718 1002 761 1002 c 0,44,45
 841 1002 841 1002 913 978.5 c 128,-1,46
 985 955 985 955 1005 922 c 0,47,48
 1030 882 1030 882 958 859 c 0,49,50
 903 842 903 842 810 842 c 0,51,52
 764 842 764 842 735 841 c 128,-1,53
 706 840 706 840 677.5 834.5 c 128,-1,54
 649 829 649 829 633.5 822 c 128,-1,55
 618 815 618 815 604 799 c 128,-1,56
 590 783 590 783 584 765.5 c 128,-1,57
 578 748 578 748 573 715.5 c 128,-1,58
 568 683 568 683 567 649.5 c 128,-1,59
 566 616 566 616 566 563 c 0,60,61
 566 429 566 429 681 335 c 0,62,63
 779 255 779 255 902 248 c 0,64,65
 1030 239 1030 239 1096 318 c 0,66,67
 1128 356 1128 356 1139 410 c 0,68,69
 1152 473 1152 473 1182 473 c 0,70,71
 1220 474 1220 474 1330 360 c 0,72,73
 1343 346 1343 346 1358 330 c 0,74,75
 1443 240 1443 240 1457 211 c 0,76,77
 1478 168 1478 168 1425 150 c 0,78,79
 1355 128 1355 128 1035 126 c 0,80,81
 946 126 946 126 720 126 c 0,82,83
 82 128 82 128 13 169 c 0,84,85
 -15 185 -15 185 28 210 c 0,0,1
EndSplineSet
EndChar

StartChar: F
Encoding: 70 70 41
Width: 1760
GlyphClass: 1
Flags: W
LayerCount: 2
Fore
SplineSet
47 210 m 0,0,1
 96 239 96 239 132 343 c 128,-1,2
 168 447 168 447 184 585 c 128,-1,3
 200 723 200 723 200 882 c 128,-1,4
 200 1041 200 1041 184 1179 c 128,-1,5
 168 1317 168 1317 132 1421 c 128,-1,6
 96 1525 96 1525 47 1554 c 0,7,8
 -22 1594 -22 1594 77 1613 c 0,9,10
 198 1636 198 1636 645 1638 c 0,11,12
 1090 1639 1090 1639 1199 1629 c 0,13,14
 1325 1617 1325 1617 1358 1574 c 0,15,16
 1382 1545 1382 1545 1383 1463 c 0,17,18
 1383 1452 1383 1452 1383 1428 c 0,19,20
 1383 1395 1383 1395 1383 1373.5 c 128,-1,21
 1383 1352 1383 1352 1381.5 1331 c 128,-1,22
 1380 1310 1380 1310 1378 1298.5 c 128,-1,23
 1376 1287 1376 1287 1371.5 1278 c 128,-1,24
 1367 1269 1367 1269 1362.5 1266.5 c 128,-1,25
 1358 1264 1358 1264 1348.5 1265.5 c 128,-1,26
 1339 1267 1339 1267 1330 1272.5 c 128,-1,27
 1321 1278 1321 1278 1305.5 1290 c 128,-1,28
 1290 1302 1290 1302 1275.5 1314.5 c 128,-1,29
 1261 1327 1261 1327 1238 1348 c 0,30,31
 1173 1406 1173 1406 1097.5 1442.5 c 128,-1,32
 1022 1479 1022 1479 951 1490 c 128,-1,33
 880 1501 880 1501 813 1490 c 128,-1,34
 746 1479 746 1479 696 1448 c 128,-1,35
 646 1417 646 1417 616 1363.5 c 128,-1,36
 586 1310 586 1310 586 1241 c 0,37,38
 586 1189 586 1189 588.5 1153.5 c 128,-1,39
 591 1118 591 1118 600 1090 c 128,-1,40
 609 1062 609 1062 621.5 1046 c 128,-1,41
 634 1030 634 1030 657 1019.5 c 128,-1,42
 680 1009 680 1009 709 1005.5 c 128,-1,43
 738 1002 738 1002 780 1002 c 0,44,45
 861 1002 861 1002 932.5 978.5 c 128,-1,46
 1004 955 1004 955 1024 922 c 0,47,48
 1049 882 1049 882 977 859 c 0,49,50
 922 842 922 842 830 842 c 0,51,52
 765 842 765 842 711.5 810.5 c 128,-1,53
 658 779 658 779 624.5 728.5 c 128,-1,54
 591 678 591 678 575.5 611.5 c 128,-1,55
 560 545 560 545 565 477 c 128,-1,56
 570 409 570 409 599.5 340.5 c 128,-1,57
 629 272 629 272 681 220 c 0,58,59
 731 170 731 170 684 150 c 0,60,61
 624 125 624 125 342 126 c 0,62,63
 34 128 34 128 4 157 c 0,64,65
 -14 175 -14 175 47 210 c 0,0,1
EndSplineSet
EndChar

StartChar: G
Encoding: 71 71 42
Width: 2016
GlyphClass: 1
Flags: W
LayerCount: 2
Fore
SplineSet
1496 -130 m 0,0,1
 1439 -96 1439 -96 1398 -25.5 c 128,-1,2
 1357 45 1357 45 1357 110 c 0,3,4
 1357 151 1357 151 1353 175 c 128,-1,5
 1349 199 1349 199 1339.5 213 c 128,-1,6
 1330 227 1330 227 1311.5 226.5 c 128,-1,7
 1293 226 1293 226 1267.5 216.5 c 128,-1,8
 1242 207 1242 207 1202 186 c 0,9,10
 1079 120 1079 120 937.5 103.5 c 128,-1,11
 796 87 796 87 664.5 115.5 c 128,-1,12
 533 144 533 144 411 213 c 128,-1,13
 289 282 289 282 198.5 377.5 c 128,-1,14
 108 473 108 473 54 599 c 128,-1,15
 0 725 0 725 0 861 c 0,16,17
 0 967 0 967 35.5 1068.5 c 128,-1,18
 71 1170 71 1170 134 1253.5 c 128,-1,19
 197 1337 197 1337 284 1408 c 128,-1,20
 371 1479 371 1479 471.5 1528.5 c 128,-1,21
 572 1578 572 1578 686.5 1606.5 c 128,-1,22
 801 1635 801 1635 915 1638 c 128,-1,23
 1029 1641 1029 1641 1146 1615 c 128,-1,24
 1263 1589 1263 1589 1367 1534 c 0,25,26
 1454 1487 1454 1487 1516 1489.5 c 128,-1,27
 1578 1492 1578 1492 1641 1544 c 0,28,29
 1666 1564 1666 1564 1682.5 1574.5 c 128,-1,30
 1699 1585 1699 1585 1712.5 1585 c 128,-1,31
 1726 1585 1726 1585 1734 1574.5 c 128,-1,32
 1742 1564 1742 1564 1747 1539 c 128,-1,33
 1752 1514 1752 1514 1753.5 1479 c 128,-1,34
 1755 1444 1755 1444 1755 1390 c 0,35,36
 1755 1342 1755 1342 1754.5 1309.5 c 128,-1,37
 1754 1277 1754 1277 1750.5 1247.5 c 128,-1,38
 1747 1218 1747 1218 1742.5 1200.5 c 128,-1,39
 1738 1183 1738 1183 1728.5 1170.5 c 128,-1,40
 1719 1158 1719 1158 1708 1155 c 128,-1,41
 1697 1152 1697 1152 1679 1156 c 128,-1,42
 1661 1160 1661 1160 1641.5 1170.5 c 128,-1,43
 1622 1181 1622 1181 1592.5 1200.5 c 128,-1,44
 1563 1220 1563 1220 1532 1243 c 128,-1,45
 1501 1266 1501 1266 1458 1300 c 0,46,47
 1276 1443 1276 1443 1057 1453 c 128,-1,48
 838 1463 838 1463 656 1335 c 0,49,50
 591 1290 591 1290 546 1211.5 c 128,-1,51
 501 1133 501 1133 481 1042.5 c 128,-1,52
 461 952 461 952 464 852 c 128,-1,53
 467 752 467 752 491 662 c 128,-1,54
 515 572 515 572 564.5 494.5 c 128,-1,55
 614 417 614 417 682 373 c 0,56,57
 832 275 832 275 1014 308 c 0,58,59
 1162 335 1162 335 1257 432 c 0,60,61
 1356 533 1356 533 1338 651 c 0,62,63
 1328 720 1328 720 1276 782 c 0,64,65
 1222 847 1222 847 1237 870 c 0,66,67
 1255 897 1255 897 1395 900 c 0,68,69
 1425 901 1425 901 1466 901 c 0,70,71
 1606 901 1606 901 1649 888 c 0,72,73
 1707 871 1707 871 1729 809 c 0,74,75
 1753 740 1753 740 1755 514 c 0,76,77
 1755 464 1755 464 1755 342 c 0,78,79
 1755 -7 1755 -7 1735 -103 c 0,80,81
 1716 -191 1716 -191 1667 -197 c 0,82,83
 1623 -203 1623 -203 1508 -137 c 0,84,85
 1502 -134 1502 -134 1496 -130 c 0,0,1
EndSplineSet
EndChar

StartChar: H
Encoding: 72 72 43
Width: 2001
GlyphClass: 1
Flags: W
LayerCount: 2
Fore
SplineSet
0 880 m 0,0,1
 0 1325 0 1325 11 1437 c 0,2,3
 24 1569 24 1569 69 1607 c 0,4,5
 102 1636 102 1636 190 1638 c 0,6,7
 206 1638 206 1638 241 1638 c 0,8,9
 282 1638 282 1638 305.5 1638 c 128,-1,10
 329 1638 329 1638 356 1634.5 c 128,-1,11
 383 1631 383 1631 396 1628 c 128,-1,12
 409 1625 409 1625 424.5 1614 c 128,-1,13
 440 1603 440 1603 446 1594.5 c 128,-1,14
 452 1586 452 1586 458 1564 c 128,-1,15
 464 1542 464 1542 464.5 1524 c 128,-1,16
 465 1506 465 1506 464 1470 c 128,-1,17
 463 1434 463 1434 460.5 1403 c 128,-1,18
 458 1372 458 1372 453 1319 c 0,19,20
 436 1150 436 1150 444 1103 c 0,21,22
 453 1041 453 1041 504 1021 c 0,23,24
 554 1001 554 1001 723 1000 c 0,25,26
 746 1000 746 1000 798 1000 c 0,27,28
 1004 1000 1004 1000 1059 1011 c 0,29,30
 1127 1025 1127 1025 1145 1073 c 0,31,32
 1162 1118 1162 1118 1149 1258 c 0,33,34
 1147 1277 1147 1277 1143 1319 c 0,35,36
 1138 1372 1138 1372 1135.5 1403 c 128,-1,37
 1133 1434 1133 1434 1132 1470 c 128,-1,38
 1131 1506 1131 1506 1131.5 1524 c 128,-1,39
 1132 1542 1132 1542 1138 1564 c 128,-1,40
 1144 1586 1144 1586 1150 1594.5 c 128,-1,41
 1156 1603 1156 1603 1171 1614 c 128,-1,42
 1186 1625 1186 1625 1199.5 1628 c 128,-1,43
 1213 1631 1213 1631 1240 1634.5 c 128,-1,44
 1267 1638 1267 1638 1290.5 1638 c 128,-1,45
 1314 1638 1314 1638 1354 1638 c 0,46,47
 1463 1638 1463 1638 1497 1625 c 0,48,49
 1550 1605 1550 1605 1570 1530 c 0,50,51
 1593 1441 1593 1441 1595 1133 c 0,52,53
 1596 1059 1596 1059 1596 880 c 0,54,55
 1596 435 1596 435 1585 323 c 0,56,57
 1572 190 1572 190 1528 152 c 0,58,59
 1495 124 1495 124 1408 122 c 0,60,61
 1392 122 1392 122 1356 122 c 0,62,63
 1303 122 1303 122 1277 122 c 128,-1,64
 1251 122 1251 122 1220 129.5 c 128,-1,65
 1189 137 1189 137 1177.5 142 c 128,-1,66
 1166 147 1166 147 1152 170.5 c 128,-1,67
 1138 194 1138 194 1136 212 c 128,-1,68
 1134 230 1134 230 1133 277.5 c 128,-1,69
 1132 325 1132 325 1135 363.5 c 128,-1,70
 1138 402 1138 402 1145 481 c 0,71,72
 1160 672 1160 672 1152 725 c 0,73,74
 1142 794 1142 794 1091 817 c 0,75,76
 1042 839 1042 839 882 840 c 0,77,78
 856 840 856 840 798 840 c 0,79,80
 597 840 597 840 543 829 c 0,81,82
 473 814 473 814 453 763 c 0,83,84
 434 714 434 714 445 563 c 0,85,86
 447 538 447 538 451 481 c 0,87,88
 458 402 458 402 461 363.5 c 128,-1,89
 464 325 464 325 462.5 277.5 c 128,-1,90
 461 230 461 230 459.5 212 c 128,-1,91
 458 194 458 194 444 170.5 c 128,-1,92
 430 147 430 147 418.5 142 c 128,-1,93
 407 137 407 137 375.5 129.5 c 128,-1,94
 344 122 344 122 318 122 c 128,-1,95
 292 122 292 122 240 122 c 0,96,97
 132 122 132 122 98 135 c 0,98,99
 46 155 46 155 26 230 c 0,100,101
 2 319 2 319 0 629 c 0,102,103
 0 701 0 701 0 880 c 0,0,1
EndSplineSet
EndChar

StartChar: I
Encoding: 73 73 44
Width: 714
GlyphClass: 1
Flags: W
LayerCount: 2
Fore
SplineSet
30 218 m 256,0,1
 75 263 75 263 100.5 460.5 c 128,-1,2
 126 658 126 658 126 880 c 128,-1,3
 126 1102 126 1102 100.5 1299.5 c 128,-1,4
 75 1497 75 1497 30 1542 c 0,5,6
 -22 1594 -22 1594 19 1614 c 0,7,8
 66 1638 66 1638 285 1638 c 0,9,10
 528 1638 528 1638 562 1608 c 0,11,12
 586 1587 586 1587 541 1542 c 0,13,14
 495 1497 495 1497 470 1299.5 c 128,-1,15
 445 1102 445 1102 445 880 c 128,-1,16
 445 658 445 658 470 460.5 c 128,-1,17
 495 263 495 263 541 218 c 0,18,19
 592 166 592 166 552 146 c 0,20,21
 505 122 505 122 285 122 c 0,22,23
 43 122 43 122 8 152 c 0,24,25
 -15 173 -15 173 30 218 c 256,0,1
EndSplineSet
EndChar

StartChar: J
Encoding: 74 74 45
Width: 1497
GlyphClass: 1
Flags: W
LayerCount: 2
Fore
SplineSet
252 126 m 0,0,1
 371 169 371 169 477.5 282.5 c 128,-1,2
 584 396 584 396 658.5 544 c 128,-1,3
 733 692 733 692 778.5 866.5 c 128,-1,4
 824 1041 824 1041 831 1203 c 128,-1,5
 838 1365 838 1365 799 1509 c 128,-1,6
 760 1653 760 1653 675 1738 c 0,7,8
 625 1789 625 1789 668 1809 c 0,9,10
 721 1834 721 1834 971 1834 c 0,11,12
 1240 1834 1240 1834 1282 1804 c 0,13,14
 1311 1783 1311 1783 1266 1738 c 0,15,16
 1224 1696 1224 1696 1197 1515 c 128,-1,17
 1170 1334 1170 1334 1170 1095 c 0,18,19
 1170 891 1170 891 1148 733.5 c 128,-1,20
 1126 576 1126 576 1078.5 452 c 128,-1,21
 1031 328 1031 328 958 243 c 128,-1,22
 885 158 885 158 780 103 c 128,-1,23
 675 48 675 48 541.5 24.5 c 128,-1,24
 408 1 408 1 236 4 c 0,25,26
 37 8 37 8 17 17 c 0,27,28
 -2 26 -2 26 48 48 c 0,29,30
 86 65 86 65 252 126 c 0,0,1
EndSplineSet
EndChar

StartChar: K
Encoding: 75 75 46
Width: 1692
GlyphClass: 1
Flags: W
LayerCount: 2
Fore
SplineSet
902 -64 m 0,0,1
 856 -13 856 -13 835.5 18 c 128,-1,2
 815 49 815 49 813 83.5 c 128,-1,3
 811 118 811 118 827.5 150.5 c 128,-1,4
 844 183 844 183 884 237 c 0,5,6
 1114 550 1114 550 851 788 c 0,7,8
 817 819 817 819 781 835 c 128,-1,9
 745 851 745 851 711.5 851.5 c 128,-1,10
 678 852 678 852 644.5 840.5 c 128,-1,11
 611 829 611 829 583.5 805.5 c 128,-1,12
 556 782 556 782 531 749 c 128,-1,13
 506 716 506 716 489 673.5 c 128,-1,14
 472 631 472 631 460.5 582.5 c 128,-1,15
 449 534 449 534 448.5 478.5 c 128,-1,16
 448 423 448 423 455 364 c 0,17,18
 462 318 462 318 465.5 289 c 128,-1,19
 469 260 469 260 468.5 231.5 c 128,-1,20
 468 203 468 203 464 188 c 128,-1,21
 460 173 460 173 448 159 c 128,-1,22
 436 145 436 145 421.5 139 c 128,-1,23
 407 133 407 133 379 128.5 c 128,-1,24
 351 124 351 124 322 123 c 128,-1,25
 293 122 293 122 246 122 c 0,26,27
 135 122 135 122 101 135 c 0,28,29
 47 155 47 155 27 229 c 0,30,31
 3 317 3 317 1 621 c 0,32,33
 0 695 0 695 0 880 c 0,34,35
 0 1325 0 1325 11 1437 c 0,36,37
 24 1570 24 1570 68 1608 c 0,38,39
 101 1636 101 1636 188 1638 c 0,40,41
 204 1638 204 1638 240 1638 c 0,42,43
 366 1638 366 1638 402 1625 c 0,44,45
 448 1607 448 1607 459 1546 c 0,46,47
 469 1490 469 1490 453 1278 c 0,48,49
 452 1270 452 1270 452 1259 c 0,50,51
 436 1050 436 1050 444 1005 c 0,52,53
 452 955 452 955 489 969 c 0,54,55
 530 985 530 985 663 1111 c 0,56,57
 688 1135 688 1135 747 1192 c 0,58,59
 881 1321 881 1321 963.5 1432.5 c 128,-1,60
 1046 1544 1046 1544 1029 1571 c 0,61,62
 1011 1601 1011 1601 1072 1621 c 0,63,64
 1124 1638 1124 1638 1207 1638 c 0,65,66
 1333 1638 1333 1638 1356 1628 c 0,67,68
 1385 1615 1385 1615 1353 1570 c 0,69,70
 1328 1535 1328 1535 1201 1403 c 0,71,72
 1148 1348 1148 1348 1125.5 1325 c 128,-1,73
 1103 1302 1103 1302 1075.5 1263 c 128,-1,74
 1048 1224 1048 1224 1040.5 1212 c 128,-1,75
 1033 1200 1033 1200 1032 1166 c 128,-1,76
 1031 1132 1031 1132 1038 1119.5 c 128,-1,77
 1045 1107 1045 1107 1070 1066 c 128,-1,78
 1095 1025 1095 1025 1116 1001 c 128,-1,79
 1137 977 1137 977 1186 918 c 0,80,81
 1329 749 1329 749 1351 476 c 0,82,83
 1369 249 1369 249 1299 60 c 0,84,85
 1238 -105 1238 -105 1139 -149 c 0,86,87
 1025 -200 1025 -200 902 -64 c 0,0,1
EndSplineSet
EndChar

StartChar: L
Encoding: 76 76 47
Width: 1515
GlyphClass: 1
Flags: W
LayerCount: 2
Fore
SplineSet
32 218 m 0,0,1
 74 260 74 260 101 444.5 c 128,-1,2
 128 629 128 629 128 879.5 c 128,-1,3
 128 1130 128 1130 101 1315 c 128,-1,4
 74 1500 74 1500 32 1542 c 0,5,6
 -21 1595 -21 1595 16 1615 c 0,7,8
 58 1638 58 1638 251 1638 c 0,9,10
 397 1638 397 1638 442 1625 c 0,11,12
 506 1607 506 1607 529 1543 c 0,13,14
 556 1466 556 1466 550 1226 c 0,15,16
 548 1149 548 1149 541 960 c 0,17,18
 528 658 528 658 644 443 c 0,19,20
 722 298 722 298 828 249 c 0,21,22
 936 200 936 200 1019 276 c 0,23,24
 1069 322 1069 322 1099 408 c 0,25,26
 1113 447 1113 447 1126 461 c 128,-1,27
 1139 475 1139 475 1164.5 465.5 c 128,-1,28
 1190 456 1190 456 1223.5 425 c 128,-1,29
 1257 394 1257 394 1319 328 c 0,30,31
 1405 236 1405 236 1419 207 c 0,32,33
 1440 164 1440 164 1388 147 c 0,34,35
 1320 124 1320 124 1010 122 c 0,36,37
 929 122 929 122 724 122 c 0,38,39
 172 122 172 122 60 153 c 0,40,41
 -9 175 -9 175 32 218 c 0,0,1
EndSplineSet
EndChar

StartChar: M
Encoding: 77 77 48
Width: 2315
GlyphClass: 1
Flags: W
LayerCount: 2
Fore
SplineSet
1694 -58 m 0,0,1
 1650 -9 1650 -9 1631 21 c 128,-1,2
 1612 51 1612 51 1610.5 85 c 128,-1,3
 1609 119 1609 119 1625.5 151 c 128,-1,4
 1642 183 1642 183 1682 237 c 0,5,6
 1759 342 1759 342 1782.5 501 c 128,-1,7
 1806 660 1806 660 1770 819 c 128,-1,8
 1734 978 1734 978 1649 1083 c 0,9,10
 1417 1370 1417 1370 1348 1048 c 0,11,12
 1317 904 1317 904 1317 636 c 0,13,14
 1317 330 1317 330 1305 252 c 0,15,16
 1291 165 1291 165 1247 140 c 0,17,18
 1214 122 1214 122 1112 122 c 0,19,20
 1106 122 1106 122 1097 122 c 0,21,22
 986 122 986 122 953 136 c 0,23,24
 908 155 908 155 898 225 c 0,25,26
 888 291 888 291 904 544 c 0,27,28
 905 553 905 553 905 566 c 0,29,30
 921 820 921 820 897 948 c 128,-1,31
 873 1076 873 1076 794 1164 c 0,32,33
 611 1366 611 1366 519 1193 c 0,34,35
 439 1044 439 1044 439 631 c 0,36,37
 439 328 439 328 427 250 c 0,38,39
 413 164 413 164 369 140 c 0,40,41
 336 122 336 122 234 122 c 0,42,43
 228 122 228 122 219 122 c 0,44,45
 121 122 121 122 90 135 c 0,46,47
 41 155 41 155 23 235 c 0,48,49
 2 328 2 328 0 660 c 0,50,51
 0 725 0 725 0 880 c 0,52,53
 0 1334 0 1334 11 1446 c 0,54,55
 23 1576 23 1576 67 1611 c 0,56,57
 97 1636 97 1636 180 1638 c 0,58,59
 192 1638 192 1638 219 1638 c 0,60,61
 333 1638 333 1638 386 1606 c 128,-1,62
 439 1574 439 1574 439 1506 c 0,63,64
 439 1428 439 1428 457 1421 c 0,65,66
 478 1413 478 1413 556 1481 c 0,67,68
 575 1497 575 1497 601 1521 c 0,69,70
 630 1547 630 1547 645 1560.5 c 128,-1,71
 660 1574 660 1574 681.5 1589 c 128,-1,72
 703 1604 703 1604 713.5 1610.5 c 128,-1,73
 724 1617 724 1617 743 1619.5 c 128,-1,74
 762 1622 762 1622 771 1620.5 c 128,-1,75
 780 1619 780 1619 801 1609 c 128,-1,76
 822 1599 822 1599 834.5 1588.5 c 128,-1,77
 847 1578 847 1578 873.5 1555 c 128,-1,78
 900 1532 900 1532 920.5 1512 c 128,-1,79
 941 1492 941 1492 977 1455 c 0,80,81
 1027 1405 1027 1405 1048 1383.5 c 128,-1,82
 1069 1362 1069 1362 1104 1336.5 c 128,-1,83
 1139 1311 1139 1311 1150 1303.5 c 128,-1,84
 1161 1296 1161 1296 1191.5 1296 c 128,-1,85
 1222 1296 1222 1296 1233.5 1303 c 128,-1,86
 1245 1310 1245 1310 1281 1335.5 c 128,-1,87
 1317 1361 1317 1361 1338.5 1382.5 c 128,-1,88
 1360 1404 1360 1404 1412 1453 c 0,89,90
 1585 1620 1585 1620 1768 1543 c 0,91,92
 1915 1481 1915 1481 2027 1282 c 0,93,94
 2154 1056 2154 1056 2180 764 c 0,95,96
 2211 415 2211 415 2079 142 c 0,97,98
 2059 101 2059 101 2036 62 c 0,99,100
 2032 57 2032 57 2026 46 c 0,101,102
 1986 -20 1986 -20 1969 -48 c 128,-1,103
 1952 -76 1952 -76 1924.5 -112.5 c 128,-1,104
 1897 -149 1897 -149 1888.5 -159.5 c 128,-1,105
 1880 -170 1880 -170 1857 -178 c 128,-1,106
 1834 -186 1834 -186 1826 -181 c 128,-1,107
 1818 -176 1818 -176 1793 -158.5 c 128,-1,108
 1768 -141 1768 -141 1753 -124 c 128,-1,109
 1738 -107 1738 -107 1703 -67 c 0,110,111
 1697 -61 1697 -61 1694 -58 c 0,0,1
EndSplineSet
EndChar

StartChar: N
Encoding: 78 78 49
Width: 1761
GlyphClass: 1
Flags: W
LayerCount: 2
Fore
SplineSet
976 -58 m 0,0,1
 932 -9 932 -9 913 21 c 128,-1,2
 894 51 894 51 892.5 85 c 128,-1,3
 891 119 891 119 907.5 151 c 128,-1,4
 924 183 924 183 964 237 c 0,5,6
 1082 398 1082 398 1071 654 c 0,7,8
 1062 869 1062 869 970 1043 c 0,9,10
 889 1197 889 1197 783 1236 c 0,11,12
 680 1273 680 1273 583 1185 c 0,13,14
 543 1149 543 1149 518 1113.5 c 128,-1,15
 493 1078 493 1078 476 1033 c 128,-1,16
 459 988 459 988 452.5 924 c 128,-1,17
 446 860 446 860 446 780.5 c 128,-1,18
 446 701 446 701 453 583 c 0,19,20
 468 312 468 312 461 244 c 0,21,22
 452 163 452 163 410 140 c 0,23,24
 376 122 376 122 268 122 c 0,25,26
 259 122 259 122 239 122 c 0,27,28
 132 122 132 122 98 135 c 0,29,30
 46 155 46 155 26 231 c 0,31,32
 2 321 2 321 0 632 c 0,33,34
 0 704 0 704 0 880 c 0,35,36
 0 1334 0 1334 11 1446 c 0,37,38
 23 1576 23 1576 67 1611 c 0,39,40
 97 1636 97 1636 180 1638 c 0,41,42
 192 1638 192 1638 219 1638 c 0,43,44
 349 1638 349 1638 394 1602.5 c 128,-1,45
 439 1567 439 1567 439 1465 c 0,46,47
 439 1362 439 1362 449 1345 c 0,48,49
 462 1324 462 1324 512 1364 c 0,50,51
 542 1388 542 1388 644 1484 c 0,52,53
 813 1642 813 1642 999 1556 c 0,54,55
 1151 1486 1151 1486 1271 1277 c 0,56,57
 1407 1042 1407 1042 1441 747 c 0,58,59
 1482 400 1482 400 1358 138 c 0,60,61
 1340 98 1340 98 1317 62 c 0,62,63
 1314 57 1314 57 1308 46 c 0,64,65
 1268 -20 1268 -20 1251 -48 c 128,-1,66
 1234 -76 1234 -76 1206.5 -112.5 c 128,-1,67
 1179 -149 1179 -149 1170.5 -159.5 c 128,-1,68
 1162 -170 1162 -170 1139 -178 c 128,-1,69
 1116 -186 1116 -186 1108 -181 c 128,-1,70
 1100 -176 1100 -176 1075 -158.5 c 128,-1,71
 1050 -141 1050 -141 1035 -123.5 c 128,-1,72
 1020 -106 1020 -106 984 -67 c 0,73,74
 979 -61 979 -61 976 -58 c 0,0,1
EndSplineSet
EndChar

StartChar: O
Encoding: 79 79 50
Width: 1731
GlyphClass: 1
Flags: W
LayerCount: 2
Fore
SplineSet
225 318 m 0,0,1
 138 405 138 405 83.5 511.5 c 128,-1,2
 29 618 29 618 11 726 c 128,-1,3
 -7 834 -7 834 5 945.5 c 128,-1,4
 17 1057 17 1057 56.5 1157 c 128,-1,5
 96 1257 96 1257 163.5 1346 c 128,-1,6
 231 1435 231 1435 317 1499 c 128,-1,7
 403 1563 403 1563 514.5 1600.5 c 128,-1,8
 626 1638 626 1638 747 1638 c 0,9,10
 1097 1638 1097 1638 1281.5 1443.5 c 128,-1,11
 1466 1249 1466 1249 1466 880 c 128,-1,12
 1466 511 1466 511 1281.5 316.5 c 128,-1,13
 1097 122 1097 122 747 122 c 0,14,15
 567 122 567 122 450 166 c 128,-1,16
 333 210 333 210 225 318 c 0,0,1
1017 586 m 0,17,18
 1052 707 1052 707 1052.5 858 c 128,-1,19
 1053 1009 1053 1009 1020 1144 c 0,20,21
 962 1377 962 1377 840 1449 c 0,22,23
 740 1508 740 1508 638 1440 c 0,24,25
 527 1367 527 1367 471 1184 c 0,26,27
 428 1049 428 1049 428 880 c 0,28,29
 428 605 428 605 537 432 c 0,30,31
 617 306 617 306 723 289 c 0,32,33
 836 270 836 270 924 385 c 0,34,35
 982 461 982 461 1017 586 c 0,17,18
EndSplineSet
EndChar

StartChar: P
Encoding: 80 80 51
Width: 1854
GlyphClass: 1
Flags: W
LayerCount: 2
Fore
SplineSet
55 211 m 0,0,1
 90 231 90 231 113 260.5 c 128,-1,2
 136 290 136 290 152.5 336.5 c 128,-1,3
 169 383 169 383 178 459 c 128,-1,4
 187 535 187 535 190.5 634.5 c 128,-1,5
 194 734 194 734 194 882.5 c 128,-1,6
 194 1031 194 1031 190.5 1130.5 c 128,-1,7
 187 1230 187 1230 178 1305.5 c 128,-1,8
 169 1381 169 1381 152.5 1427.5 c 128,-1,9
 136 1474 136 1474 113 1504 c 128,-1,10
 90 1534 90 1534 55 1554 c 0,11,12
 -15 1595 -15 1595 61 1614 c 0,13,14
 155 1636 155 1636 533 1638 c 0,15,16
 740 1639 740 1639 892.5 1622 c 128,-1,17
 1045 1605 1045 1605 1157 1568.5 c 128,-1,18
 1269 1532 1269 1532 1337.5 1472.5 c 128,-1,19
 1406 1413 1406 1413 1438.5 1331 c 128,-1,20
 1471 1249 1471 1249 1471 1138 c 0,21,22
 1471 1001 1471 1001 1416.5 919.5 c 128,-1,23
 1362 838 1362 838 1244.5 800.5 c 128,-1,24
 1127 763 1127 763 928 763 c 0,25,26
 734 763 734 763 683 751 c 0,27,28
 620 737 620 737 604 689 c 0,29,30
 589 644 589 644 602 499 c 0,31,32
 603 481 603 481 607 444 c 0,33,34
 623 273 623 273 616 226 c 0,35,36
 607 165 607 165 557 145 c 0,37,38
 508 126 508 126 344 126 c 0,39,40
 323 126 323 126 276 127 c 0,41,42
 25 128 25 128 3 154 c 0,43,44
 -12 172 -12 172 55 211 c 0,0,1
1060 1116 m 0,45,46
 1072 1180 1072 1180 1038.5 1256 c 128,-1,47
 1005 1332 1005 1332 946 1376 c 0,48,49
 760 1511 760 1511 676.5 1468.5 c 128,-1,50
 593 1426 593 1426 593 1196 c 0,51,52
 593 1137 593 1137 610.5 1086 c 128,-1,53
 628 1035 628 1035 657.5 1000 c 128,-1,54
 687 965 687 965 725 942.5 c 128,-1,55
 763 920 763 920 804 913 c 128,-1,56
 845 906 845 906 886 915 c 128,-1,57
 927 924 927 924 961.5 948 c 128,-1,58
 996 972 996 972 1022.5 1015.5 c 128,-1,59
 1049 1059 1049 1059 1060 1116 c 0,45,46
EndSplineSet
EndChar

StartChar: Q
Encoding: 81 81 52
Width: 1848
GlyphClass: 1
Flags: W
LayerCount: 2
Fore
SplineSet
1393 -63 m 0,0,1
 1389 -31 1389 -31 1385.5 -11.5 c 128,-1,2
 1382 8 1382 8 1374 29.5 c 128,-1,3
 1366 51 1366 51 1359.5 62.5 c 128,-1,4
 1353 74 1353 74 1336 86 c 128,-1,5
 1319 98 1319 98 1304.5 103 c 128,-1,6
 1290 108 1290 108 1259.5 113 c 128,-1,7
 1229 118 1229 118 1201.5 118.5 c 128,-1,8
 1174 119 1174 119 1124 118 c 128,-1,9
 1074 117 1074 117 1029 114.5 c 128,-1,10
 984 112 984 112 911 108 c 0,11,12
 766 99 766 99 633 128.5 c 128,-1,13
 500 158 500 158 396 216 c 128,-1,14
 292 274 292 274 209.5 358 c 128,-1,15
 127 442 127 442 77 540.5 c 128,-1,16
 27 639 27 639 9 751.5 c 128,-1,17
 -9 864 -9 864 8.5 976 c 128,-1,18
 26 1088 26 1088 86 1202.5 c 128,-1,19
 146 1317 146 1317 245 1416 c 0,20,21
 332 1503 332 1503 435 1557 c 128,-1,22
 538 1611 538 1611 640.5 1628 c 128,-1,23
 743 1645 743 1645 847.5 1631.5 c 128,-1,24
 952 1618 952 1618 1045 1576 c 128,-1,25
 1138 1534 1138 1534 1219 1464 c 128,-1,26
 1300 1394 1300 1394 1359 1304 c 128,-1,27
 1418 1214 1418 1214 1451.5 1098.5 c 128,-1,28
 1485 983 1485 983 1485 856 c 0,29,30
 1485 706 1485 706 1511.5 557 c 128,-1,31
 1538 408 1538 408 1575 348 c 0,32,33
 1627 265 1627 265 1620.5 185.5 c 128,-1,34
 1614 106 1614 106 1543 -28 c 0,35,36
 1464 -179 1464 -179 1445 -199 c 0,37,38
 1425 -220 1425 -220 1414 -184 c 0,39,40
 1407 -161 1407 -161 1393 -63 c 0,0,1
985 388 m 0,41,42
 998 427 998 427 953 463.5 c 128,-1,43
 908 500 908 500 832 513 c 0,44,45
 716 532 716 532 703 544 c 0,46,47
 689 558 689 558 743 588 c 0,48,49
 772 605 772 605 867 651 c 0,50,51
 945 690 945 690 995 766 c 128,-1,52
 1045 842 1045 842 1061.5 930 c 128,-1,53
 1078 1018 1078 1018 1066.5 1111.5 c 128,-1,54
 1055 1205 1055 1205 1018 1280 c 128,-1,55
 981 1355 981 1355 915.5 1403.5 c 128,-1,56
 850 1452 850 1452 767 1452 c 0,57,58
 700 1452 700 1452 642.5 1408.5 c 128,-1,59
 585 1365 585 1365 545 1292 c 128,-1,60
 505 1219 505 1219 481.5 1119 c 128,-1,61
 458 1019 458 1019 454 910 c 128,-1,62
 450 801 450 801 468.5 681.5 c 128,-1,63
 487 562 487 562 528 454 c 0,64,65
 548 401 548 401 586 360 c 128,-1,66
 624 319 624 319 669 296 c 128,-1,67
 714 273 714 273 763.5 266 c 128,-1,68
 813 259 813 259 856 269 c 128,-1,69
 899 279 899 279 934 310 c 128,-1,70
 969 341 969 341 985 388 c 0,41,42
EndSplineSet
EndChar

StartChar: R
Encoding: 82 82 53
Width: 1764
GlyphClass: 1
Flags: W
LayerCount: 2
Fore
SplineSet
1325 -12 m 0,0,1
 1250 67 1250 67 1200.5 188.5 c 128,-1,2
 1151 310 1151 310 1151 414 c 0,3,4
 1151 514 1151 514 1108 624 c 128,-1,5
 1065 734 1065 734 1005 789 c 0,6,7
 971 819 971 819 935 835 c 128,-1,8
 899 851 899 851 865.5 851.5 c 128,-1,9
 832 852 832 852 798.5 840.5 c 128,-1,10
 765 829 765 829 737 805.5 c 128,-1,11
 709 782 709 782 684.5 749 c 128,-1,12
 660 716 660 716 643 673.5 c 128,-1,13
 626 631 626 631 614.5 582.5 c 128,-1,14
 603 534 603 534 602.5 478.5 c 128,-1,15
 602 423 602 423 609 365 c 0,16,17
 628 236 628 236 621 199 c 0,18,19
 612 153 612 153 560 138 c 0,20,21
 509 123 509 123 315 124 c 0,22,23
 302 124 302 124 280 124 c 0,24,25
 25 126 25 126 3 152 c 0,26,27
 -12 170 -12 170 54 208 c 0,28,29
 89 229 89 229 112 258.5 c 128,-1,30
 135 288 135 288 152 334.5 c 128,-1,31
 169 381 169 381 177.5 457 c 128,-1,32
 186 533 186 533 190 632 c 128,-1,33
 194 731 194 731 194 880 c 128,-1,34
 194 1029 194 1029 190 1128 c 128,-1,35
 186 1227 186 1227 177.5 1303 c 128,-1,36
 169 1379 169 1379 152 1425.5 c 128,-1,37
 135 1472 135 1472 112 1501.5 c 128,-1,38
 89 1531 89 1531 54 1552 c 0,39,40
 -15 1592 -15 1592 112 1616 c 0,41,42
 281 1648 281 1648 624 1635 c 0,43,44
 1011 1620 1011 1620 1183 1561 c 0,45,46
 1190 1559 1190 1559 1197 1556 c 0,47,48
 1241 1539 1241 1539 1265.5 1529.5 c 128,-1,49
 1290 1520 1290 1520 1314 1507 c 128,-1,50
 1338 1494 1338 1494 1347.5 1486.5 c 128,-1,51
 1357 1479 1357 1479 1361.5 1464.5 c 128,-1,52
 1366 1450 1366 1450 1362.5 1439.5 c 128,-1,53
 1359 1429 1359 1429 1345.5 1408 c 128,-1,54
 1332 1387 1332 1387 1316.5 1369.5 c 128,-1,55
 1301 1352 1301 1352 1272 1320 c 256,56,57
 1243 1288 1243 1288 1227.5 1270 c 128,-1,58
 1212 1252 1212 1252 1198.5 1228 c 128,-1,59
 1185 1204 1185 1204 1181 1190.5 c 128,-1,60
 1177 1177 1177 1177 1181.5 1152 c 128,-1,61
 1186 1127 1186 1127 1195 1110 c 128,-1,62
 1204 1093 1204 1093 1227.5 1059 c 128,-1,63
 1251 1025 1251 1025 1274.5 996.5 c 128,-1,64
 1298 968 1298 968 1341 917 c 0,65,66
 1428 813 1428 813 1471.5 725 c 128,-1,67
 1515 637 1515 637 1532.5 526.5 c 128,-1,68
 1550 416 1550 416 1550 236 c 0,69,70
 1550 -55 1550 -55 1542 -114 c 0,71,72
 1533 -174 1533 -174 1507 -174 c 0,73,74
 1480 -174 1480 -174 1402 -94 c 0,75,76
 1384 -75 1384 -75 1325 -12 c 0,0,1
861 1377 m 0,77,78
 805 1418 805 1418 765.5 1440 c 128,-1,79
 726 1462 726 1462 695 1467.5 c 128,-1,80
 664 1473 664 1473 645 1459.5 c 128,-1,81
 626 1446 626 1446 614 1410 c 128,-1,82
 602 1374 602 1374 597.5 1320.5 c 128,-1,83
 593 1267 593 1267 593 1185 c 0,84,85
 593 1010 593 1010 603 976 c 0,86,87
 614 938 614 938 651 959 c 0,88,89
 683 977 683 977 796 1084 c 0,90,91
 836 1120 836 1120 859.5 1143.5 c 128,-1,92
 883 1167 883 1167 904.5 1191.5 c 128,-1,93
 926 1216 926 1216 935 1230 c 128,-1,94
 944 1244 944 1244 948 1261.5 c 128,-1,95
 952 1279 952 1279 948 1289.5 c 128,-1,96
 944 1300 944 1300 932 1316 c 128,-1,97
 920 1332 920 1332 904 1344.5 c 128,-1,98
 888 1357 888 1357 861 1377 c 0,77,78
EndSplineSet
EndChar

StartChar: S
Encoding: 83 83 54
Width: 2080
GlyphClass: 1
Flags: W
LayerCount: 2
Fore
SplineSet
193 291 m 0,0,1
 57 428 57 428 13 536 c 0,2,3
 -17 608 -17 608 18 614 c 0,4,5
 62 623 62 623 177 518 c 0,6,7
 246 454 246 454 322 407 c 128,-1,8
 398 360 398 360 470.5 332.5 c 128,-1,9
 543 305 543 305 614 294.5 c 128,-1,10
 685 284 685 284 747 291 c 128,-1,11
 809 298 809 298 862.5 322.5 c 128,-1,12
 916 347 916 347 954 387 c 128,-1,13
 992 427 992 427 1013.5 485 c 128,-1,14
 1035 543 1035 543 1035 614 c 0,15,16
 1035 778 1035 778 894 875.5 c 128,-1,17
 753 973 753 973 516 973 c 0,18,19
 400 973 400 973 303.5 995.5 c 128,-1,20
 207 1018 207 1018 143.5 1056 c 128,-1,21
 80 1094 80 1094 45.5 1145.5 c 128,-1,22
 11 1197 11 1197 12.5 1253 c 128,-1,23
 14 1309 14 1309 55 1370.5 c 128,-1,24
 96 1432 96 1432 175 1487 c 0,25,26
 329 1596 329 1596 663 1628 c 0,27,28
 957 1656 957 1656 1201 1612 c 0,29,30
 1421 1573 1421 1573 1455 1496 c 0,31,32
 1473 1453 1473 1453 1428 1405 c 0,33,34
 1306 1276 1306 1276 1265 1263 c 0,35,36
 1230 1252 1230 1252 1214 1304 c 0,37,38
 1211 1315 1211 1315 1208 1330 c 0,39,40
 1199 1372 1199 1372 1144 1401 c 128,-1,41
 1089 1430 1089 1430 1012.5 1440 c 128,-1,42
 936 1450 936 1450 848.5 1445 c 128,-1,43
 761 1440 761 1440 687.5 1422 c 128,-1,44
 614 1404 614 1404 565 1370 c 128,-1,45
 516 1336 516 1336 516 1292 c 0,46,47
 516 1230 516 1230 605.5 1191 c 128,-1,48
 695 1152 695 1152 890 1130 c 0,49,50
 1033 1113 1033 1113 1151.5 1073.5 c 128,-1,51
 1270 1034 1270 1034 1351.5 979 c 128,-1,52
 1433 924 1433 924 1488 856.5 c 128,-1,53
 1543 789 1543 789 1565 717 c 128,-1,54
 1587 645 1587 645 1580 570.5 c 128,-1,55
 1573 496 1573 496 1538 427 c 128,-1,56
 1503 358 1503 358 1436.5 297.5 c 128,-1,57
 1370 237 1370 237 1279.5 192 c 128,-1,58
 1189 147 1189 147 1064.5 121.5 c 128,-1,59
 940 96 940 96 796 96 c 0,60,61
 629 96 629 96 527.5 112.5 c 128,-1,62
 426 129 426 129 350 170 c 128,-1,63
 274 211 274 211 193 291 c 0,0,1
EndSplineSet
EndChar

StartChar: T
Encoding: 84 84 55
Width: 1848
GlyphClass: 1
Flags: W
LayerCount: 2
Fore
SplineSet
738 -99 m 0,0,1
 696 -54 696 -54 670 -18 c 128,-1,2
 644 18 644 18 622 70.5 c 128,-1,3
 600 123 600 123 589 177 c 128,-1,4
 578 231 578 231 570.5 323.5 c 128,-1,5
 563 416 563 416 561 519.5 c 128,-1,6
 559 623 559 623 559 785 c 0,7,8
 559 1256 559 1256 504 1402 c 0,9,10
 460 1521 460 1521 364 1494 c 0,11,12
 285 1473 285 1473 146 1346 c 0,13,14
 123 1325 123 1325 108.5 1312.5 c 128,-1,15
 94 1300 94 1300 78 1288 c 128,-1,16
 62 1276 62 1276 53.5 1270.5 c 128,-1,17
 45 1265 45 1265 35.5 1263.5 c 128,-1,18
 26 1262 26 1262 21.5 1264.5 c 128,-1,19
 17 1267 17 1267 12 1276 c 128,-1,20
 7 1285 7 1285 5.5 1296.5 c 128,-1,21
 4 1308 4 1308 2 1329.5 c 128,-1,22
 0 1351 0 1351 0 1372 c 128,-1,23
 0 1393 0 1393 0 1426 c 0,24,25
 0 1521 0 1521 13 1551 c 0,26,27
 33 1599 33 1599 115 1616 c 0,28,29
 209 1637 209 1637 552 1638 c 0,30,31
 614 1638 614 1638 758 1638 c 0,32,33
 1216 1638 1216 1638 1327 1627 c 0,34,35
 1456 1615 1456 1615 1491 1572 c 0,36,37
 1515 1542 1515 1542 1516 1461 c 0,38,39
 1516 1450 1516 1450 1516 1426 c 0,40,41
 1516 1393 1516 1393 1516 1372 c 128,-1,42
 1516 1351 1516 1351 1514 1329.5 c 128,-1,43
 1512 1308 1512 1308 1510.5 1296.5 c 128,-1,44
 1509 1285 1509 1285 1504 1276 c 128,-1,45
 1499 1267 1499 1267 1494.5 1264.5 c 128,-1,46
 1490 1262 1490 1262 1480.5 1263.5 c 128,-1,47
 1471 1265 1471 1265 1462.5 1270.5 c 128,-1,48
 1454 1276 1454 1276 1438.5 1288 c 128,-1,49
 1423 1300 1423 1300 1408 1312.5 c 128,-1,50
 1393 1325 1393 1325 1370 1346 c 0,51,52
 1210 1492 1210 1492 1132 1499 c 0,53,54
 1052 1507 1052 1507 1012 1386 c 0,55,56
 961 1232 961 1232 945 742 c 0,57,58
 942 674 942 674 940 594 c 0,59,60
 926 47 926 47 913 -71 c 0,61,62
 899 -196 899 -196 865 -201 c 0,63,64
 840 -205 840 -205 777 -140 c 0,65,66
 765 -128 765 -128 738 -99 c 0,0,1
EndSplineSet
EndChar

StartChar: U
Encoding: 85 85 56
Width: 1841
GlyphClass: 1
Flags: W
LayerCount: 2
Fore
SplineSet
308 320 m 0,0,1
 179 462 179 462 100.5 640 c 128,-1,2
 22 818 22 818 4.5 987 c 128,-1,3
 -13 1156 -13 1156 30.5 1308.5 c 128,-1,4
 74 1461 74 1461 177 1555 c 0,5,6
 227 1600 227 1600 281 1620.5 c 128,-1,7
 335 1641 335 1641 380 1638 c 128,-1,8
 425 1635 425 1635 461 1612 c 128,-1,9
 497 1589 497 1589 515.5 1552 c 128,-1,10
 534 1515 534 1515 530.5 1462.5 c 128,-1,11
 527 1410 527 1410 496 1353 c 0,12,13
 431 1232 431 1232 422 1082 c 128,-1,14
 413 932 413 932 460 786 c 128,-1,15
 507 640 507 640 602 529 c 0,16,17
 735 374 735 374 866 403 c 0,18,19
 977 427 977 427 1049 578 c 0,20,21
 1145 779 1145 779 1125 1100 c 0,22,23
 1125 1105 1125 1105 1125 1111 c 0,24,25
 1108 1349 1108 1349 1115 1410 c 0,26,27
 1124 1480 1124 1480 1168 1500 c 0,28,29
 1202 1516 1202 1516 1319 1516 c 0,30,31
 1325 1516 1325 1516 1336 1516 c 0,32,33
 1443 1516 1443 1516 1477 1503 c 0,34,35
 1529 1483 1529 1483 1549 1408 c 0,36,37
 1573 1319 1573 1319 1575 1008 c 0,38,39
 1575 936 1575 936 1575 758 c 0,40,41
 1575 316 1575 316 1564 204 c 0,42,43
 1551 70 1551 70 1506 31 c 0,44,45
 1472 3 1472 3 1383 1 c 0,46,47
 1366 0 1366 0 1327 0 c 0,48,49
 1281 0 1281 0 1251 1 c 128,-1,50
 1221 2 1221 2 1193.5 6.5 c 128,-1,51
 1166 11 1166 11 1151 16.5 c 128,-1,52
 1136 22 1136 22 1124 35 c 128,-1,53
 1112 48 1112 48 1108 62 c 128,-1,54
 1104 76 1104 76 1103.5 101 c 128,-1,55
 1103 126 1103 126 1107 152.5 c 128,-1,56
 1111 179 1111 179 1118 220 c 0,57,58
 1142 352 1142 352 1136 373 c 0,59,60
 1128 399 1128 399 1079 360 c 0,61,62
 1045 334 1045 334 923 220 c 0,63,64
 913 210 913 210 894 192 c 0,65,66
 834 136 834 136 809 112 c 128,-1,67
 784 88 784 88 741.5 61 c 128,-1,68
 699 34 699 34 685.5 26.5 c 128,-1,69
 672 19 672 19 633.5 25.5 c 128,-1,70
 595 32 595 32 580 43.5 c 128,-1,71
 565 55 565 55 517.5 97 c 128,-1,72
 470 139 470 139 440.5 172 c 128,-1,73
 411 205 411 205 342 282 c 0,74,75
 320 306 320 306 308 320 c 0,0,1
EndSplineSet
EndChar

StartChar: V
Encoding: 86 86 57
Width: 1760
GlyphClass: 1
Flags: W
LayerCount: 2
Fore
SplineSet
262 122 m 0,0,1
 189 202 189 202 135 313 c 128,-1,2
 81 424 81 424 50 544 c 128,-1,3
 19 664 19 664 7 794 c 128,-1,4
 -5 924 -5 924 3 1044.5 c 128,-1,5
 11 1165 11 1165 38.5 1274 c 128,-1,6
 66 1383 66 1383 110 1463 c 128,-1,7
 154 1543 154 1543 219 1590.5 c 128,-1,8
 284 1638 284 1638 361 1638 c 0,9,10
 424 1638 424 1638 468.5 1603 c 128,-1,11
 513 1568 513 1568 530.5 1512.5 c 128,-1,12
 548 1457 548 1457 538 1384 c 128,-1,13
 528 1311 528 1311 488 1239 c 0,14,15
 363 1012 363 1012 381.5 763 c 128,-1,16
 400 514 400 514 555 332 c 0,17,18
 677 191 677 191 820 221 c 0,19,20
 943 248 943 248 1037 391 c 0,21,22
 1151 565 1151 565 1161 820 c 0,23,24
 1163 886 1163 886 1158 953 c 0,25,26
 1141 1166 1141 1166 1149 1222 c 0,27,28
 1158 1286 1158 1286 1204 1304 c 0,29,30
 1247 1319 1247 1319 1373 1319 c 0,31,32
 1578 1319 1578 1319 1615 1174 c 0,33,34
 1655 1016 1655 1016 1488 740 c 0,35,36
 1351 514 1351 514 1105 262 c 0,37,38
 1076 232 1076 232 1024 179 c 0,39,40
 943 96 943 96 908.5 59.5 c 128,-1,41
 874 23 874 23 815.5 -29.5 c 128,-1,42
 757 -82 757 -82 738 -100.5 c 128,-1,43
 719 -119 719 -119 674.5 -140.5 c 128,-1,44
 630 -162 630 -162 618 -164 c 128,-1,45
 606 -166 606 -166 567 -158 c 128,-1,46
 528 -150 528 -150 514.5 -137 c 128,-1,47
 501 -124 501 -124 458.5 -88.5 c 128,-1,48
 416 -53 416 -53 393 -26 c 128,-1,49
 370 1 370 1 316 62 c 0,50,51
 281 101 281 101 262 122 c 0,0,1
EndSplineSet
EndChar

StartChar: W
Encoding: 87 87 58
Width: 2708
GlyphClass: 1
Flags: W
LayerCount: 2
Fore
SplineSet
313 130 m 0,0,1
 233 219 233 219 171 320 c 128,-1,2
 109 421 109 421 71.5 520.5 c 128,-1,3
 34 620 34 620 15.5 720.5 c 128,-1,4
 -3 821 -3 821 0 909.5 c 128,-1,5
 3 998 3 998 27.5 1075 c 128,-1,6
 52 1152 52 1152 95.5 1207.5 c 128,-1,7
 139 1263 139 1263 205.5 1295 c 128,-1,8
 272 1327 272 1327 355 1327 c 0,9,10
 410 1327 410 1327 443 1325 c 128,-1,11
 476 1323 476 1323 501 1316.5 c 128,-1,12
 526 1310 526 1310 535.5 1301 c 128,-1,13
 545 1292 545 1292 544.5 1273 c 128,-1,14
 544 1254 544 1254 534.5 1231.5 c 128,-1,15
 525 1209 525 1209 506 1172 c 0,16,17
 405 985 405 985 439 727 c 0,18,19
 466 513 466 513 568 359 c 0,20,21
 660 218 660 218 768 206 c 0,22,23
 857 196 857 196 935 282 c 0,24,25
 1017 372 1017 372 1041 499.5 c 128,-1,26
 1065 627 1065 627 1049 883 c 0,27,28
 1033 1144 1033 1144 1040 1210 c 0,29,30
 1048 1288 1048 1288 1092 1310 c 0,31,32
 1125 1327 1125 1327 1236 1327 c 0,33,34
 1244 1327 1244 1327 1261 1327 c 0,35,36
 1383 1327 1383 1327 1417 1315 c 0,37,38
 1465 1299 1465 1299 1478 1238 c 256,39,40
 1491 1177 1491 1177 1477 953 c 0,41,42
 1476 931 1476 931 1473 883 c 0,43,44
 1448 487 1448 487 1542 305 c 0,45,46
 1615 165 1615 165 1737 203 c 0,47,48
 1820 229 1820 229 1914 339 c 0,49,50
 2071 521 2071 521 2090 770.5 c 128,-1,51
 2109 1020 2109 1020 1983 1247 c 0,52,53
 1925 1352 1925 1352 1918.5 1422.5 c 128,-1,54
 1912 1493 1912 1493 1956 1546 c 0,55,56
 2005 1606 2005 1606 2045.5 1627 c 128,-1,57
 2086 1648 2086 1648 2131.5 1629 c 128,-1,58
 2177 1610 2177 1610 2225 1552.5 c 128,-1,59
 2273 1495 2273 1495 2339 1387 c 0,60,61
 2510 1106 2510 1106 2493 758 c 0,62,63
 2478 472 2478 472 2344 241 c 0,64,65
 2227 39 2227 39 2063 -40 c 0,66,67
 1863 -137 1863 -137 1667 -13 c 0,68,69
 1613 20 1613 20 1561 71 c 0,70,71
 1489 141 1489 141 1459 171 c 128,-1,72
 1429 201 1429 201 1379 237.5 c 128,-1,73
 1329 274 1329 274 1314 284 c 128,-1,74
 1299 294 1299 294 1258 295.5 c 128,-1,75
 1217 297 1217 297 1203 288 c 128,-1,76
 1189 279 1189 279 1144 245.5 c 128,-1,77
 1099 212 1099 212 1072.5 184 c 128,-1,78
 1046 156 1046 156 982 91 c 0,79,80
 975 83 975 83 960 68 c 0,81,82
 888 -6 888 -6 858.5 -38 c 128,-1,83
 829 -70 829 -70 778.5 -107 c 128,-1,84
 728 -144 728 -144 712 -154.5 c 128,-1,85
 696 -165 696 -165 652.5 -162.5 c 128,-1,86
 609 -160 609 -160 593 -148 c 128,-1,87
 577 -136 577 -136 525 -92.5 c 128,-1,88
 473 -49 473 -49 441.5 -13.5 c 128,-1,89
 410 22 410 22 336 105 c 0,90,91
 321 121 321 121 313 130 c 0,0,1
EndSplineSet
EndChar

StartChar: X
Encoding: 88 88 59
Width: 1836
GlyphClass: 1
Flags: W
LayerCount: 2
Fore
SplineSet
296 481 m 2,0,1
 363 549 363 549 393 578.5 c 128,-1,2
 423 608 423 608 464 659 c 128,-1,3
 505 710 505 710 520 726.5 c 128,-1,4
 535 743 535 743 549.5 784.5 c 128,-1,5
 564 826 564 826 564.5 838 c 128,-1,6
 565 850 565 850 552.5 891 c 128,-1,7
 540 932 540 932 525.5 948 c 128,-1,8
 511 964 511 964 472 1012.5 c 128,-1,9
 433 1061 433 1061 405 1089 c 128,-1,10
 377 1117 377 1117 313 1182 c 0,11,12
 88 1411 88 1411 34 1491 c 0,13,14
 -24 1576 -24 1576 20 1606 c 0,15,16
 61 1636 61 1636 244 1638 c 0,17,18
 269 1638 269 1638 301 1638 c 0,19,20
 492 1638 492 1638 563 1603 c 0,21,22
 594 1587 594 1587 583 1570 c 0,23,24
 565 1542 565 1542 610.5 1467.5 c 128,-1,25
 656 1393 656 1393 738 1317 c 0,26,27
 828 1232 828 1232 985 1250 c 0,28,29
 1119 1265 1119 1265 1217 1341 c 0,30,31
 1318 1418 1318 1418 1309 1507 c 0,32,33
 1306 1539 1306 1539 1287 1569.5 c 128,-1,34
 1268 1600 1268 1600 1330 1621 c 0,35,36
 1382 1638 1382 1638 1465 1638 c 0,37,38
 1584 1638 1584 1638 1606 1627 c 0,39,40
 1636 1613 1636 1613 1598 1561 c 0,41,42
 1565 1514 1565 1514 1383 1329 c 2,43,-1
 1382 1328 l 1,44,-1
 1381 1327 l 1,45,-1
 1380 1326 l 1,46,-1
 1379 1325 l 1,47,-1
 1378 1324 l 1,48,-1
 1377 1323 l 1,49,-1
 1376 1322 l 1,50,-1
 1375 1321 l 1,51,-1
 1375 1320 l 1,52,-1
 1373 1318 l 2,53,54
 1314 1258 1314 1258 1287.5 1231.5 c 128,-1,55
 1261 1205 1261 1205 1225.5 1159 c 128,-1,56
 1190 1113 1190 1113 1177 1098.5 c 128,-1,57
 1164 1084 1164 1084 1154 1043.5 c 128,-1,58
 1144 1003 1144 1003 1145.5 991 c 128,-1,59
 1147 979 1147 979 1164 936.5 c 128,-1,60
 1181 894 1181 894 1197 876.5 c 128,-1,61
 1213 859 1213 859 1257.5 806 c 128,-1,62
 1302 753 1302 753 1333.5 721.5 c 128,-1,63
 1365 690 1365 690 1437 617 c 0,64,65
 1682 369 1682 369 1744 283 c 0,66,67
 1811 191 1811 191 1774 157 c 0,68,69
 1739 126 1739 126 1572 123 c 0,70,71
 1538 122 1538 122 1489 122 c 0,72,73
 1297 122 1297 122 1226 157 c 0,74,75
 1196 172 1196 172 1206 189 c 0,76,77
 1224 217 1224 217 1166.5 303.5 c 128,-1,78
 1109 390 1109 390 1012 484 c 0,79,80
 912 579 912 579 731 564 c 0,81,82
 576 552 576 552 451 469 c 0,83,84
 330 389 330 389 319 292 c 0,85,86
 313 239 313 239 344 189 c 0,87,88
 362 159 362 159 301 139 c 0,89,90
 249 122 249 122 165 122 c 0,91,92
 48 122 48 122 26 133 c 0,93,94
 -4 148 -4 148 37 204 c 0,95,96
 75 256 75 256 273 457 c 2,97,-1
 274 458 l 1,98,-1
 275 459 l 1,99,-1
 276 460 l 1,100,-1
 277 461 l 1,101,-1
 278 462 l 1,102,-1
 279 463 l 1,103,-1
 280 464 l 1,104,-1
 281 465 l 1,105,-1
 282 466 l 1,106,-1
 283 467 l 1,107,-1
 284 468 l 1,108,-1
 285 469 l 1,109,-1
 286 470 l 1,110,-1
 287 471 l 1,111,-1
 288 472 l 1,112,-1
 289 473 l 1,113,-1
 290 474 l 1,114,-1
 291 475 l 1,115,-1
 291 476 l 1,116,-1
 292 477 l 1,117,-1
 293 478 l 1,118,-1
 294 479 l 1,119,-1
 296 481 l 2,0,1
EndSplineSet
EndChar

StartChar: Y
Encoding: 89 89 60
Width: 1921
GlyphClass: 1
Flags: W
LayerCount: 2
Fore
SplineSet
188 -196 m 0,0,1
 -4 -92 -4 -92 0 -53 c 0,2,3
 4 -11 4 -11 219 -65 c 0,4,5
 257 -75 257 -75 300 -87 c 0,6,7
 504 -147 504 -147 665.5 -142 c 128,-1,8
 827 -137 827 -137 940 -76 c 128,-1,9
 1053 -15 1053 -15 1113 104.5 c 128,-1,10
 1173 224 1173 224 1173 393 c 0,11,12
 1173 450 1173 450 1170.5 489.5 c 128,-1,13
 1168 529 1168 529 1160.5 558.5 c 128,-1,14
 1153 588 1153 588 1142.5 602 c 128,-1,15
 1132 616 1132 616 1113 618 c 128,-1,16
 1094 620 1094 620 1071 609.5 c 128,-1,17
 1048 599 1048 599 1013.5 573.5 c 128,-1,18
 979 548 979 548 939.5 513 c 128,-1,19
 900 478 900 478 846 426 c 0,20,21
 669 255 669 255 468 302 c 0,22,23
 306 339 306 339 180 501 c 0,24,25
 48 672 48 672 17 896 c 0,26,27
 -21 1167 -21 1167 110 1386 c 0,28,29
 135 1429 135 1429 166 1468 c 0,30,31
 276 1604 276 1604 397 1632 c 0,32,33
 490 1654 490 1654 539 1601 c 0,34,35
 593 1542 593 1542 551 1430 c 0,36,37
 532 1379 532 1379 493 1324 c 0,38,39
 369 1147 369 1147 384 1012 c 128,-1,40
 399 877 399 877 560 726 c 0,41,42
 620 669 620 669 695 656 c 128,-1,43
 770 643 770 643 840 669.5 c 128,-1,44
 910 696 910 696 975 754.5 c 128,-1,45
 1040 813 1040 813 1085 890.5 c 128,-1,46
 1130 968 1130 968 1150.5 1067 c 128,-1,47
 1171 1166 1171 1166 1157 1265 c 0,48,49
 1150 1313 1150 1313 1146.5 1342 c 128,-1,50
 1143 1371 1143 1371 1143.5 1399.5 c 128,-1,51
 1144 1428 1144 1428 1147.5 1443 c 128,-1,52
 1151 1458 1151 1458 1163.5 1472.5 c 128,-1,53
 1176 1487 1176 1487 1190.5 1493 c 128,-1,54
 1205 1499 1205 1499 1233 1503.5 c 128,-1,55
 1261 1508 1261 1508 1290 1509 c 128,-1,56
 1319 1510 1319 1510 1366 1510 c 0,57,58
 1439 1510 1439 1510 1493.5 1441.5 c 128,-1,59
 1548 1373 1548 1373 1576.5 1248 c 128,-1,60
 1605 1123 1605 1123 1611.5 958 c 128,-1,61
 1618 793 1618 793 1596.5 589.5 c 128,-1,62
 1575 386 1575 386 1528 171 c 0,63,64
 1506 71 1506 71 1430 -16.5 c 128,-1,65
 1354 -104 1354 -104 1246 -165 c 128,-1,66
 1138 -226 1138 -226 1002 -263.5 c 128,-1,67
 866 -301 866 -301 727 -307.5 c 128,-1,68
 588 -314 588 -314 446 -286.5 c 128,-1,69
 304 -259 304 -259 188 -196 c 0,0,1
EndSplineSet
EndChar

StartChar: Z
Encoding: 90 90 61
Width: 2072
GlyphClass: 1
Flags: W
LayerCount: 2
Fore
SplineSet
0 180 m 128,-1,1
 0 204 0 204 181 403 c 128,-1,2
 362 602 362 602 617 858 c 0,3,4
 702 944 702 944 762.5 1030.5 c 128,-1,5
 823 1117 823 1117 853.5 1190.5 c 128,-1,6
 884 1264 884 1264 891.5 1330.5 c 128,-1,7
 899 1397 899 1397 884 1447.5 c 128,-1,8
 869 1498 869 1498 834 1534 c 128,-1,9
 799 1570 799 1570 749 1587.5 c 128,-1,10
 699 1605 699 1605 632 1599.5 c 128,-1,11
 565 1594 565 1594 489.5 1567.5 c 128,-1,12
 414 1541 414 1541 325 1484.5 c 128,-1,13
 236 1428 236 1428 146 1346 c 0,14,15
 123 1325 123 1325 108.5 1312 c 128,-1,16
 94 1299 94 1299 78 1287.5 c 128,-1,17
 62 1276 62 1276 53.5 1270 c 128,-1,18
 45 1264 45 1264 35.5 1262.5 c 128,-1,19
 26 1261 26 1261 21.5 1263.5 c 128,-1,20
 17 1266 17 1266 12 1275.5 c 128,-1,21
 7 1285 7 1285 5.5 1296.5 c 128,-1,22
 4 1308 4 1308 2 1329 c 128,-1,23
 0 1350 0 1350 0 1371 c 128,-1,24
 0 1392 0 1392 0 1426 c 0,25,26
 0 1516 0 1516 13 1546 c 0,27,28
 35 1595 35 1595 123 1613 c 0,29,30
 230 1635 230 1635 616 1637 c 0,31,32
 703 1638 703 1638 918 1638 c 0,33,34
 971 1638 971 1638 1071 1638 c 0,35,36
 1484 1639 1484 1639 1599 1627 c 0,37,38
 1749 1611 1749 1611 1767 1558 c 0,39,40
 1786 1504 1786 1504 1678 1376 c 0,41,42
 1604 1288 1604 1288 1337 1020 c 2,43,-1
 1336 1019 l 1,44,-1
 1335 1018 l 1,45,-1
 1334 1017 l 1,46,-1
 1333 1016 l 1,47,-1
 1332 1015 l 1,48,-1
 1331 1014 l 1,49,-1
 1330 1013 l 1,50,-1
 1329 1012 l 1,51,-1
 1328 1011 l 2,52,53
 1257 940 1257 940 1219 901 c 0,54,55
 1133 815 1133 815 1072.5 729 c 128,-1,56
 1012 643 1012 643 982 569 c 128,-1,57
 952 495 952 495 944 429 c 128,-1,58
 936 363 936 363 951.5 312 c 128,-1,59
 967 261 967 261 1001.5 225 c 128,-1,60
 1036 189 1036 189 1086.5 172 c 128,-1,61
 1137 155 1137 155 1203.5 160 c 128,-1,62
 1270 165 1270 165 1345.5 191.5 c 128,-1,63
 1421 218 1421 218 1510 274.5 c 128,-1,64
 1599 331 1599 331 1689 413 c 0,65,66
 1712 434 1712 434 1727 447 c 128,-1,67
 1742 460 1742 460 1757.5 472 c 128,-1,68
 1773 484 1773 484 1782 489.5 c 128,-1,69
 1791 495 1791 495 1800.5 496.5 c 128,-1,70
 1810 498 1810 498 1814.5 495.5 c 128,-1,71
 1819 493 1819 493 1823.5 483.5 c 128,-1,72
 1828 474 1828 474 1830 462.5 c 128,-1,73
 1832 451 1832 451 1833.5 430 c 128,-1,74
 1835 409 1835 409 1835 388 c 128,-1,75
 1835 367 1835 367 1835 333 c 0,76,77
 1835 243 1835 243 1822 213 c 0,78,79
 1800 165 1800 165 1712 146 c 0,80,81
 1605 124 1605 124 1220 122 c 0,82,83
 1132 122 1132 122 918 122 c 0,84,85
 539 122 539 122 269.5 139 c 128,-1,0
 0 156 0 156 0 180 c 128,-1,1
EndSplineSet
EndChar

StartChar: backslash
Encoding: 92 92 63
Width: 1364
GlyphClass: 1
Flags: W
LayerCount: 2
Fore
SplineSet
364 546 m 0,0,1
 82 1364 82 1364 23 1510 c 0,2,3
 9 1543 9 1543 3.5 1564 c 128,-1,4
 -2 1585 -2 1585 1 1601 c 128,-1,5
 4 1617 4 1617 14.5 1625 c 128,-1,6
 25 1633 25 1633 48.5 1636 c 128,-1,7
 72 1639 72 1639 103.5 1637.5 c 128,-1,8
 135 1636 135 1636 185 1630 c 0,9,10
 229 1625 229 1625 314 1512.5 c 128,-1,11
 399 1400 399 1400 497 1228.5 c 128,-1,12
 595 1057 595 1057 699.5 842.5 c 128,-1,13
 804 628 804 628 889.5 423.5 c 128,-1,14
 975 219 975 219 1033.5 35.5 c 128,-1,15
 1092 -148 1092 -148 1101 -252 c 0,16,17
 1115 -432 1115 -432 1029 -428 c 0,18,19
 945 -424 945 -424 802 -255 c 0,20,21
 625 -45 625 -45 476 271 c 0,22,23
 412 408 412 408 364 546 c 0,0,1
EndSplineSet
EndChar

StartChar: underscore
Encoding: 95 95 66
Width: 1570
GlyphClass: 1
Flags: W
LayerCount: 2
Fore
SplineSet
11 79.5 m 128,-1,1
 11 115 11 115 210.5 137.5 c 128,-1,2
 410 160 410 160 729 160 c 128,-1,3
 1048 160 1048 160 1247.5 137.5 c 128,-1,4
 1447 115 1447 115 1447 79.5 c 128,-1,5
 1447 44 1447 44 1247.5 22 c 128,-1,6
 1048 0 1048 0 729 0 c 128,-1,7
 410 0 410 0 210.5 22 c 128,-1,0
 11 44 11 44 11 79.5 c 128,-1,1
EndSplineSet
EndChar

StartChar: a
Encoding: 97 97 68
Width: 1601
GlyphClass: 1
Flags: W
LayerCount: 2
Fore
SplineSet
64 172 m 0,0,1
 22 222 22 222 9 276 c 128,-1,2
 -4 330 -4 330 12.5 380 c 128,-1,3
 29 430 29 430 67 477 c 128,-1,4
 105 524 105 524 167 562.5 c 128,-1,5
 229 601 229 601 305 630 c 128,-1,6
 381 659 381 659 476 675 c 128,-1,7
 571 691 571 691 672 691 c 0,8,9
 783 691 783 691 821.5 722 c 128,-1,10
 860 753 860 753 844 831 c 0,11,12
 835 875 835 875 812.5 900 c 128,-1,13
 790 925 790 925 742.5 940.5 c 128,-1,14
 695 956 695 956 617 957.5 c 128,-1,15
 539 959 539 959 419 956 c 0,16,17
 152 947 152 947 115 957 c 0,18,19
 84 966 84 966 124 995 c 0,20,21
 148 1012 148 1012 222 1053 c 0,22,23
 360 1130 360 1130 500.5 1158.5 c 128,-1,24
 641 1187 641 1187 763 1169 c 128,-1,25
 885 1151 885 1151 992 1090 c 128,-1,26
 1099 1029 1099 1029 1175.5 933.5 c 128,-1,27
 1252 838 1252 838 1295.5 704.5 c 128,-1,28
 1339 571 1339 571 1339 416 c 0,29,30
 1339 345 1339 345 1295.5 280.5 c 128,-1,31
 1252 216 1252 216 1179 167 c 128,-1,32
 1106 118 1106 118 1008.5 80.5 c 128,-1,33
 911 43 911 43 805.5 22.5 c 128,-1,34
 700 2 700 2 589 0 c 128,-1,35
 478 -2 478 -2 380 14 c 128,-1,36
 282 30 282 30 198 70.5 c 128,-1,37
 114 111 114 111 64 172 c 0,0,1
861 372 m 0,38,39
 861 459 861 459 816.5 495.5 c 128,-1,40
 772 532 772 532 666 532 c 0,41,42
 604 532 604 532 552.5 519.5 c 128,-1,43
 501 507 501 507 466.5 484.5 c 128,-1,44
 432 462 432 462 413 432.5 c 128,-1,45
 394 403 394 403 396 366.5 c 128,-1,46
 398 330 398 330 422 292 c 0,47,48
 445 255 445 255 487.5 233 c 128,-1,49
 530 211 530 211 578 206 c 128,-1,50
 626 201 626 201 677 210 c 128,-1,51
 728 219 728 219 768.5 240 c 128,-1,52
 809 261 809 261 835 296 c 128,-1,53
 861 331 861 331 861 372 c 0,38,39
EndSplineSet
EndChar

StartChar: b
Encoding: 98 98 69
Width: 1592
GlyphClass: 1
Flags: W
LayerCount: 2
Fore
SplineSet
524 -163 m 0,0,1
 444 -78 444 -78 339 -18 c 128,-1,2
 234 42 234 42 166 42 c 0,3,4
 93 42 93 42 66 67 c 0,5,6
 24 104 24 104 11 253 c 0,7,8
 0 386 0 386 0 840 c 0,9,10
 0 1327 0 1327 11 1444 c 0,11,12
 23 1578 23 1578 64 1613 c 0,13,14
 92 1637 92 1637 168 1638 c 0,15,16
 178 1638 178 1638 199 1638 c 0,17,18
 232 1638 232 1638 251.5 1637.5 c 128,-1,19
 271 1637 271 1637 293 1632.5 c 128,-1,20
 315 1628 315 1628 326 1624 c 128,-1,21
 337 1620 337 1620 349.5 1606 c 128,-1,22
 362 1592 362 1592 367 1579.5 c 128,-1,23
 372 1567 372 1567 377 1539.5 c 128,-1,24
 382 1512 382 1512 382 1487 c 128,-1,25
 382 1462 382 1462 381.5 1416 c 128,-1,26
 381 1370 381 1370 378 1328.5 c 128,-1,27
 375 1287 375 1287 371 1219 c 0,28,29
 354 963 354 963 360 911 c 0,30,31
 366 866 366 866 388 866 c 0,32,33
 413 867 413 867 494 941 c 0,34,35
 508 954 508 954 539 983 c 0,36,37
 705 1138 705 1138 867 1073 c 0,38,39
 993 1024 993 1024 1078 860 c 0,40,41
 1174 674 1174 674 1171 442 c 0,42,43
 1168 166 1168 166 1020 -32 c 0,44,45
 1000 -59 1000 -59 977 -84 c 0,46,47
 927 -138 927 -138 906 -162 c 128,-1,48
 885 -186 885 -186 848.5 -220 c 128,-1,49
 812 -254 812 -254 800.5 -266.5 c 128,-1,50
 789 -279 789 -279 761 -293 c 128,-1,51
 733 -307 733 -307 725 -308.5 c 128,-1,52
 717 -310 717 -310 691.5 -305 c 128,-1,53
 666 -300 666 -300 657 -291.5 c 128,-1,54
 648 -283 648 -283 620 -260 c 128,-1,55
 592 -237 592 -237 576.5 -219.5 c 128,-1,56
 561 -202 561 -202 524 -163 c 0,0,1
918 387 m 0,57,58
 918 459 918 459 899.5 524 c 128,-1,59
 881 589 881 589 850 636.5 c 128,-1,60
 819 684 819 684 777 717 c 128,-1,61
 735 750 735 750 690 761 c 128,-1,62
 645 772 645 772 596.5 759.5 c 128,-1,63
 548 747 548 747 506 709 c 0,64,65
 369 585 369 585 365 418.5 c 128,-1,66
 361 252 361 252 492 108 c 0,67,68
 531 64 531 64 579 47 c 128,-1,69
 627 30 627 30 673.5 38 c 128,-1,70
 720 46 720 46 764.5 75 c 128,-1,71
 809 104 809 104 843 149 c 128,-1,72
 877 194 877 194 897.5 256.5 c 128,-1,73
 918 319 918 319 918 387 c 0,57,58
EndSplineSet
EndChar

StartChar: c
Encoding: 99 99 70
Width: 1611
GlyphClass: 1
Flags: W
LayerCount: 2
Fore
SplineSet
195 196 m 0,0,1
 114 277 114 277 56.5 383.5 c 128,-1,2
 -1 490 -1 490 -1 559 c 0,3,4
 -1 634 -1 634 34.5 709 c 128,-1,5
 70 784 70 784 130 847 c 128,-1,6
 190 910 190 910 270.5 964 c 128,-1,7
 351 1018 351 1018 439.5 1055.5 c 128,-1,8
 528 1093 528 1093 622.5 1113.5 c 128,-1,9
 717 1134 717 1134 803 1133 c 128,-1,10
 889 1132 889 1132 966.5 1105 c 128,-1,11
 1044 1078 1044 1078 1097 1025 c 256,12,13
 1150 972 1150 972 1196.5 974 c 128,-1,14
 1243 976 1243 976 1313 1035 c 0,15,16
 1341 1058 1341 1058 1359 1070 c 128,-1,17
 1377 1082 1377 1082 1391.5 1085 c 128,-1,18
 1406 1088 1406 1088 1414 1081 c 128,-1,19
 1422 1074 1422 1074 1427 1053.5 c 128,-1,20
 1432 1033 1432 1033 1434 1003 c 128,-1,21
 1436 973 1436 973 1436 925 c 0,22,23
 1436 804 1436 804 1424 777 c 0,24,25
 1410 745 1410 745 1359 761 c 0,26,27
 1322 773 1322 773 1200 836 c 0,28,29
 985 947 985 947 821 951.5 c 128,-1,30
 657 956 657 956 567.5 854 c 128,-1,31
 478 752 478 752 478 559 c 0,32,33
 478 468 478 468 506 393.5 c 128,-1,34
 534 319 534 319 582.5 268 c 128,-1,35
 631 217 631 217 700 187.5 c 128,-1,36
 769 158 769 158 849 154 c 128,-1,37
 929 150 929 150 1022 173 c 128,-1,38
 1115 196 1115 196 1208 246 c 0,39,40
 1275 281 1275 281 1334 294.5 c 128,-1,41
 1393 308 1393 308 1410 292 c 0,42,43
 1448 253 1448 253 1323 182.5 c 128,-1,44
 1198 112 1198 112 1005.5 56 c 128,-1,45
 813 0 813 0 678 0 c 0,46,47
 529 0 529 0 413 47 c 128,-1,48
 297 94 297 94 195 196 c 0,0,1
EndSplineSet
EndChar

StartChar: d
Encoding: 100 100 71
Width: 1600
GlyphClass: 1
Flags: W
LayerCount: 2
Fore
SplineSet
166 122 m 0,0,1
 78 211 78 211 36 319.5 c 128,-1,2
 -6 428 -6 428 0 532.5 c 128,-1,3
 6 637 6 637 52.5 737.5 c 128,-1,4
 99 838 99 838 177.5 913 c 128,-1,5
 256 988 256 988 370 1033.5 c 128,-1,6
 484 1079 484 1079 614 1079 c 0,7,8
 664 1079 664 1079 691 1079 c 128,-1,9
 718 1079 718 1079 751.5 1082.5 c 128,-1,10
 785 1086 785 1086 800 1087.5 c 128,-1,11
 815 1089 815 1089 834.5 1099 c 128,-1,12
 854 1109 854 1109 860 1116 c 128,-1,13
 866 1123 866 1123 874 1142.5 c 128,-1,14
 882 1162 882 1162 882 1177 c 128,-1,15
 882 1192 882 1192 881.5 1225 c 128,-1,16
 881 1258 881 1258 878 1284 c 128,-1,17
 875 1310 875 1310 869 1359 c 0,18,19
 863 1411 863 1411 860 1444.5 c 128,-1,20
 857 1478 857 1478 857.5 1509.5 c 128,-1,21
 858 1541 858 1541 861 1559 c 128,-1,22
 864 1577 864 1577 874 1593.5 c 128,-1,23
 884 1610 884 1610 896.5 1617 c 128,-1,24
 909 1624 909 1624 931.5 1629.5 c 128,-1,25
 954 1635 954 1635 978 1636.5 c 128,-1,26
 1002 1638 1002 1638 1040 1638 c 0,27,28
 1129 1638 1129 1638 1158 1625 c 0,29,30
 1205 1603 1205 1603 1222 1516 c 0,31,32
 1242 1413 1242 1413 1243 1035 c 0,33,34
 1244 965 1244 965 1244 800 c 0,35,36
 1244 639 1244 639 1219.5 498 c 128,-1,37
 1195 357 1195 357 1151 248.5 c 128,-1,38
 1107 140 1107 140 1044.5 58.5 c 128,-1,39
 982 -23 982 -23 907 -70 c 128,-1,40
 832 -117 832 -117 743.5 -131 c 128,-1,41
 655 -145 655 -145 561.5 -123 c 128,-1,42
 468 -101 468 -101 366.5 -39 c 128,-1,43
 265 23 265 23 166 122 c 0,0,1
845 521 m 0,44,45
 845 737 845 737 753 852 c 0,46,47
 686 935 686 935 605 924 c 0,48,49
 520 913 520 913 468 804 c 0,50,51
 431 727 431 727 420 613 c 0,52,53
 393 333 393 333 449.5 223.5 c 128,-1,54
 506 114 506 114 665 136 c 0,55,56
 706 142 706 142 732.5 150.5 c 128,-1,57
 759 159 759 159 780.5 177 c 128,-1,58
 802 195 802 195 813.5 219.5 c 128,-1,59
 825 244 825 244 832.5 288 c 128,-1,60
 840 332 840 332 842.5 385 c 128,-1,61
 845 438 845 438 845 521 c 0,44,45
EndSplineSet
EndChar

StartChar: e
Encoding: 101 101 72
Width: 1603
GlyphClass: 1
Flags: W
LayerCount: 2
Fore
SplineSet
158 175 m 0,0,1
 71 262 71 262 34.5 370 c 128,-1,2
 -2 478 -2 478 10 582.5 c 128,-1,3
 22 687 22 687 76.5 787.5 c 128,-1,4
 131 888 131 888 216.5 964 c 128,-1,5
 302 1040 302 1040 422 1086 c 128,-1,6
 542 1132 542 1132 676 1132 c 0,7,8
 825 1132 825 1132 941 1085 c 128,-1,9
 1057 1038 1057 1038 1159 936 c 0,10,11
 1242 854 1242 854 1290 790 c 128,-1,12
 1338 726 1338 726 1353 676 c 128,-1,13
 1368 626 1368 626 1349 592 c 128,-1,14
 1330 558 1330 558 1274 536 c 128,-1,15
 1218 514 1218 514 1129 504 c 128,-1,16
 1040 494 1040 494 910 494 c 0,17,18
 850 494 850 494 805 493.5 c 128,-1,19
 760 493 760 493 718.5 491 c 128,-1,20
 677 489 677 489 647.5 486.5 c 128,-1,21
 618 484 618 484 592 479.5 c 128,-1,22
 566 475 566 475 549.5 469 c 128,-1,23
 533 463 533 463 520 455 c 128,-1,24
 507 447 507 447 500 437.5 c 128,-1,25
 493 428 493 428 490 415 c 128,-1,26
 487 402 487 402 487.5 387.5 c 128,-1,27
 488 373 488 373 492 354 c 0,28,29
 501 305 501 305 545.5 266.5 c 128,-1,30
 590 228 590 228 657.5 209 c 128,-1,31
 725 190 725 190 803 186.5 c 128,-1,32
 881 183 881 183 964.5 201 c 128,-1,33
 1048 219 1048 219 1118 256 c 0,34,35
 1188 294 1188 294 1250 309 c 128,-1,36
 1312 324 1312 324 1329 307 c 0,37,38
 1340 296 1340 296 1316.5 270 c 128,-1,39
 1293 244 1293 244 1242.5 209.5 c 128,-1,40
 1192 175 1192 175 1127 141 c 0,41,42
 959 54 959 54 770 28 c 128,-1,43
 581 2 581 2 417.5 40.5 c 128,-1,44
 254 79 254 79 158 175 c 0,0,1
940 793 m 0,45,46
 928 859 928 859 869 896 c 128,-1,47
 810 933 810 933 716.5 933 c 128,-1,48
 623 933 623 933 564 896 c 128,-1,49
 505 859 505 859 492 793 c 0,50,51
 484 761 484 761 488.5 737 c 128,-1,52
 493 713 493 713 505.5 697 c 128,-1,53
 518 681 518 681 546.5 671.5 c 128,-1,54
 575 662 575 662 615.5 658 c 128,-1,55
 656 654 656 654 716.5 654 c 128,-1,56
 777 654 777 654 817 658 c 128,-1,57
 857 662 857 662 886 671.5 c 128,-1,58
 915 681 915 681 927 697 c 128,-1,59
 939 713 939 713 944 737 c 128,-1,60
 949 761 949 761 940 793 c 0,45,46
EndSplineSet
EndChar

StartChar: f
Encoding: 102 102 73
Width: 1128
GlyphClass: 1
Flags: W
LayerCount: 2
Fore
SplineSet
144 -147 m 0,0,1
 159 136 159 136 140 277 c 128,-1,2
 121 418 121 418 64 458 c 0,3,4
 21 488 21 488 7.5 507.5 c 128,-1,5
 -6 527 -6 527 5.5 542 c 128,-1,6
 17 557 17 557 57 574 c 0,7,8
 98 590 98 590 127.5 689.5 c 128,-1,9
 157 789 157 789 157 912 c 0,10,11
 157 989 157 989 182 1075 c 128,-1,12
 207 1161 207 1161 249 1240.5 c 128,-1,13
 291 1320 291 1320 348.5 1393 c 128,-1,14
 406 1466 406 1466 468.5 1520 c 128,-1,15
 531 1574 531 1574 599 1606 c 128,-1,16
 667 1638 667 1638 727 1638 c 0,17,18
 790 1638 790 1638 860 1594 c 128,-1,19
 930 1550 930 1550 985.5 1483.5 c 128,-1,20
 1041 1417 1041 1417 1077.5 1332.5 c 128,-1,21
 1114 1248 1114 1248 1114 1173 c 0,22,23
 1114 1125 1114 1125 1099.5 1088.5 c 128,-1,24
 1085 1052 1085 1052 1060.5 1032 c 128,-1,25
 1036 1012 1036 1012 1005 1003.5 c 128,-1,26
 974 995 974 995 939.5 1004 c 128,-1,27
 905 1013 905 1013 871.5 1032.5 c 128,-1,28
 838 1052 838 1052 807 1089 c 128,-1,29
 776 1126 776 1126 754 1174 c 0,30,31
 661 1380 661 1380 586 1386 c 0,32,33
 522 1391 522 1391 493 1240 c 0,34,35
 476 1147 476 1147 476 1006 c 0,36,37
 476 944 476 944 476.5 902.5 c 128,-1,38
 477 861 477 861 479 818.5 c 128,-1,39
 481 776 481 776 483.5 751 c 128,-1,40
 486 726 486 726 492.5 700 c 128,-1,41
 499 674 499 674 505.5 661 c 128,-1,42
 512 648 512 648 524.5 634.5 c 128,-1,43
 537 621 537 621 549.5 616 c 128,-1,44
 562 611 562 611 583 606.5 c 128,-1,45
 604 602 604 602 624 601.5 c 128,-1,46
 644 601 644 601 675 601 c 0,47,48
 758 601 758 601 816.5 577.5 c 128,-1,49
 875 554 875 554 875 521 c 128,-1,50
 875 488 875 488 814.5 464.5 c 128,-1,51
 754 441 754 441 669 441 c 0,52,53
 570 441 570 441 540 428 c 0,54,55
 495 407 495 407 484 330 c 0,56,57
 472 251 472 251 486 -47 c 0,58,59
 487 -73 487 -73 489 -118 c 0,60,61
 505 -457 505 -457 497 -542 c 0,62,63
 488 -634 488 -634 447 -659 c 0,64,65
 417 -676 417 -676 326 -676 c 0,66,67
 322 -676 322 -676 316 -676 c 0,68,69
 219 -676 219 -676 189 -661 c 0,70,71
 146 -638 146 -638 136 -553 c 0,72,73
 127 -473 127 -473 143 -157 c 0,74,75
 144 -152 144 -152 144 -147 c 0,0,1
EndSplineSet
EndChar

StartChar: g
Encoding: 103 103 74
Width: 1601
GlyphClass: 1
Flags: W
LayerCount: 2
Fore
SplineSet
320 -314 m 0,0,1
 157 -219 157 -219 99 -110 c 0,2,3
 49 -17 49 -17 103 36 c 0,4,5
 146 80 146 80 247 80 c 0,6,7
 374 80 374 80 437 42 c 128,-1,8
 500 4 500 4 523 -86 c 0,9,10
 539 -147 539 -147 576.5 -185.5 c 128,-1,11
 614 -224 614 -224 660 -235.5 c 128,-1,12
 706 -247 706 -247 755 -237 c 128,-1,13
 804 -227 804 -227 844.5 -197.5 c 128,-1,14
 885 -168 885 -168 911 -116.5 c 128,-1,15
 937 -65 937 -65 937 -2 c 0,16,17
 937 43 937 43 933 72.5 c 128,-1,18
 929 102 929 102 915 128 c 128,-1,19
 901 154 901 154 881 170 c 128,-1,20
 861 186 861 186 823.5 201 c 128,-1,21
 786 216 786 216 740 226 c 128,-1,22
 694 236 694 236 623 248 c 0,23,24
 268 305 268 305 108 490 c 0,25,26
 -18 634 -18 634 12 813 c 0,27,28
 40 987 40 987 204 1125 c 0,29,30
 412 1300 412 1300 748 1344 c 0,31,32
 845 1356 845 1356 950 1356 c 0,33,34
 1369 1356 1369 1356 1411 1310 c 0,35,36
 1426 1294 1426 1294 1402 1270 c 0,37,38
 1356 1224 1356 1224 1355.5 1151.5 c 128,-1,39
 1355 1079 1355 1079 1400 959 c 0,40,41
 1451 823 1451 823 1440 736 c 128,-1,42
 1429 649 1429 649 1345 520 c 0,43,44
 1310 466 1310 466 1290.5 434 c 128,-1,45
 1271 402 1271 402 1258.5 369.5 c 128,-1,46
 1246 337 1246 337 1245.5 317 c 128,-1,47
 1245 297 1245 297 1255 271 c 128,-1,48
 1265 245 1265 245 1282 223 c 128,-1,49
 1299 201 1299 201 1330 166 c 0,50,51
 1460 23 1460 23 1387 -126 c 0,52,53
 1327 -247 1327 -247 1154 -330 c 0,54,55
 954 -426 954 -426 718 -420 c 0,56,57
 494 -415 494 -415 320 -314 c 0,0,1
1013 662 m 0,58,59
 1091 886 1091 886 1006 1021 c 0,60,61
 959 1096 959 1096 895 1138 c 128,-1,62
 831 1180 831 1180 767 1186.5 c 128,-1,63
 703 1193 703 1193 639.5 1169.5 c 128,-1,64
 576 1146 576 1146 527.5 1097.5 c 128,-1,65
 479 1049 479 1049 449 972.5 c 128,-1,66
 419 896 419 896 419 804 c 0,67,68
 419 724 419 724 438.5 655 c 128,-1,69
 458 586 458 586 491.5 538 c 128,-1,70
 525 490 525 490 569.5 458.5 c 128,-1,71
 614 427 614 427 662.5 415 c 128,-1,72
 711 403 711 403 762.5 412.5 c 128,-1,73
 814 422 814 422 860 450.5 c 128,-1,74
 906 479 906 479 946.5 533.5 c 128,-1,75
 987 588 987 588 1013 662 c 0,58,59
EndSplineSet
EndChar

StartChar: h
Encoding: 104 104 75
Width: 1593
GlyphClass: 1
Flags: W
LayerCount: 2
Fore
SplineSet
842 -242 m 0,0,1
 780 -168 780 -168 776.5 -119.5 c 128,-1,2
 773 -71 773 -71 825 -18 c 0,3,4
 876 33 876 33 898.5 121 c 128,-1,5
 921 209 921 209 913 302 c 128,-1,6
 905 395 905 395 868 484.5 c 128,-1,7
 831 574 831 574 771 629 c 0,8,9
 737 659 737 659 701 675 c 128,-1,10
 665 691 665 691 631.5 691.5 c 128,-1,11
 598 692 598 692 565 681 c 128,-1,12
 532 670 532 670 504 646 c 128,-1,13
 476 622 476 622 451 589 c 128,-1,14
 426 556 426 556 409 513.5 c 128,-1,15
 392 471 392 471 380.5 422.5 c 128,-1,16
 369 374 369 374 368.5 318.5 c 128,-1,17
 368 263 368 263 376 205 c 0,18,19
 384 146 384 146 387 111 c 128,-1,20
 390 76 390 76 386 46 c 128,-1,21
 382 16 382 16 372 2 c 128,-1,22
 362 -12 362 -12 338 -22.5 c 128,-1,23
 314 -33 314 -33 284.5 -35.5 c 128,-1,24
 255 -38 255 -38 206 -38 c 0,25,26
 116 -38 116 -38 87 -25 c 0,27,28
 39 -3 39 -3 22 84 c 0,29,30
 2 186 2 186 0 560 c 0,31,32
 0 631 0 631 0 800 c 0,33,34
 0 1313 0 1313 11 1435 c 0,35,36
 23 1574 23 1574 64 1611 c 0,37,38
 92 1636 92 1636 165 1638 c 0,39,40
 176 1638 176 1638 199 1638 c 0,41,42
 299 1638 299 1638 330 1621 c 0,43,44
 373 1598 373 1598 380 1511 c 0,45,46
 387 1438 387 1438 371 1179 c 0,47,48
 354 901 354 901 361 844 c 0,49,50
 367 793 367 793 392 793 c 0,51,52
 418 793 418 793 502 869 c 0,53,54
 519 884 519 884 557 920 c 0,55,56
 715 1067 715 1067 892 998 c 0,57,58
 1033 942 1033 942 1142 769 c 0,59,60
 1260 579 1260 579 1280 349 c 0,61,62
 1303 76 1303 76 1170 -115 c 0,63,64
 1153 -139 1153 -139 1134 -161 c 0,65,66
 1088 -214 1088 -214 1061 -243.5 c 128,-1,67
 1034 -273 1034 -273 1006.5 -294.5 c 128,-1,68
 979 -316 979 -316 962.5 -320.5 c 128,-1,69
 946 -325 946 -325 925 -317 c 128,-1,70
 904 -309 904 -309 886.5 -292 c 128,-1,71
 869 -275 869 -275 842 -242 c 0,0,1
EndSplineSet
EndChar

StartChar: i
Encoding: 105 105 76
Width: 723
GlyphClass: 1
Flags: W
LayerCount: 2
Fore
SplineSet
6 521 m 0,0,1
 6 858 6 858 19 945 c 0,2,3
 33 1038 33 1038 78 1062 c 0,4,5
 110 1079 110 1079 205 1079 c 128,-1,6
 300 1079 300 1079 332 1062 c 0,7,8
 377 1038 377 1038 391 946 c 0,9,10
 405 859 405 859 405 521 c 0,11,12
 405 184 405 184 391 96 c 0,13,14
 377 4 377 4 332 -20 c 0,15,16
 301 -38 301 -38 205.5 -38 c 128,-1,17
 110 -38 110 -38 78 -20 c 0,18,19
 33 4 33 4 19 95 c 0,20,21
 6 183 6 183 6 521 c 0,0,1
46 1518 m 0,22,23
 12 1559 12 1559 2.5 1580.5 c 128,-1,24
 -7 1602 -7 1602 11.5 1616 c 128,-1,25
 30 1630 30 1630 74 1634 c 128,-1,26
 118 1638 118 1638 205 1638 c 128,-1,27
 292 1638 292 1638 336 1634 c 128,-1,28
 380 1630 380 1630 398.5 1616 c 128,-1,29
 417 1602 417 1602 407.5 1580.5 c 128,-1,30
 398 1559 398 1559 365 1518 c 0,31,32
 324 1469 324 1469 277 1434 c 128,-1,33
 230 1399 230 1399 205 1399 c 128,-1,34
 180 1399 180 1399 133 1434 c 128,-1,35
 86 1469 86 1469 46 1518 c 0,22,23
EndSplineSet
EndChar

StartChar: j
Encoding: 106 106 77
Width: 721
GlyphClass: 1
Flags: W
LayerCount: 2
Fore
SplineSet
68 -224 m 0,0,1
 98 -195 98 -195 117.5 -170.5 c 128,-1,2
 137 -146 137 -146 155 -113.5 c 128,-1,3
 173 -81 173 -81 183 -49.5 c 128,-1,4
 193 -18 193 -18 201.5 33 c 128,-1,5
 210 84 210 84 213 136 c 128,-1,6
 216 188 216 188 216.5 270.5 c 128,-1,7
 217 353 217 353 214.5 440 c 128,-1,8
 212 527 212 527 208 654 c 0,9,10
 192 1090 192 1090 199 1194 c 0,11,12
 207 1314 207 1314 248 1345 c 0,13,14
 275 1366 275 1366 355 1367 c 0,15,16
 364 1367 364 1367 382 1367 c 0,17,18
 432 1367 432 1367 470.5 1282.5 c 128,-1,19
 509 1198 509 1198 529 1060.5 c 128,-1,20
 549 923 549 923 558.5 754.5 c 128,-1,21
 568 586 568 586 558 412 c 128,-1,22
 548 238 548 238 528 87.5 c 128,-1,23
 508 -63 508 -63 469 -172 c 128,-1,24
 430 -281 430 -281 380 -312 c 0,25,26
 236 -403 236 -403 113 -406 c 0,27,28
 24 -407 24 -407 6 -360 c 0,29,30
 -15 -307 -15 -307 68 -224 c 0,0,1
222 1805 m 0,31,32
 189 1846 189 1846 179.5 1867.5 c 128,-1,33
 170 1889 170 1889 188.5 1903 c 128,-1,34
 207 1917 207 1917 251 1921 c 128,-1,35
 295 1925 295 1925 382 1925 c 128,-1,36
 469 1925 469 1925 513 1921 c 128,-1,37
 557 1917 557 1917 575.5 1903 c 128,-1,38
 594 1889 594 1889 584.5 1867.5 c 128,-1,39
 575 1846 575 1846 542 1805 c 0,40,41
 501 1756 501 1756 454 1721 c 128,-1,42
 407 1686 407 1686 382 1686 c 128,-1,43
 357 1686 357 1686 310 1721 c 128,-1,44
 263 1756 263 1756 222 1805 c 0,31,32
EndSplineSet
EndChar

StartChar: k
Encoding: 107 107 78
Width: 1599
GlyphClass: 1
Flags: W
LayerCount: 2
Fore
SplineSet
767 -248 m 0,0,1
 715 -186 715 -186 721.5 -141 c 128,-1,2
 728 -96 728 -96 797 -39 c 0,3,4
 917 61 917 61 911 164.5 c 128,-1,5
 905 268 905 268 771 389 c 0,6,7
 730 426 730 426 682.5 438.5 c 128,-1,8
 635 451 635 451 590 440.5 c 128,-1,9
 545 430 545 430 502.5 400 c 128,-1,10
 460 370 460 370 428.5 325.5 c 128,-1,11
 397 281 397 281 378 221 c 128,-1,12
 359 161 359 161 359 95 c 0,13,14
 359 32 359 32 312 -3 c 128,-1,15
 265 -38 265 -38 180 -38 c 0,16,17
 102 -38 102 -38 74 -19 c 0,18,19
 30 10 30 10 16 128 c 0,20,21
 0 251 0 251 0 730 c 0,22,23
 0 760 0 760 0 800 c 0,24,25
 0 1311 0 1311 11 1434 c 0,26,27
 23 1575 23 1575 64 1612 c 0,28,29
 92 1637 92 1637 167 1638 c 0,30,31
 177 1638 177 1638 199 1638 c 0,32,33
 295 1638 295 1638 324 1623 c 0,34,35
 368 1602 368 1602 379 1518 c 0,36,37
 389 1434 389 1434 375 1112 c 0,38,39
 374 1091 374 1091 372 1059 c 0,40,41
 357 720 357 720 364 645 c 0,42,43
 371 567 371 567 404 568 c 0,44,45
 434 568 434 568 523 650 c 0,46,47
 543 668 543 668 589 712 c 0,48,49
 689 808 689 808 748.5 896 c 128,-1,50
 808 984 808 984 790 1012 c 0,51,52
 772 1042 772 1042 833 1062 c 0,53,54
 884 1079 884 1079 965 1079 c 0,55,56
 999 1079 999 1079 1021 1079 c 128,-1,57
 1043 1079 1043 1079 1064.5 1077.5 c 128,-1,58
 1086 1076 1086 1076 1097.5 1074 c 128,-1,59
 1109 1072 1109 1072 1119 1067.5 c 128,-1,60
 1129 1063 1129 1063 1131.5 1058.5 c 128,-1,61
 1134 1054 1134 1054 1132.5 1044.5 c 128,-1,62
 1131 1035 1131 1035 1125.5 1026 c 128,-1,63
 1120 1017 1120 1017 1108 1001.5 c 128,-1,64
 1096 986 1096 986 1083.5 971 c 128,-1,65
 1071 956 1071 956 1050 933 c 0,66,67
 1003 882 1003 882 976 844 c 128,-1,68
 949 806 949 806 936.5 767.5 c 128,-1,69
 924 729 924 729 928.5 696.5 c 128,-1,70
 933 664 933 664 956.5 623 c 128,-1,71
 980 582 980 582 1018 540.5 c 128,-1,72
 1056 499 1056 499 1117 441 c 0,73,74
 1243 323 1243 323 1284 223.5 c 128,-1,75
 1325 124 1325 124 1288.5 26.5 c 128,-1,76
 1252 -71 1252 -71 1132 -184 c 0,77,78
 1087 -225 1087 -225 1058.5 -251 c 128,-1,79
 1030 -277 1030 -277 1000.5 -299.5 c 128,-1,80
 971 -322 971 -322 953 -332 c 128,-1,81
 935 -342 935 -342 913.5 -346 c 128,-1,82
 892 -350 892 -350 878 -345.5 c 128,-1,83
 864 -341 864 -341 844 -327 c 128,-1,84
 824 -313 824 -313 807.5 -295.5 c 128,-1,85
 791 -278 791 -278 767 -248 c 0,0,1
EndSplineSet
EndChar

StartChar: l
Encoding: 108 108 79
Width: 712
GlyphClass: 1
Flags: W
LayerCount: 2
Fore
SplineSet
82 62 m 0,0,1
 49 156 49 156 29 291.5 c 128,-1,2
 9 427 9 427 3.5 573.5 c 128,-1,3
 -2 720 -2 720 2.5 872.5 c 128,-1,4
 7 1025 7 1025 24.5 1161 c 128,-1,5
 42 1297 42 1297 66.5 1404.5 c 128,-1,6
 91 1512 91 1512 126 1575 c 128,-1,7
 161 1638 161 1638 201 1638 c 0,8,9
 288 1638 288 1638 316 1625 c 0,10,11
 363 1603 363 1603 380 1515 c 0,12,13
 399 1412 399 1412 400 1031 c 0,14,15
 401 962 401 962 401 800 c 0,16,17
 401 289 401 289 323 30 c 0,18,19
 274 -132 274 -132 210 -126 c 0,20,21
 145 -121 145 -121 82 62 c 0,0,1
EndSplineSet
EndChar

StartChar: m
Encoding: 109 109 80
Width: 2240
GlyphClass: 1
Flags: W
LayerCount: 2
Fore
SplineSet
1490 -212 m 0,0,1
 1438 -149 1438 -149 1444.5 -104.5 c 128,-1,2
 1451 -60 1451 -60 1520 -2 c 0,3,4
 1576 44 1576 44 1606.5 133.5 c 128,-1,5
 1637 223 1637 223 1637.5 317 c 128,-1,6
 1638 411 1638 411 1607.5 500.5 c 128,-1,7
 1577 590 1577 590 1521 637 c 0,8,9
 1477 673 1477 673 1432.5 683.5 c 128,-1,10
 1388 694 1388 694 1348.5 680.5 c 128,-1,11
 1309 667 1309 667 1274.5 631.5 c 128,-1,12
 1240 596 1240 596 1215 543.5 c 128,-1,13
 1190 491 1190 491 1176 420 c 128,-1,14
 1162 349 1162 349 1162 268 c 0,15,16
 1162 184 1162 184 1155.5 134 c 128,-1,17
 1149 84 1149 84 1130 52.5 c 128,-1,18
 1111 21 1111 21 1081.5 9.5 c 128,-1,19
 1052 -2 1052 -2 1002.5 -2 c 128,-1,20
 953 -2 953 -2 923 9.5 c 128,-1,21
 893 21 893 21 874.5 52.5 c 128,-1,22
 856 84 856 84 849.5 134 c 128,-1,23
 843 184 843 184 843 268 c 0,24,25
 843 350 843 350 828.5 422 c 128,-1,26
 814 494 814 494 789 546 c 128,-1,27
 764 598 764 598 729 633 c 128,-1,28
 694 668 694 668 654 680 c 128,-1,29
 614 692 614 692 568 680.5 c 128,-1,30
 522 669 522 669 477 631 c 0,31,32
 350 526 350 526 381 262 c 0,33,34
 386 214 386 214 389 182.5 c 128,-1,35
 392 151 392 151 391 121 c 128,-1,36
 390 91 390 91 386.5 74 c 128,-1,37
 383 57 383 57 373 41.5 c 128,-1,38
 363 26 363 26 350.5 19 c 128,-1,39
 338 12 338 12 316 6.5 c 128,-1,40
 294 1 294 1 269.5 -0.5 c 128,-1,41
 245 -2 245 -2 208 -2 c 0,42,43
 111 -2 111 -2 79 15 c 0,44,45
 34 38 34 38 19 126 c 0,46,47
 5 211 5 211 5 538 c 0,48,49
 5 547 5 547 5 557 c 0,50,51
 5 899 5 899 21 991 c 0,52,53
 36 1078 36 1078 82 1101 c 0,54,55
 111 1115 111 1115 184 1115 c 0,56,57
 283 1115 283 1115 323.5 1076 c 128,-1,58
 364 1037 364 1037 364 942 c 0,59,60
 364 837 364 837 374 820 c 0,61,62
 386 800 386 800 432 837 c 0,63,64
 459 858 459 858 549 942 c 0,65,66
 592 983 592 983 610.5 1000.5 c 128,-1,67
 629 1018 629 1018 659.5 1038.5 c 128,-1,68
 690 1059 690 1059 699 1064.5 c 128,-1,69
 708 1070 708 1070 734.5 1068 c 128,-1,70
 761 1066 761 1066 770.5 1059 c 128,-1,71
 780 1052 780 1052 811 1027.5 c 128,-1,72
 842 1003 842 1003 860.5 983 c 128,-1,73
 879 963 879 963 923 916 c 128,-1,74
 967 869 967 869 985.5 848.5 c 128,-1,75
 1004 828 1004 828 1035.5 804 c 128,-1,76
 1067 780 1067 780 1076.5 773.5 c 128,-1,77
 1086 767 1086 767 1114.5 767 c 128,-1,78
 1143 767 1143 767 1153.5 774 c 128,-1,79
 1164 781 1164 781 1198.5 805.5 c 128,-1,80
 1233 830 1233 830 1254 850.5 c 128,-1,81
 1275 871 1275 871 1325 919 c 0,82,83
 1477 1065 1477 1065 1646 1000 c 0,84,85
 1781 948 1781 948 1882 781 c 0,86,87
 1995 596 1995 596 2010 371 c 0,88,89
 2027 100 2027 100 1889 -91 c 0,90,91
 1882 -101 1882 -101 1874 -111 c 0,92,93
 1825 -173 1825 -173 1789.5 -212 c 128,-1,94
 1754 -251 1754 -251 1720 -276.5 c 128,-1,95
 1686 -302 1686 -302 1660 -309 c 128,-1,96
 1634 -316 1634 -316 1605.5 -307 c 128,-1,97
 1577 -298 1577 -298 1550 -275 c 128,-1,98
 1523 -252 1523 -252 1490 -212 c 0,0,1
EndSplineSet
EndChar

StartChar: n
Encoding: 110 110 81
Width: 1458
GlyphClass: 1
Flags: W
LayerCount: 2
Fore
SplineSet
687 -213 m 0,0,1
 635 -150 635 -150 641.5 -105.5 c 128,-1,2
 648 -61 648 -61 717 -3 c 0,3,4
 769 40 769 40 800 138 c 128,-1,5
 831 236 831 236 835 342 c 128,-1,6
 839 448 839 448 815.5 549 c 128,-1,7
 792 650 792 650 743 699 c 1,8,9
 697 739 697 739 645.5 741.5 c 128,-1,10
 594 744 594 744 543 702 c 128,-1,11
 492 660 492 660 451 598 c 128,-1,12
 410 536 410 536 384.5 446.5 c 128,-1,13
 359 357 359 357 359 264 c 0,14,15
 359 206 359 206 356.5 167 c 128,-1,16
 354 128 354 128 346 96.5 c 128,-1,17
 338 65 338 65 326 47 c 128,-1,18
 314 29 314 29 293 17 c 128,-1,19
 272 5 272 5 245.5 1 c 128,-1,20
 219 -3 219 -3 180 -3 c 0,21,22
 94 -3 94 -3 64 20 c 0,23,24
 22 52 22 52 10 171 c 0,25,26
 0 266 0 266 0 556 c 0,27,28
 0 898 0 898 16 990 c 0,29,30
 32 1077 32 1077 77 1100 c 0,31,32
 107 1115 107 1115 180 1115 c 0,33,34
 278 1115 278 1115 318.5 1075.5 c 128,-1,35
 359 1036 359 1036 359 941 c 0,36,37
 359 838 359 838 369 821 c 0,38,39
 381 800 381 800 430 838 c 0,40,41
 459 861 459 861 559 955 c 0,42,43
 718 1105 718 1105 885 1040 c 0,44,45
 1016 988 1016 988 1111 820 c 0,46,47
 1218 631 1218 631 1226 397 c 0,48,49
 1234 117 1234 117 1091 -85 c 0,50,51
 1082 -99 1082 -99 1071 -111 c 0,52,53
 1023 -173 1023 -173 987 -212.5 c 128,-1,54
 951 -252 951 -252 917 -277.5 c 128,-1,55
 883 -303 883 -303 857 -310 c 128,-1,56
 831 -317 831 -317 802.5 -308 c 128,-1,57
 774 -299 774 -299 747.5 -276 c 128,-1,58
 721 -253 721 -253 687 -213 c 0,0,1
EndSplineSet
EndChar

StartChar: o
Encoding: 111 111 82
Width: 1648
GlyphClass: 1
Flags: W
LayerCount: 2
Fore
SplineSet
174 204 m 0,0,1
 79 298 79 298 35.5 406.5 c 128,-1,2
 -8 515 -8 515 0 616 c 128,-1,3
 8 717 8 717 61 810.5 c 128,-1,4
 114 904 114 904 202.5 973 c 128,-1,5
 291 1042 291 1042 419.5 1083.5 c 128,-1,6
 548 1125 548 1125 697 1125 c 0,7,8
 805 1125 805 1125 912.5 1094.5 c 128,-1,9
 1020 1064 1020 1064 1109.5 1010.5 c 128,-1,10
 1199 957 1199 957 1268 887.5 c 128,-1,11
 1337 818 1337 818 1376 734.5 c 128,-1,12
 1415 651 1415 651 1415 566.5 c 128,-1,13
 1415 482 1415 482 1376 398.5 c 128,-1,14
 1337 315 1337 315 1268 245.5 c 128,-1,15
 1199 176 1199 176 1109.5 122 c 128,-1,16
 1020 68 1020 68 912.5 38 c 128,-1,17
 805 8 805 8 697 8 c 0,18,19
 517 8 517 8 400 51.5 c 128,-1,20
 283 95 283 95 174 204 c 0,0,1
932 282 m 0,21,22
 982 342 982 342 1003 418 c 128,-1,23
 1024 494 1024 494 1015 567 c 128,-1,24
 1006 640 1006 640 979.5 711.5 c 128,-1,25
 953 783 953 783 906 836.5 c 128,-1,26
 859 890 859 890 804.5 923 c 128,-1,27
 750 956 750 956 684.5 956 c 128,-1,28
 619 956 619 956 557 917 c 0,29,30
 487 873 487 873 444.5 798 c 128,-1,31
 402 723 402 723 391 641 c 128,-1,32
 380 559 380 559 396 473.5 c 128,-1,33
 412 388 412 388 450.5 320.5 c 128,-1,34
 489 253 489 253 553.5 210 c 128,-1,35
 618 167 618 167 697 167 c 0,36,37
 755 167 755 167 824 201 c 128,-1,38
 893 235 893 235 932 282 c 0,21,22
EndSplineSet
EndChar

StartChar: p
Encoding: 112 112 83
Width: 1522
GlyphClass: 1
Flags: W
LayerCount: 2
Fore
SplineSet
2 482 m 0,0,1
 2 651 2 651 26 798 c 128,-1,2
 50 945 50 945 93 1058.5 c 128,-1,3
 136 1172 136 1172 198 1257 c 128,-1,4
 260 1342 260 1342 334.5 1391.5 c 128,-1,5
 409 1441 409 1441 497 1456 c 128,-1,6
 585 1471 585 1471 679 1449 c 128,-1,7
 773 1427 773 1427 875.5 1364.5 c 128,-1,8
 978 1302 978 1302 1079 1200 c 0,9,10
 1168 1112 1168 1112 1209.5 1003 c 128,-1,11
 1251 894 1251 894 1245.5 789.5 c 128,-1,12
 1240 685 1240 685 1193 585 c 128,-1,13
 1146 485 1146 485 1068 409.5 c 128,-1,14
 990 334 990 334 876 288.5 c 128,-1,15
 762 243 762 243 632 243 c 0,16,17
 474 243 474 243 432 231 c 0,18,19
 381 217 381 217 368 170 c 0,20,21
 356 124 356 124 371 -35 c 0,22,23
 372 -48 372 -48 375 -76 c 0,24,25
 381 -138 381 -138 383.5 -176 c 128,-1,26
 386 -214 386 -214 386 -251 c 128,-1,27
 386 -288 386 -288 383 -308 c 128,-1,28
 380 -328 380 -328 370 -346.5 c 128,-1,29
 360 -365 360 -365 348 -373 c 128,-1,30
 336 -381 336 -381 313 -387 c 128,-1,31
 290 -393 290 -393 266 -394.5 c 128,-1,32
 242 -396 242 -396 204 -396 c 0,33,34
 116 -396 116 -396 88 -382 c 0,35,36
 41 -360 41 -360 24 -271 c 0,37,38
 4 -165 4 -165 2 226 c 0,39,40
 2 302 2 302 2 482 c 0,0,1
800 801 m 0,41,42
 800 1017 800 1017 708 1132 c 0,43,44
 642 1215 642 1215 560 1205 c 0,45,46
 475 1193 475 1193 423 1085 c 0,47,48
 386 1007 386 1007 375 894 c 0,49,50
 349 614 349 614 405 504 c 128,-1,51
 461 394 461 394 620 417 c 0,52,53
 662 423 662 423 688 431 c 128,-1,54
 714 439 714 439 736 457.5 c 128,-1,55
 758 476 758 476 769 500 c 128,-1,56
 780 524 780 524 788 568.5 c 128,-1,57
 796 613 796 613 798 666 c 128,-1,58
 800 719 800 719 800 801 c 0,41,42
EndSplineSet
EndChar

StartChar: q
Encoding: 113 113 84
Width: 1513
GlyphClass: 1
Flags: W
LayerCount: 2
Fore
SplineSet
1023 -320 m 0,0,1
 966 -256 966 -256 924.5 -148 c 128,-1,2
 883 -40 883 -40 883 48 c 0,3,4
 883 99 883 99 880.5 130 c 128,-1,5
 878 161 878 161 866 187.5 c 128,-1,6
 854 214 854 214 837.5 226.5 c 128,-1,7
 821 239 821 239 787 248 c 128,-1,8
 753 257 753 257 712 259 c 128,-1,9
 671 261 671 261 604 261 c 0,10,11
 475 261 475 261 364 303 c 128,-1,12
 253 345 253 345 174 418.5 c 128,-1,13
 95 492 95 492 50.5 595.5 c 128,-1,14
 6 699 6 699 6 820 c 0,15,16
 6 1109 6 1109 193.5 1243.5 c 128,-1,17
 381 1378 381 1378 784 1378 c 0,18,19
 997 1379 997 1379 1062 1366 c 0,20,21
 1155 1348 1155 1348 1190 1284 c 0,22,23
 1228 1215 1228 1215 1228 1019 c 0,24,25
 1228 939 1228 939 1221 720 c 0,26,27
 1196 -58 1196 -58 1182 -217 c 0,28,29
 1166 -391 1166 -391 1134 -406 c 0,30,31
 1113 -417 1113 -417 1064 -365 c 0,32,33
 1054 -355 1054 -355 1023 -320 c 0,0,1
844 820 m 0,34,35
 844 1035 844 1035 752 1150 c 0,36,37
 686 1234 686 1234 604 1223 c 0,38,39
 519 1212 519 1212 467 1103 c 0,40,41
 430 1026 430 1026 419 912 c 0,42,43
 392 632 392 632 448.5 522.5 c 128,-1,44
 505 413 505 413 664 435 c 0,45,46
 705 441 705 441 731.5 449 c 128,-1,47
 758 457 758 457 779.5 475.5 c 128,-1,48
 801 494 801 494 812.5 518 c 128,-1,49
 824 542 824 542 831.5 586.5 c 128,-1,50
 839 631 839 631 841.5 684 c 128,-1,51
 844 737 844 737 844 820 c 0,34,35
EndSplineSet
EndChar

StartChar: r
Encoding: 114 114 85
Width: 1353
GlyphClass: 1
Flags: W
LayerCount: 2
Fore
SplineSet
0 562 m 0,0,1
 0 904 0 904 16 996 c 0,2,3
 32 1083 32 1083 77 1106 c 0,4,5
 107 1121 107 1121 180 1121 c 0,6,7
 265 1121 265 1121 312 1086 c 128,-1,8
 359 1051 359 1051 359 989 c 0,9,10
 359 911 359 911 378 904 c 0,11,12
 399 896 399 896 478 965 c 0,13,14
 497 981 497 981 523 1005 c 0,15,16
 595 1070 595 1070 671.5 1087.5 c 128,-1,17
 748 1105 748 1105 811 1079 c 128,-1,18
 874 1053 874 1053 921 983.5 c 128,-1,19
 968 914 968 914 983 813 c 0,20,21
 997 717 997 717 966.5 679.5 c 128,-1,22
 936 642 936 642 843 642 c 0,23,24
 768 642 768 642 723 678 c 128,-1,25
 678 714 678 714 678 774 c 0,26,27
 678 851 678 851 659 858 c 0,28,29
 637 865 637 865 556 794 c 0,30,31
 538 779 538 779 512 755 c 0,32,33
 418 670 418 670 388 572.5 c 128,-1,34
 358 475 358 475 375 304 c 0,35,36
 380 248 380 248 382.5 212 c 128,-1,37
 385 176 385 176 384.5 141.5 c 128,-1,38
 384 107 384 107 380.5 87.5 c 128,-1,39
 377 68 377 68 367 50.5 c 128,-1,40
 357 33 357 33 345 25.5 c 128,-1,41
 333 18 333 18 310.5 12 c 128,-1,42
 288 6 288 6 263.5 4.5 c 128,-1,43
 239 3 239 3 202 3 c 0,44,45
 105 3 105 3 73 20 c 0,46,47
 28 44 28 44 14 134 c 0,48,49
 0 230 0 230 0 562 c 0,0,1
EndSplineSet
EndChar

StartChar: s
Encoding: 115 115 86
Width: 1520
GlyphClass: 1
Flags: W
LayerCount: 2
Fore
SplineSet
123 88 m 0,0,1
 66 121 66 121 25 170.5 c 128,-1,2
 -16 220 -16 220 -16 255 c 0,3,4
 -16 340 -16 340 98 245 c 0,5,6
 144 208 144 208 211 187 c 128,-1,7
 278 166 278 166 348.5 163.5 c 128,-1,8
 419 161 419 161 490 173.5 c 128,-1,9
 561 186 561 186 616.5 211 c 128,-1,10
 672 236 672 236 707 275 c 128,-1,11
 742 314 742 314 742 359 c 0,12,13
 742 450 742 450 677.5 494.5 c 128,-1,14
 613 539 613 539 439 567 c 0,15,16
 117 619 117 619 25 734 c 0,17,18
 -43 819 -43 819 40 909 c 0,19,20
 136 1014 136 1014 386 1072 c 0,21,22
 589 1119 589 1119 843 1119 c 0,23,24
 1172 1119 1172 1119 1240 1109 c 0,25,26
 1302 1099 1302 1099 1301 1073 c 0,27,28
 1301 1049 1301 1049 1240 981 c 0,29,30
 1233 973 1233 973 1219 957 c 0,31,32
 1073 796 1073 796 1018 884 c 0,33,34
 993 925 993 925 910.5 940 c 128,-1,35
 828 955 828 955 739 944 c 128,-1,36
 650 933 650 933 573.5 899.5 c 128,-1,37
 497 866 497 866 482 820 c 0,38,39
 449 720 449 720 717 720 c 0,40,41
 957 720 957 720 1140 602 c 0,42,43
 1280 511 1280 511 1325 390 c 0,44,45
 1373 258 1373 258 1282 157 c 0,46,47
 1245 116 1245 116 1186 84 c 0,48,49
 1091 34 1091 34 870 15 c 128,-1,50
 649 -4 649 -4 430.5 16.5 c 128,-1,51
 212 37 212 37 123 88 c 0,0,1
EndSplineSet
EndChar

StartChar: t
Encoding: 116 116 87
Width: 1326
GlyphClass: 1
Flags: W
LayerCount: 2
Fore
SplineSet
539 -220 m 0,0,1
 460 -133 460 -133 429.5 21 c 128,-1,2
 399 175 399 175 399 481 c 0,3,4
 399 813 399 813 388.5 883 c 128,-1,5
 378 953 378 953 349 953 c 0,6,7
 321 953 321 953 243 881 c 0,8,9
 230 868 230 868 199 840 c 0,10,11
 85 732 85 732 55 715 c 0,12,13
 19 694 19 694 9 730 c 0,14,15
 0 759 0 759 0 906 c 0,16,17
 0 964 0 964 2.5 1001.5 c 128,-1,18
 5 1039 5 1039 14 1069.5 c 128,-1,19
 23 1100 23 1100 36 1115.5 c 128,-1,20
 49 1131 49 1131 74 1142 c 128,-1,21
 99 1153 99 1153 129.5 1156 c 128,-1,22
 160 1159 160 1159 209 1159 c 0,23,24
 259 1159 259 1159 289 1161.5 c 128,-1,25
 319 1164 319 1164 343 1174 c 128,-1,26
 367 1184 367 1184 377.5 1198 c 128,-1,27
 388 1212 388 1212 392 1241.5 c 128,-1,28
 396 1271 396 1271 393 1306 c 128,-1,29
 390 1341 390 1341 382 1399 c 0,30,31
 376 1442 376 1442 372.5 1471 c 128,-1,32
 369 1500 369 1500 369.5 1526.5 c 128,-1,33
 370 1553 370 1553 373.5 1569 c 128,-1,34
 377 1585 377 1585 387.5 1598.5 c 128,-1,35
 398 1612 398 1612 411 1619 c 128,-1,36
 424 1626 424 1626 447 1630.5 c 128,-1,37
 470 1635 470 1635 495 1636.5 c 128,-1,38
 520 1638 520 1638 558.5 1638 c 128,-1,39
 597 1638 597 1638 622.5 1636.5 c 128,-1,40
 648 1635 648 1635 670.5 1630.5 c 128,-1,41
 693 1626 693 1626 706 1619 c 128,-1,42
 719 1612 719 1612 729.5 1598.5 c 128,-1,43
 740 1585 740 1585 743.5 1569 c 128,-1,44
 747 1553 747 1553 747.5 1526.5 c 128,-1,45
 748 1500 748 1500 745 1471 c 128,-1,46
 742 1442 742 1442 735 1399 c 0,47,48
 727 1341 727 1341 724 1306 c 128,-1,49
 721 1271 721 1271 725.5 1241.5 c 128,-1,50
 730 1212 730 1212 740 1198 c 128,-1,51
 750 1184 750 1184 774 1174 c 128,-1,52
 798 1164 798 1164 828 1161.5 c 128,-1,53
 858 1159 858 1159 909 1159 c 0,54,55
 957 1159 957 1159 987.5 1156 c 128,-1,56
 1018 1153 1018 1153 1043 1142 c 128,-1,57
 1068 1131 1068 1131 1081 1115.5 c 128,-1,58
 1094 1100 1094 1100 1103 1069.5 c 128,-1,59
 1112 1039 1112 1039 1114.5 1001.5 c 128,-1,60
 1117 964 1117 964 1117 906 c 0,61,62
 1117 754 1117 754 1107 726 c 0,63,64
 1096 693 1096 693 1057 718 c 0,65,66
 1028 737 1028 737 921 837 c 0,67,68
 832 921 832 921 803 935 c 0,69,70
 762 955 762 955 743 904 c 0,71,72
 721 840 721 840 709 546 c 0,73,74
 707 481 707 481 701 323 c 0,75,76
 687 -123 687 -123 671 -217 c 0,77,78
 657 -295 657 -295 630 -295 c 0,79,80
 607 -295 607 -295 548 -230 c 0,81,82
 544 -225 544 -225 539 -220 c 0,0,1
EndSplineSet
EndChar

StartChar: u
Encoding: 117 117 88
Width: 1521
GlyphClass: 1
Flags: W
LayerCount: 2
Fore
SplineSet
224 205 m 0,0,1
 128 306 128 306 72 436 c 128,-1,2
 16 566 16 566 7.5 692.5 c 128,-1,3
 -1 819 -1 819 38 937 c 128,-1,4
 77 1055 77 1055 161 1131 c 0,5,6
 310 1266 310 1266 379 1166 c 0,7,8
 442 1073 442 1073 419 796 c 0,9,10
 409 687 409 687 431 575 c 128,-1,11
 453 463 453 463 494 414 c 0,12,13
 567 325 567 325 665 368 c 0,14,15
 752 405 752 405 816 527 c 0,16,17
 888 664 888 664 888 831 c 0,18,19
 888 890 888 890 890.5 929 c 128,-1,20
 893 968 893 968 901 999.5 c 128,-1,21
 909 1031 909 1031 921 1049 c 128,-1,22
 933 1067 933 1067 954 1078.5 c 128,-1,23
 975 1090 975 1090 1001.5 1094 c 128,-1,24
 1028 1098 1028 1098 1067 1098 c 0,25,26
 1152 1098 1152 1098 1183 1075 c 0,27,28
 1225 1044 1225 1044 1237 925 c 0,29,30
 1247 830 1247 830 1247 540 c 0,31,32
 1247 198 1247 198 1231 106 c 0,33,34
 1215 19 1215 19 1170 -4 c 0,35,36
 1140 -19 1140 -19 1067 -19 c 0,37,38
 969 -19 969 -19 928.5 20.5 c 128,-1,39
 888 60 888 60 888 155 c 0,40,41
 888 260 888 260 878 276 c 0,42,43
 866 297 866 297 820 260 c 0,44,45
 793 239 793 239 703 155 c 0,46,47
 698 150 698 150 689 142 c 0,48,49
 649 104 649 104 631.5 87 c 128,-1,50
 614 70 614 70 583.5 47 c 128,-1,51
 553 24 553 24 543 16 c 128,-1,52
 533 8 533 8 507 2 c 128,-1,53
 481 -4 481 -4 473.5 -3 c 128,-1,54
 466 -2 466 -2 439 9.5 c 128,-1,55
 412 21 412 21 401 31.5 c 128,-1,56
 390 42 390 42 356.5 71.5 c 128,-1,57
 323 101 323 101 303.5 121.5 c 128,-1,58
 284 142 284 142 239 189 c 0,59,60
 229 200 229 200 224 205 c 0,0,1
EndSplineSet
EndChar

StartChar: v
Encoding: 118 118 89
Width: 1520
GlyphClass: 1
Flags: W
LayerCount: 2
Fore
SplineSet
246 259 m 0,0,1
 167 350 167 350 111.5 445 c 128,-1,2
 56 540 56 540 30 626 c 128,-1,3
 4 712 4 712 4.5 790.5 c 128,-1,4
 5 869 5 869 31.5 928 c 128,-1,5
 58 987 58 987 114 1025.5 c 128,-1,6
 170 1064 170 1064 249 1073 c 0,7,8
 288 1078 288 1078 312.5 1080 c 128,-1,9
 337 1082 337 1082 360 1079.5 c 128,-1,10
 383 1077 383 1077 395 1072.5 c 128,-1,11
 407 1068 407 1068 417 1055 c 128,-1,12
 427 1042 427 1042 430 1026.5 c 128,-1,13
 433 1011 433 1011 433 983.5 c 128,-1,14
 433 956 433 956 429.5 926.5 c 128,-1,15
 426 897 426 897 419 851 c 0,16,17
 412 792 412 792 412.5 736 c 128,-1,18
 413 680 413 680 424 631 c 128,-1,19
 435 582 435 582 452 539 c 128,-1,20
 469 496 469 496 493.5 463 c 128,-1,21
 518 430 518 430 546 406 c 128,-1,22
 574 382 574 382 607 370.5 c 128,-1,23
 640 359 640 359 674 359.5 c 128,-1,24
 708 360 708 360 744 376 c 128,-1,25
 780 392 780 392 814 423 c 0,26,27
 879 482 879 482 920 593 c 128,-1,28
 961 704 961 704 961 822 c 0,29,30
 961 871 961 871 962 903.5 c 128,-1,31
 963 936 963 936 967.5 966 c 128,-1,32
 972 996 972 996 978.5 1013.5 c 128,-1,33
 985 1031 985 1031 998.5 1046.5 c 128,-1,34
 1012 1062 1012 1062 1027 1069 c 128,-1,35
 1042 1076 1042 1076 1068 1081.5 c 128,-1,36
 1094 1087 1094 1087 1122 1088 c 128,-1,37
 1150 1089 1150 1089 1193 1089 c 0,38,39
 1563 1089 1563 1089 1248 667 c 0,40,41
 1146 531 1146 531 973 351 c 0,42,43
 959 336 959 336 931 308 c 0,44,45
 859 233 859 233 827.5 199.5 c 128,-1,46
 796 166 796 166 743.5 119 c 128,-1,47
 691 72 691 72 673.5 55 c 128,-1,48
 656 38 656 38 615.5 19.5 c 128,-1,49
 575 1 575 1 563.5 -0.5 c 128,-1,50
 552 -2 552 -2 515.5 7 c 128,-1,51
 479 16 479 16 466.5 29 c 128,-1,52
 454 42 454 42 413.5 77 c 128,-1,53
 373 112 373 112 351 139 c 128,-1,54
 329 166 329 166 277 225 c 0,55,56
 257 248 257 248 246 259 c 0,0,1
EndSplineSet
EndChar

StartChar: w
Encoding: 119 119 90
Width: 2506
GlyphClass: 1
Flags: W
LayerCount: 2
Fore
SplineSet
235 270 m 0,0,1
 156 361 156 361 100.5 456 c 128,-1,2
 45 551 45 551 19 637 c 128,-1,3
 -7 723 -7 723 -7 801 c 128,-1,4
 -7 879 -7 879 20 938 c 128,-1,5
 47 997 47 997 102.5 1036 c 128,-1,6
 158 1075 158 1075 238 1084 c 0,7,8
 277 1089 277 1089 301.5 1090.5 c 128,-1,9
 326 1092 326 1092 349 1090 c 128,-1,10
 372 1088 372 1088 384 1083 c 128,-1,11
 396 1078 396 1078 406 1065 c 128,-1,12
 416 1052 416 1052 419 1037 c 128,-1,13
 422 1022 422 1022 422 994.5 c 128,-1,14
 422 967 422 967 418.5 937.5 c 128,-1,15
 415 908 415 908 408 861 c 0,16,17
 372 615 372 615 514 458 c 0,18,19
 548 421 548 421 584.5 398.5 c 128,-1,20
 621 376 621 376 655.5 370 c 128,-1,21
 690 364 690 364 724.5 371 c 128,-1,22
 759 378 759 378 788.5 398.5 c 128,-1,23
 818 419 818 419 844.5 449.5 c 128,-1,24
 871 480 871 480 889.5 521.5 c 128,-1,25
 908 563 908 563 921 612 c 128,-1,26
 934 661 934 661 936.5 719 c 128,-1,27
 939 777 939 777 932 839 c 0,28,29
 927 887 927 887 924 918.5 c 128,-1,30
 921 950 921 950 922 979.5 c 128,-1,31
 923 1009 923 1009 926.5 1026 c 128,-1,32
 930 1043 930 1043 940.5 1058 c 128,-1,33
 951 1073 951 1073 964 1080 c 128,-1,34
 977 1087 977 1087 1000 1092 c 128,-1,35
 1023 1097 1023 1097 1048 1098.5 c 128,-1,36
 1073 1100 1073 1100 1111 1100 c 256,37,38
 1149 1100 1149 1100 1174 1098.5 c 128,-1,39
 1199 1097 1199 1097 1222 1092.5 c 128,-1,40
 1245 1088 1245 1088 1257.5 1081 c 128,-1,41
 1270 1074 1270 1074 1280.5 1060 c 128,-1,42
 1291 1046 1291 1046 1294 1030 c 128,-1,43
 1297 1014 1297 1014 1297.5 987 c 128,-1,44
 1298 960 1298 960 1295 930.5 c 128,-1,45
 1292 901 1292 901 1285 857 c 0,46,47
 1277 799 1277 799 1278 743.5 c 128,-1,48
 1279 688 1279 688 1290 639.5 c 128,-1,49
 1301 591 1301 591 1318.5 548.5 c 128,-1,50
 1336 506 1336 506 1360.5 473 c 128,-1,51
 1385 440 1385 440 1413 416.5 c 128,-1,52
 1441 393 1441 393 1474 381.5 c 128,-1,53
 1507 370 1507 370 1541 370.5 c 128,-1,54
 1575 371 1575 371 1611 387 c 128,-1,55
 1647 403 1647 403 1681 433 c 0,56,57
 1741 488 1741 488 1778.5 578.5 c 128,-1,58
 1816 669 1816 669 1823 762 c 128,-1,59
 1830 855 1830 855 1806.5 943.5 c 128,-1,60
 1783 1032 1783 1032 1731 1085 c 0,61,62
 1674 1141 1674 1141 1680.5 1187 c 128,-1,63
 1687 1233 1687 1233 1760 1306 c 0,64,65
 1791 1337 1791 1337 1810.5 1353.5 c 128,-1,66
 1830 1370 1830 1370 1853 1376.5 c 128,-1,67
 1876 1383 1876 1383 1892.5 1378 c 128,-1,68
 1909 1373 1909 1373 1935.5 1351 c 128,-1,69
 1962 1329 1962 1329 1988 1299 c 128,-1,70
 2014 1269 2014 1269 2056 1215 c 0,71,72
 2221 1005 2221 1005 2210 732 c 0,73,74
 2201 508 2201 508 2081 326 c 0,75,76
 1972 161 1972 161 1820 105 c 0,77,78
 1631 36 1631 36 1454 167 c 0,79,80
 1423 189 1423 189 1394 218 c 0,81,82
 1340 270 1340 270 1316.5 293.5 c 128,-1,83
 1293 317 1293 317 1253 349 c 128,-1,84
 1213 381 1213 381 1199.5 393 c 128,-1,85
 1186 405 1186 405 1153.5 416.5 c 128,-1,86
 1121 428 1121 428 1111.5 428 c 128,-1,87
 1102 428 1102 428 1070.5 419 c 128,-1,88
 1039 410 1039 410 1026.5 399 c 128,-1,89
 1014 388 1014 388 976.5 358.5 c 128,-1,90
 939 329 939 329 917.5 307.5 c 128,-1,91
 896 286 896 286 846 238 c 0,92,93
 836 228 836 228 818 210 c 0,94,95
 750 145 750 145 722 117 c 128,-1,96
 694 89 694 89 647.5 56 c 128,-1,97
 601 23 601 23 586.5 14 c 128,-1,98
 572 5 572 5 533 7 c 128,-1,99
 494 9 494 9 480.5 20 c 128,-1,100
 467 31 467 31 422 68.5 c 128,-1,101
 377 106 377 106 351 137 c 128,-1,102
 325 168 325 168 262 240 c 0,103,104
 244 260 244 260 235 270 c 0,0,1
EndSplineSet
EndChar

StartChar: x
Encoding: 120 120 91
Width: 1606
GlyphClass: 1
Flags: W
LayerCount: 2
Fore
SplineSet
218 264 m 0,0,1
 266 314 266 314 287.5 335.5 c 128,-1,2
 309 357 309 357 339.5 394 c 128,-1,3
 370 431 370 431 380.5 443 c 128,-1,4
 391 455 391 455 401.5 485 c 128,-1,5
 412 515 412 515 412.5 523.5 c 128,-1,6
 413 532 413 532 404 560.5 c 128,-1,7
 395 589 395 589 385 599.5 c 128,-1,8
 375 610 375 610 347.5 643 c 128,-1,9
 320 676 320 676 299.5 695 c 128,-1,10
 279 714 279 714 233 757 c 0,11,12
 173 815 173 815 131.5 858.5 c 128,-1,13
 90 902 90 902 61 939 c 128,-1,14
 32 976 32 976 19.5 1002 c 128,-1,15
 7 1028 7 1028 9.5 1048.5 c 128,-1,16
 12 1069 12 1069 29 1081.5 c 128,-1,17
 46 1094 46 1094 81 1102.5 c 128,-1,18
 116 1111 116 1111 163 1114 c 128,-1,19
 210 1117 210 1117 277 1117 c 0,20,21
 442 1117 442 1117 502 1081 c 0,22,23
 529 1065 529 1065 518 1046 c 0,24,25
 465 961 465 961 523 900 c 0,26,27
 573 848 573 848 668 847 c 0,28,29
 780 845 780 845 856 921 c 0,30,31
 865 930 865 930 873 940 c 0,32,33
 932 1013 932 1013 1016 1065 c 128,-1,34
 1100 1117 1100 1117 1158 1117 c 0,35,36
 1232 1117 1232 1117 1232 1087 c 0,37,38
 1232 1051 1232 1051 1113 922 c 0,39,40
 1094 902 1094 902 1070 877 c 0,41,42
 1027 832 1027 832 1007.5 812.5 c 128,-1,43
 988 793 988 793 961.5 758.5 c 128,-1,44
 935 724 935 724 925 713 c 128,-1,45
 915 702 915 702 907.5 672.5 c 128,-1,46
 900 643 900 643 900 634.5 c 128,-1,47
 900 626 900 626 911 596 c 128,-1,48
 922 566 922 566 933 554 c 128,-1,49
 944 542 944 542 974 505 c 128,-1,50
 1004 468 1004 468 1025.5 446.5 c 128,-1,51
 1047 425 1047 425 1095 375 c 0,52,53
 1147 322 1147 322 1183 283.5 c 128,-1,54
 1219 245 1219 245 1249.5 208.5 c 128,-1,55
 1280 172 1280 172 1297.5 147 c 128,-1,56
 1315 122 1315 122 1324.5 99 c 128,-1,57
 1334 76 1334 76 1332.5 62 c 128,-1,58
 1331 48 1331 48 1319 36 c 128,-1,59
 1307 24 1307 24 1287 18 c 128,-1,60
 1267 12 1267 12 1233.5 7.5 c 128,-1,61
 1200 3 1200 3 1160.5 1.5 c 128,-1,62
 1121 0 1121 0 1066 0 c 0,63,64
 901 0 901 0 840 35 c 0,65,66
 813 51 813 51 825 69 c 0,67,68
 882 162 882 162 819 234 c 0,69,70
 766 295 766 295 662 305 c 0,71,72
 540 316 540 316 452 246 c 0,73,74
 428 227 428 227 410 204 c 0,75,76
 344 120 344 120 254.5 60 c 128,-1,77
 165 0 165 0 106 0 c 0,78,79
 35 0 35 0 36 31 c 0,80,81
 36 72 36 72 169 213 c 0,82,83
 191 236 191 236 218 264 c 0,0,1
EndSplineSet
EndChar

StartChar: y
Encoding: 121 121 92
Width: 1778
GlyphClass: 1
Flags: W
LayerCount: 2
Fore
SplineSet
214 -299 m 0,0,1
 22 -195 22 -195 25 -155 c 0,2,3
 29 -114 29 -114 244 -168 c 0,4,5
 282 -177 282 -177 325 -190 c 0,6,7
 529 -249 529 -249 691 -244 c 128,-1,8
 853 -239 853 -239 965.5 -178.5 c 128,-1,9
 1078 -118 1078 -118 1138 1.5 c 128,-1,10
 1198 121 1198 121 1198 290 c 0,11,12
 1198 348 1198 348 1195.5 387 c 128,-1,13
 1193 426 1193 426 1186 456 c 128,-1,14
 1179 486 1179 486 1168 500 c 128,-1,15
 1157 514 1157 514 1138.5 516 c 128,-1,16
 1120 518 1120 518 1097 507 c 128,-1,17
 1074 496 1074 496 1039.5 470.5 c 128,-1,18
 1005 445 1005 445 965.5 410 c 128,-1,19
 926 375 926 375 872 323 c 0,20,21
 713 172 713 172 511 222 c 0,22,23
 344 264 344 264 204 424 c 0,24,25
 61 589 61 589 18 795 c 0,26,27
 -34 1043 -34 1043 89 1234 c 0,28,29
 100 1251 100 1251 112 1268 c 0,30,31
 193 1374 193 1374 328 1410 c 0,32,33
 440 1440 440 1440 511 1403 c 0,34,35
 582 1367 582 1367 555 1288 c 0,36,37
 546 1261 546 1261 525 1230 c 0,38,39
 438 1106 438 1106 416.5 1008 c 128,-1,40
 395 910 395 910 435 818 c 128,-1,41
 475 726 475 726 585 624 c 0,42,43
 646 566 646 566 720.5 553.5 c 128,-1,44
 795 541 795 541 865 567 c 128,-1,45
 935 593 935 593 1000 651.5 c 128,-1,46
 1065 710 1065 710 1110 788 c 128,-1,47
 1155 866 1155 866 1176 965 c 128,-1,48
 1197 1064 1197 1064 1182 1163 c 0,49,50
 1175 1210 1175 1210 1171.5 1239 c 128,-1,51
 1168 1268 1168 1268 1169 1297 c 128,-1,52
 1170 1326 1170 1326 1173.5 1341 c 128,-1,53
 1177 1356 1177 1356 1189 1370.5 c 128,-1,54
 1201 1385 1201 1385 1215.5 1390.5 c 128,-1,55
 1230 1396 1230 1396 1258 1401 c 128,-1,56
 1286 1406 1286 1406 1315 1407 c 128,-1,57
 1344 1408 1344 1408 1392 1408 c 0,58,59
 1465 1408 1465 1408 1519 1339.5 c 128,-1,60
 1573 1271 1573 1271 1602 1146 c 128,-1,61
 1631 1021 1631 1021 1637 856 c 128,-1,62
 1643 691 1643 691 1621.5 487 c 128,-1,63
 1600 283 1600 283 1553 68 c 0,64,65
 1531 -32 1531 -32 1455 -119.5 c 128,-1,66
 1379 -207 1379 -207 1271.5 -268 c 128,-1,67
 1164 -329 1164 -329 1027.5 -366 c 128,-1,68
 891 -403 891 -403 752 -410 c 128,-1,69
 613 -417 613 -417 471 -389 c 128,-1,70
 329 -361 329 -361 214 -299 c 0,0,1
EndSplineSet
EndChar

StartChar: z
Encoding: 122 122 93
Width: 1605
GlyphClass: 1
Flags: W
LayerCount: 2
Fore
SplineSet
0 60.5 m 128,-1,1
 0 84 0 84 122 224.5 c 128,-1,2
 244 365 244 365 416 539 c 0,3,4
 645 770 645 770 695 833 c 0,5,6
 759 912 759 912 733 937 c 0,7,8
 711 959 711 959 587 960 c 0,9,10
 565 960 565 960 512 960 c 0,11,12
 380 960 380 960 257.5 932 c 128,-1,13
 135 904 135 904 96 865 c 0,14,15
 40 809 40 809 20 825.5 c 128,-1,16
 0 842 0 842 0 944 c 0,17,18
 0 1023 0 1023 22 1052 c 0,19,20
 54 1095 54 1095 180 1108 c 0,21,22
 296 1120 296 1120 718 1120 c 0,23,24
 1125 1120 1125 1120 1229 1110 c 0,25,26
 1373 1096 1373 1096 1390 1048 c 0,27,28
 1406 1001 1406 1001 1307 884 c 0,29,30
 1248 815 1248 815 1020 584 c 0,31,32
 842 404 842 404 825 259 c 0,33,34
 813 156 813 156 888 114 c 0,35,36
 974 66 974 66 1121 128 c 0,37,38
 1242 179 1242 179 1370 295 c 0,39,40
 1393 315 1393 315 1407.5 328 c 128,-1,41
 1422 341 1422 341 1438 353 c 128,-1,42
 1454 365 1454 365 1462.5 370.5 c 128,-1,43
 1471 376 1471 376 1480.5 377.5 c 128,-1,44
 1490 379 1490 379 1494.5 376.5 c 128,-1,45
 1499 374 1499 374 1504 365 c 128,-1,46
 1509 356 1509 356 1510.5 344.5 c 128,-1,47
 1512 333 1512 333 1513.5 311.5 c 128,-1,48
 1515 290 1515 290 1515.5 269 c 128,-1,49
 1516 248 1516 248 1516 215 c 0,50,51
 1516 120 1516 120 1503 90 c 0,52,53
 1482 42 1482 42 1401 24 c 0,54,55
 1307 4 1307 4 964 3 c 0,56,57
 902 3 902 3 758 3 c 0,58,59
 445 3 445 3 222.5 20 c 128,-1,0
 0 37 0 37 0 60.5 c 128,-1,1
EndSplineSet
EndChar

StartChar: braceleft
Encoding: 123 123 94
Width: 966
GlyphClass: 1
Flags: W
LayerCount: 2
Fore
SplineSet
495 -169 m 0,0,1
 455 -129 455 -129 427 -37 c 128,-1,2
 399 55 399 55 399 145 c 0,3,4
 399 303 399 303 308 438.5 c 128,-1,5
 217 574 217 574 61 646 c 0,6,7
 0 674 0 674 0 692.5 c 128,-1,8
 0 711 0 711 61 740 c 0,9,10
 218 813 218 813 308.5 949 c 128,-1,11
 399 1085 399 1085 399 1247 c 0,12,13
 399 1385 399 1385 478 1510 c 0,14,15
 541 1610 541 1610 611 1633 c 0,16,17
 664 1650 664 1650 700 1611 c 0,18,19
 724 1585 724 1585 711.5 1556.5 c 128,-1,20
 699 1528 699 1528 658 1513 c 128,-1,21
 617 1498 617 1498 588 1415.5 c 128,-1,22
 559 1333 559 1333 559 1231 c 128,-1,23
 559 1129 559 1129 520 1014 c 128,-1,24
 481 899 481 899 427 839 c 0,25,26
 392 801 392 801 374.5 779.5 c 128,-1,27
 357 758 357 758 345.5 733 c 128,-1,28
 334 708 334 708 334 693 c 128,-1,29
 334 678 334 678 345.5 653 c 128,-1,30
 357 628 357 628 374.5 606.5 c 128,-1,31
 392 585 392 585 427 547 c 0,32,33
 481 487 481 487 520 369.5 c 128,-1,34
 559 252 559 252 559 148 c 128,-1,35
 559 44 559 44 582 -30.5 c 128,-1,36
 605 -105 605 -105 638 -105 c 128,-1,37
 671 -105 671 -105 694.5 -128.5 c 128,-1,38
 718 -152 718 -152 718 -185 c 0,39,40
 718 -256 718 -256 663 -261 c 0,41,42
 598 -267 598 -267 506 -180 c 0,43,44
 500 -175 500 -175 495 -169 c 0,0,1
EndSplineSet
EndChar

StartChar: bar
Encoding: 124 124 95
Width: 200
GlyphClass: 1
Flags: W
LayerCount: 2
Fore
SplineSet
0 521 m 128,-1,1
 0 1040 0 1040 21.5 1339 c 128,-1,2
 43 1638 43 1638 80 1638 c 128,-1,3
 117 1638 117 1638 138.5 1339 c 128,-1,4
 160 1040 160 1040 160 521 c 128,-1,5
 160 2 160 2 138.5 -297 c 128,-1,6
 117 -596 117 -596 80 -596 c 128,-1,7
 43 -596 43 -596 21.5 -297 c 128,-1,0
 0 2 0 2 0 521 c 128,-1,1
EndSplineSet
EndChar

StartChar: braceright
Encoding: 125 125 96
Width: 963
GlyphClass: 1
Flags: W
LayerCount: 2
Fore
SplineSet
0 -185 m 128,-1,1
 0 -152 0 -152 23.5 -128.5 c 128,-1,2
 47 -105 47 -105 80 -105 c 128,-1,3
 113 -105 113 -105 136.5 -40 c 128,-1,4
 160 25 160 25 160 116.5 c 128,-1,5
 160 208 160 208 196.5 325 c 128,-1,6
 233 442 233 442 284 515 c 0,7,8
 314 559 314 559 331 586.5 c 128,-1,9
 348 614 348 614 358.5 643.5 c 128,-1,10
 369 673 369 673 369 693 c 128,-1,11
 369 713 369 713 358.5 742.5 c 128,-1,12
 348 772 348 772 331 799.5 c 128,-1,13
 314 827 314 827 284 870 c 0,14,15
 233 943 233 943 196.5 1058.5 c 128,-1,16
 160 1174 160 1174 160 1262.5 c 128,-1,17
 160 1351 160 1351 130.5 1424.5 c 128,-1,18
 101 1498 101 1498 60 1513 c 128,-1,19
 19 1528 19 1528 6.5 1556.5 c 128,-1,20
 -6 1585 -6 1585 18 1611 c 0,21,22
 70 1667 70 1667 150 1611 c 0,23,24
 228 1556 228 1556 278 1438 c 0,25,26
 319 1342 319 1342 319 1247 c 0,27,28
 319 1024 319 1024 529 858 c 0,29,30
 579 819 579 819 600 803 c 128,-1,31
 621 787 621 787 646.5 760 c 128,-1,32
 672 733 672 733 679 724.5 c 128,-1,33
 686 716 686 716 686 693 c 128,-1,34
 686 670 686 670 679 661.5 c 128,-1,35
 672 653 672 653 646.5 626 c 128,-1,36
 621 599 621 599 600 582.5 c 128,-1,37
 579 566 579 566 529 527 c 0,38,39
 428 448 428 448 373.5 348.5 c 128,-1,40
 319 249 319 249 319 144 c 0,41,42
 319 41 319 41 283 -54 c 128,-1,43
 247 -149 247 -149 187.5 -207 c 128,-1,44
 128 -265 128 -265 64 -265 c 0,45,46
 38 -265 38 -265 19 -241.5 c 128,-1,0
 0 -218 0 -218 0 -185 c 128,-1,1
EndSplineSet
EndChar

StartChar: asciitilde
Encoding: 126 126 97
Width: 1511
GlyphClass: 1
Flags: W
LayerCount: 2
Fore
SplineSet
114 788 m 0,0,1
 114 845 114 845 148 893.5 c 128,-1,2
 182 942 182 942 238 973 c 128,-1,3
 294 1004 294 1004 368.5 1020.5 c 128,-1,4
 443 1037 443 1037 521.5 1035 c 128,-1,5
 600 1033 600 1033 682.5 1010 c 128,-1,6
 765 987 765 987 833 944 c 0,7,8
 929 885 929 885 994 886 c 128,-1,9
 1059 887 1059 887 1159 950 c 0,10,11
 1290 1032 1290 1032 1351 1014 c 0,12,13
 1399 1001 1399 1001 1370 933 c 0,14,15
 1353 895 1353 895 1313 846 c 0,16,17
 1253 774 1253 774 1142.5 744.5 c 128,-1,18
 1032 715 1032 715 905 736 c 128,-1,19
 778 757 778 757 672 823 c 0,20,21
 577 882 577 882 513 882 c 128,-1,22
 449 882 449 882 355 823 c 0,23,24
 190 720 190 720 144 729 c 0,25,26
 114 735 114 735 114 788 c 0,0,1
EndSplineSet
EndChar

StartChar: uni007F
Encoding: 127 127 98
Width: 2048
GlyphClass: 2
Flags: W
LayerCount: 2
Fore
SplineSet
409 959 m 0,0,1
 409 1113 409 1113 424 1274 c 0,2,3
 441 1467 441 1467 502 1539 c 0,4,5
 557 1604 557 1604 686 1620 c 0,6,7
 759 1629 759 1629 970 1629 c 0,8,9
 1207 1629 1207 1629 1284 1616 c 0,10,11
 1401 1596 1401 1596 1450 1523 c 0,12,13
 1505 1443 1505 1443 1520 1222 c 0,14,15
 1527 1121 1527 1121 1527 959 c 0,16,17
 1527 496 1527 496 1514 357 c 0,18,19
 1497 164 1497 164 1436 91 c 0,20,21
 1381 27 1381 27 1252 11 c 0,22,23
 1179 2 1179 2 968 2 c 0,24,25
 731 2 731 2 654 15 c 0,26,27
 537 35 537 35 488 108 c 0,28,29
 432 190 432 190 418 409 c 0,30,31
 410 527 410 527 409 959 c 0,0,1
1367 959 m 0,32,33
 1367 1109 1367 1109 1357 1207 c 0,34,35
 1342 1362 1342 1362 1287 1414 c 0,36,37
 1240 1460 1240 1460 1125 1467 c 0,38,39
 1082 1469 1082 1469 970 1469 c 0,40,41
 794 1469 794 1469 737 1456 c 0,42,43
 654 1437 654 1437 620 1369 c 0,44,45
 596 1318 596 1318 574 1056 c 0,46,47
 569 994 569 994 569 959 c 0,48,49
 569 542 569 542 581 424 c 0,50,51
 596 269 596 269 651 217 c 0,52,53
 699 170 699 170 813 164 c 0,54,55
 856 162 856 162 968 162 c 0,56,57
 1144 162 1144 162 1201 174 c 0,58,59
 1284 193 1284 193 1318 262 c 0,60,61
 1357 342 1357 342 1364 575 c 0,62,63
 1367 677 1367 677 1367 959 c 0,32,33
EndSplineSet
EndChar

StartChar: section
Encoding: 167 167 104
Width: 1042
GlyphClass: 1
Flags: W
LayerCount: 2
Fore
SplineSet
113 -90 m 0,0,1
 2 21 2 21 0 108 c 0,2,3
 -2 168 -2 168 49 182 c 0,4,5
 118 201 118 201 225 119 c 0,6,7
 245 104 245 104 265 86 c 0,8,9
 315 41 315 41 371.5 21.5 c 128,-1,10
 428 2 428 2 472.5 9 c 128,-1,11
 517 16 517 16 546.5 49.5 c 128,-1,12
 576 83 576 83 576 136 c 0,13,14
 576 167 576 167 507 224 c 128,-1,15
 438 281 438 281 342 330 c 0,16,17
 244 381 244 381 172.5 453 c 128,-1,18
 101 525 101 525 67.5 601 c 128,-1,19
 34 677 34 677 40 753.5 c 128,-1,20
 46 830 46 830 95 889 c 0,21,22
 146 951 146 951 145 1009 c 128,-1,23
 144 1067 144 1067 89 1154 c 0,24,25
 40 1232 40 1232 31 1306.5 c 128,-1,26
 22 1381 22 1381 50 1441.5 c 128,-1,27
 78 1502 78 1502 143.5 1548.5 c 128,-1,28
 209 1595 209 1595 305 1619 c 0,29,30
 438 1650 438 1650 542 1628 c 128,-1,31
 646 1606 646 1606 715 1531.5 c 128,-1,32
 784 1457 784 1457 801 1343 c 0,33,34
 828 1162 828 1162 757 1181 c 0,35,36
 700 1197 700 1197 581 1343 c 0,37,38
 523 1416 523 1416 455.5 1449.5 c 128,-1,39
 388 1483 388 1483 349 1458 c 0,40,41
 269 1409 269 1409 259.5 1337.5 c 128,-1,42
 250 1266 250 1266 312 1190 c 128,-1,43
 374 1114 374 1114 495 1052 c 0,44,45
 587 1004 587 1004 661 920 c 128,-1,46
 735 836 735 836 771.5 748 c 128,-1,47
 808 660 808 660 805 574 c 128,-1,48
 802 488 802 488 751 437 c 0,49,50
 707 393 707 393 709 336.5 c 128,-1,51
 711 280 711 280 761 198 c 0,52,53
 830 85 830 85 747 -24 c 0,54,55
 677 -117 677 -117 536 -162 c 0,56,57
 375 -213 375 -213 237 -166 c 0,58,59
 164 -141 164 -141 113 -90 c 0,0,1
620 540 m 0,60,61
 637 570 637 570 637 604 c 128,-1,62
 637 638 637 638 619 671 c 128,-1,63
 601 704 601 704 575.5 734 c 128,-1,64
 550 764 550 764 515.5 785 c 128,-1,65
 481 806 481 806 447.5 816.5 c 128,-1,66
 414 827 414 827 381 821.5 c 128,-1,67
 348 816 348 816 324 792 c 0,68,69
 271 739 271 739 273 692.5 c 128,-1,70
 275 646 275 646 334 576 c 0,71,72
 424 467 424 467 494 458.5 c 128,-1,73
 564 450 564 450 620 540 c 0,60,61
EndSplineSet
EndChar

StartChar: copyright
Encoding: 169 169 106
Width: 1950
GlyphClass: 1
Flags: W
LayerCount: 2
Fore
SplineSet
493 -154 m 0,0,1
 382 -94 382 -94 294.5 -1 c 128,-1,2
 207 92 207 92 152 201 c 128,-1,3
 97 310 97 310 68.5 435 c 128,-1,4
 40 560 40 560 41.5 684.5 c 128,-1,5
 43 809 43 809 73.5 933.5 c 128,-1,6
 104 1058 104 1058 161 1166 c 128,-1,7
 218 1274 218 1274 307.5 1365 c 128,-1,8
 397 1456 397 1456 509 1515 c 0,9,10
 636 1580 636 1580 769 1611 c 128,-1,11
 902 1642 902 1642 1025.5 1638 c 128,-1,12
 1149 1634 1149 1634 1267.5 1599 c 128,-1,13
 1386 1564 1386 1564 1487.5 1502.5 c 128,-1,14
 1589 1441 1589 1441 1674.5 1352 c 128,-1,15
 1760 1263 1760 1263 1820.5 1155 c 128,-1,16
 1881 1047 1881 1047 1914.5 915.5 c 128,-1,17
 1948 784 1948 784 1948 641 c 0,18,19
 1948 512 1948 512 1912 391.5 c 128,-1,20
 1876 271 1876 271 1812 171.5 c 128,-1,21
 1748 72 1748 72 1657.5 -11 c 128,-1,22
 1567 -94 1567 -94 1462 -151 c 128,-1,23
 1357 -208 1357 -208 1236 -240.5 c 128,-1,24
 1115 -273 1115 -273 992 -276 c 128,-1,25
 869 -279 869 -279 740 -249 c 128,-1,26
 611 -219 611 -219 493 -154 c 0,0,1
1345 72 m 0,27,28
 1452 117 1452 117 1531 200 c 128,-1,29
 1610 283 1610 283 1650.5 384 c 128,-1,30
 1691 485 1691 485 1697.5 602.5 c 128,-1,31
 1704 720 1704 720 1675.5 832.5 c 128,-1,32
 1647 945 1647 945 1579 1052 c 128,-1,33
 1511 1159 1511 1159 1410 1238 c 0,34,35
 1312 1315 1312 1315 1205.5 1353 c 128,-1,36
 1099 1391 1099 1391 999.5 1390.5 c 128,-1,37
 900 1390 900 1390 803.5 1360.5 c 128,-1,38
 707 1331 707 1331 625 1275.5 c 128,-1,39
 543 1220 543 1220 476 1144 c 128,-1,40
 409 1068 409 1068 364 980 c 128,-1,41
 319 892 319 892 301 792 c 128,-1,42
 283 692 283 692 295 593 c 128,-1,43
 307 494 307 494 357.5 392.5 c 128,-1,44
 408 291 408 291 496 203 c 0,45,46
 565 134 565 134 624.5 88 c 128,-1,47
 684 42 684 42 747.5 12.5 c 128,-1,48
 811 -17 811 -17 872 -26.5 c 128,-1,49
 933 -36 933 -36 1007.5 -27.5 c 128,-1,50
 1082 -19 1082 -19 1162 5.5 c 128,-1,51
 1242 30 1242 30 1345 72 c 0,27,28
677 349 m 0,52,53
 625 447 625 447 603 550 c 128,-1,54
 581 653 581 653 589.5 743.5 c 128,-1,55
 598 834 598 834 633 913 c 128,-1,56
 668 992 668 992 723.5 1046.5 c 128,-1,57
 779 1101 779 1101 858 1128 c 128,-1,58
 937 1155 937 1155 1029 1144 c 0,59,60
 1189 1125 1189 1125 1261 1061 c 0,61,62
 1311 1017 1311 1017 1283 981 c 0,63,64
 1245 931 1245 931 1096 942 c 0,65,66
 1054 945 1054 945 1027 945.5 c 128,-1,67
 1000 946 1000 946 974 942.5 c 128,-1,68
 948 939 948 939 933.5 933 c 128,-1,69
 919 927 919 927 906 911.5 c 128,-1,70
 893 896 893 896 887.5 878.5 c 128,-1,71
 882 861 882 861 877.5 829.5 c 128,-1,72
 873 798 873 798 872 764.5 c 128,-1,73
 871 731 871 731 871 678.5 c 128,-1,74
 871 626 871 626 872 592.5 c 128,-1,75
 873 559 873 559 877.5 527 c 128,-1,76
 882 495 882 495 887.5 478 c 128,-1,77
 893 461 893 461 906 445.5 c 128,-1,78
 919 430 919 430 933.5 424 c 128,-1,79
 948 418 948 418 974 414 c 128,-1,80
 1000 410 1000 410 1027 411 c 128,-1,81
 1054 412 1054 412 1096 415 c 0,82,83
 1249 425 1249 425 1286 377 c 0,84,85
 1312 342 1312 342 1260 298 c 0,86,87
 1183 234 1183 234 1018 216 c 0,88,89
 1014 215 1014 215 1010 215 c 0,90,91
 873 201 873 201 798.5 231.5 c 128,-1,92
 724 262 724 262 677 349 c 0,52,53
EndSplineSet
EndChar

StartChar: registered
Encoding: 174 174 110
Width: 2154
GlyphClass: 1
Flags: W
LayerCount: 2
Fore
SplineSet
266 90 m 0,0,1
 163 192 163 192 98.5 322 c 128,-1,2
 34 452 34 452 12.5 586 c 128,-1,3
 -9 720 -9 720 7.5 859 c 128,-1,4
 24 998 24 998 77 1119 c 128,-1,5
 130 1240 130 1240 222.5 1343 c 128,-1,6
 315 1446 315 1446 438 1509 c 0,7,8
 580 1583 580 1583 729 1614.5 c 128,-1,9
 878 1646 878 1646 1014 1636.5 c 128,-1,10
 1150 1627 1150 1627 1280 1585 c 128,-1,11
 1410 1543 1410 1543 1518.5 1473.5 c 128,-1,12
 1627 1404 1627 1404 1716.5 1310.5 c 128,-1,13
 1806 1217 1806 1217 1866 1109 c 128,-1,14
 1926 1001 1926 1001 1953.5 878.5 c 128,-1,15
 1981 756 1981 756 1971.5 632.5 c 128,-1,16
 1962 509 1962 509 1906 380 c 128,-1,17
 1850 251 1850 251 1750 134 c 0,18,19
 1675 47 1675 47 1557 -16 c 128,-1,20
 1439 -79 1439 -79 1304 -111 c 128,-1,21
 1169 -143 1169 -143 1019 -147.5 c 128,-1,22
 869 -152 869 -152 732 -128 c 128,-1,23
 595 -104 595 -104 471.5 -48 c 128,-1,24
 348 8 348 8 266 90 c 0,0,1
1503 221 m 0,25,26
 1588 306 1588 306 1640.5 407 c 128,-1,27
 1693 508 1693 508 1710 610 c 128,-1,28
 1727 712 1727 712 1714.5 816.5 c 128,-1,29
 1702 921 1702 921 1663 1014.5 c 128,-1,30
 1624 1108 1624 1108 1557.5 1190.5 c 128,-1,31
 1491 1273 1491 1273 1406 1332.5 c 128,-1,32
 1321 1392 1321 1392 1211 1426.5 c 128,-1,33
 1101 1461 1101 1461 981 1461 c 0,34,35
 644 1461 644 1461 453.5 1270.5 c 128,-1,36
 263 1080 263 1080 263 743 c 128,-1,37
 263 406 263 406 453.5 215.5 c 128,-1,38
 644 25 644 25 981 25 c 0,39,40
 1161 25 1161 25 1278 69 c 128,-1,41
 1395 113 1395 113 1503 221 c 0,25,26
622 747 m 0,42,43
 622 1012 622 1012 633 1082 c 0,44,45
 647 1171 647 1171 696 1196 c 0,46,47
 740 1218 740 1218 865 1211 c 0,48,49
 888 1209 888 1209 941 1206 c 0,50,51
 1023 1200 1023 1200 1092 1175 c 128,-1,52
 1161 1150 1161 1150 1209 1113 c 128,-1,53
 1257 1076 1257 1076 1285 1028 c 128,-1,54
 1313 980 1313 980 1317.5 929 c 128,-1,55
 1322 878 1322 878 1299.5 823 c 128,-1,56
 1277 768 1277 768 1228 719 c 0,57,58
 1183 674 1183 674 1193.5 620 c 128,-1,59
 1204 566 1204 566 1274 488 c 0,60,61
 1375 377 1375 377 1366 319 c 0,62,63
 1360 278 1360 278 1301 292 c 0,64,65
 1223 309 1223 309 1115 410 c 0,66,67
 856 654 856 654 832 541 c 0,68,69
 824 503 824 503 844 424 c 0,70,71
 866 340 866 340 845 302 c 128,-1,72
 824 264 824 264 754 264 c 0,73,74
 726 264 726 264 706.5 272 c 128,-1,75
 687 280 687 280 671.5 302 c 128,-1,76
 656 324 656 324 647 357 c 128,-1,77
 638 390 638 390 632 446 c 128,-1,78
 626 502 626 502 624 573 c 128,-1,79
 622 644 622 644 622 747 c 0,42,43
1125 924 m 0,80,81
 1139 995 1139 995 1105.5 1028.5 c 128,-1,82
 1072 1062 1072 1062 986.5 1062 c 128,-1,83
 901 1062 901 1062 861 1022.5 c 128,-1,84
 821 983 821 983 821 897 c 0,85,86
 821 800 821 800 888.5 766.5 c 128,-1,87
 956 733 956 733 1031 779 c 128,-1,88
 1106 825 1106 825 1125 924 c 0,80,81
EndSplineSet
EndChar

StartChar: questiondown
Encoding: 191 191 127
Width: 1051
GlyphClass: 1
Flags: W
LayerCount: 2
Fore
SplineSet
600 1494 m 0,0,1
 620 1462 620 1462 620.5 1427.5 c 128,-1,2
 621 1393 621 1393 606 1365 c 128,-1,3
 591 1337 591 1337 565.5 1315.5 c 128,-1,4
 540 1294 540 1294 510 1285 c 128,-1,5
 480 1276 480 1276 447 1284 c 128,-1,6
 414 1292 414 1292 387 1318 c 0,7,8
 354 1352 354 1352 345.5 1398 c 128,-1,9
 337 1444 337 1444 350.5 1484 c 128,-1,10
 364 1524 364 1524 397.5 1552.5 c 128,-1,11
 431 1581 431 1581 476 1581 c 0,12,13
 505 1581 505 1581 541.5 1555.5 c 128,-1,14
 578 1530 578 1530 600 1494 c 0,0,1
582 1049 m 0,15,16
 658 973 658 973 620.5 852.5 c 128,-1,17
 583 732 583 732 425 545 c 0,18,19
 292 387 292 387 282 265 c 0,20,21
 274 174 274 174 339 150 c 0,22,23
 420 121 420 121 566 212 c 0,24,25
 709 301 709 301 764 271 c 128,-1,26
 819 241 819 241 766 103 c 0,27,28
 739 34 739 34 661 10.5 c 128,-1,29
 583 -13 583 -13 425 0 c 0,30,31
 296 11 296 11 199 52.5 c 128,-1,32
 102 94 102 94 52.5 153.5 c 128,-1,33
 3 213 3 213 3 289.5 c 128,-1,34
 3 366 3 366 59 444 c 0,35,36
 101 501 101 501 165.5 618.5 c 128,-1,37
 230 736 230 736 279 843 c 0,38,39
 367 1034 367 1034 435.5 1080.5 c 128,-1,40
 504 1127 504 1127 582 1049 c 0,15,16
EndSplineSet
EndChar

StartChar: Agrave
Encoding: 192 192 128
Width: 1986
GlyphClass: 1
Flags: W
LayerCount: 2
Fore
SplineSet
162 -63 m 0,0,1
 75 79 75 79 33 225.5 c 128,-1,2
 -9 372 -9 372 -6 507.5 c 128,-1,3
 -3 643 -3 643 40 772 c 128,-1,4
 83 901 83 901 161 1011 c 128,-1,5
 239 1121 239 1121 353.5 1213.5 c 128,-1,6
 468 1306 468 1306 608 1371 c 128,-1,7
 748 1436 748 1436 920 1473 c 128,-1,8
 1092 1510 1092 1510 1280 1511 c 0,9,10
 1440 1512 1440 1512 1491 1499 c 0,11,12
 1566 1481 1566 1481 1596 1413 c 0,13,14
 1631 1334 1631 1334 1637 1095 c 0,15,16
 1639 1003 1639 1003 1639 755 c 0,17,18
 1639 312 1639 312 1628 200 c 0,19,20
 1615 66 1615 66 1569 27 c 0,21,22
 1536 -1 1536 -1 1446 -3 c 0,23,24
 1430 -4 1430 -4 1393 -4 c 0,25,26
 1346 -4 1346 -4 1317 -3 c 128,-1,27
 1288 -2 1288 -2 1260 3 c 128,-1,28
 1232 8 1232 8 1217.5 13.5 c 128,-1,29
 1203 19 1203 19 1191 33 c 128,-1,30
 1179 47 1179 47 1175 62 c 128,-1,31
 1171 77 1171 77 1170.5 105 c 128,-1,32
 1170 133 1170 133 1173 161.5 c 128,-1,33
 1176 190 1176 190 1183 236 c 0,34,35
 1201 361 1201 361 1194 396 c 0,36,37
 1186 443 1186 443 1133 458 c 0,38,39
 1078 475 1078 475 874 475 c 0,40,41
 854 475 854 475 810 475 c 0,42,43
 723 475 723 475 662.5 472.5 c 128,-1,44
 602 470 602 470 552 461 c 128,-1,45
 502 452 502 452 473 439.5 c 128,-1,46
 444 427 444 427 427.5 404 c 128,-1,47
 411 381 411 381 410 353.5 c 128,-1,48
 409 326 409 326 421.5 283.5 c 128,-1,49
 434 241 434 241 457 192.5 c 128,-1,50
 480 144 480 144 518 77 c 0,51,52
 576 -29 576 -29 582.5 -99.5 c 128,-1,53
 589 -170 589 -170 545 -223 c 0,54,55
 495 -283 495 -283 454.5 -304 c 128,-1,56
 414 -325 414 -325 369 -306 c 128,-1,57
 324 -287 324 -287 276 -229 c 128,-1,58
 228 -171 228 -171 162 -63 c 0,0,1
1200 994 m 0,59,60
 1200 1327 1200 1327 1053.5 1359.5 c 128,-1,61
 907 1392 907 1392 635 1120 c 0,62,63
 545 1029 545 1029 490.5 960 c 128,-1,64
 436 891 436 891 414 836 c 128,-1,65
 392 781 392 781 405 743.5 c 128,-1,66
 418 706 418 706 467 681.5 c 128,-1,67
 516 657 516 657 598 646 c 128,-1,68
 680 635 680 635 801 635 c 0,69,70
 1014 635 1014 635 1073 646 c 0,71,72
 1150 661 1150 661 1175 714 c 0,73,74
 1198 762 1198 762 1200 911 c 0,75,76
 1200 936 1200 936 1200 994 c 0,59,60
836 1865 m 0,77,78
 772 1912 772 1912 741.5 1959.5 c 128,-1,79
 711 2007 711 2007 731 2028 c 0,80,81
 746 2044 746 2044 787 2040 c 128,-1,82
 828 2036 828 2036 880 2021.5 c 128,-1,83
 932 2007 932 2007 988.5 1980.5 c 128,-1,84
 1045 1954 1045 1954 1092 1927 c 128,-1,85
 1139 1900 1139 1900 1169.5 1870.5 c 128,-1,86
 1200 1841 1200 1841 1200 1819 c 0,87,88
 1200 1761 1200 1761 1128 1755 c 0,89,90
 1037 1747 1037 1747 909 1818 c 0,91,92
 872 1839 872 1839 836 1865 c 0,77,78
EndSplineSet
EndChar

StartChar: Aacute
Encoding: 193 193 129
Width: 2020
GlyphClass: 1
Flags: W
LayerCount: 2
Fore
SplineSet
171 -49 m 0,0,1
 84 93 84 93 42.5 239.5 c 128,-1,2
 1 386 1 386 3.5 521.5 c 128,-1,3
 6 657 6 657 49 786.5 c 128,-1,4
 92 916 92 916 170.5 1026 c 128,-1,5
 249 1136 249 1136 363 1228.5 c 128,-1,6
 477 1321 477 1321 617 1386 c 128,-1,7
 757 1451 757 1451 929 1487.5 c 128,-1,8
 1101 1524 1101 1524 1289 1525 c 0,9,10
 1450 1526 1450 1526 1501 1514 c 0,11,12
 1575 1495 1575 1495 1605 1428 c 0,13,14
 1641 1349 1641 1349 1646 1109 c 0,15,16
 1648 1017 1648 1017 1648 769 c 0,17,18
 1648 326 1648 326 1637 214 c 0,19,20
 1624 80 1624 80 1579 42 c 0,21,22
 1545 13 1545 13 1456 11 c 0,23,24
 1439 11 1439 11 1403 11 c 0,25,26
 1356 11 1356 11 1326.5 12 c 128,-1,27
 1297 13 1297 13 1269.5 17.5 c 128,-1,28
 1242 22 1242 22 1227.5 28 c 128,-1,29
 1213 34 1213 34 1200.5 48 c 128,-1,30
 1188 62 1188 62 1184 77 c 128,-1,31
 1180 92 1180 92 1179.5 120 c 128,-1,32
 1179 148 1179 148 1182.5 176.5 c 128,-1,33
 1186 205 1186 205 1192 250 c 0,34,35
 1211 375 1211 375 1204 410 c 0,36,37
 1195 457 1195 457 1142 473 c 0,38,39
 1088 489 1088 489 883 490 c 0,40,41
 863 490 863 490 819 490 c 0,42,43
 732 490 732 490 671.5 487 c 128,-1,44
 611 484 611 484 561 475.5 c 128,-1,45
 511 467 511 467 482.5 454.5 c 128,-1,46
 454 442 454 442 437 419 c 128,-1,47
 420 396 420 396 419.5 368.5 c 128,-1,48
 419 341 419 341 431.5 298 c 128,-1,49
 444 255 444 255 467 207 c 128,-1,50
 490 159 490 159 527 91 c 0,51,52
 585 -14 585 -14 591.5 -85 c 128,-1,53
 598 -156 598 -156 555 -208 c 0,54,55
 505 -268 505 -268 464.5 -289 c 128,-1,56
 424 -310 424 -310 378.5 -291 c 128,-1,57
 333 -272 333 -272 285 -214.5 c 128,-1,58
 237 -157 237 -157 171 -49 c 0,0,1
1209 1008 m 0,59,60
 1209 1341 1209 1341 1063 1373.5 c 128,-1,61
 917 1406 917 1406 645 1134 c 0,62,63
 554 1044 554 1044 499.5 974.5 c 128,-1,64
 445 905 445 905 423 850.5 c 128,-1,65
 401 796 401 796 414 758.5 c 128,-1,66
 427 721 427 721 476 696 c 128,-1,67
 525 671 525 671 607 660 c 128,-1,68
 689 649 689 649 810 649 c 0,69,70
 1024 649 1024 649 1083 661 c 0,71,72
 1159 676 1159 676 1184 728 c 0,73,74
 1208 777 1208 777 1209 926 c 0,75,76
 1209 951 1209 951 1209 1008 c 0,59,60
810 1833 m 0,77,78
 810 1855 810 1855 840.5 1884.5 c 128,-1,79
 871 1914 871 1914 918 1941.5 c 128,-1,80
 965 1969 965 1969 1021.5 1995 c 128,-1,81
 1078 2021 1078 2021 1130 2036 c 128,-1,82
 1182 2051 1182 2051 1223 2055 c 128,-1,83
 1264 2059 1264 2059 1279 2042 c 0,84,85
 1297 2025 1297 2025 1279 1990.5 c 128,-1,86
 1261 1956 1261 1956 1218 1918.5 c 128,-1,87
 1175 1881 1175 1881 1122.5 1846 c 128,-1,88
 1070 1811 1070 1811 1013 1788.5 c 128,-1,89
 956 1766 956 1766 915 1766 c 0,90,91
 872 1766 872 1766 841 1786 c 128,-1,92
 810 1806 810 1806 810 1833 c 0,77,78
EndSplineSet
EndChar

StartChar: Acircumflex
Encoding: 194 194 130
Width: 1948
GlyphClass: 1
Flags: W
LayerCount: 2
Fore
SplineSet
179 -53 m 0,0,1
 93 89 93 89 51 235.5 c 128,-1,2
 9 382 9 382 12 517.5 c 128,-1,3
 15 653 15 653 58 782 c 128,-1,4
 101 911 101 911 179 1021 c 128,-1,5
 257 1131 257 1131 371.5 1223.5 c 128,-1,6
 486 1316 486 1316 625.5 1381 c 128,-1,7
 765 1446 765 1446 937 1483 c 128,-1,8
 1109 1520 1109 1520 1297 1521 c 0,9,10
 1458 1522 1458 1522 1509 1509 c 0,11,12
 1584 1491 1584 1491 1614 1423 c 0,13,14
 1649 1344 1649 1344 1654 1105 c 0,15,16
 1656 1013 1656 1013 1656 765 c 0,17,18
 1656 322 1656 322 1645 210 c 0,19,20
 1632 76 1632 76 1587 37 c 0,21,22
 1553 9 1553 9 1464 7 c 0,23,24
 1448 6 1448 6 1411 6 c 0,25,26
 1364 6 1364 6 1335 7 c 128,-1,27
 1306 8 1306 8 1278 13 c 128,-1,28
 1250 18 1250 18 1235.5 23.5 c 128,-1,29
 1221 29 1221 29 1208.5 43 c 128,-1,30
 1196 57 1196 57 1192.5 72 c 128,-1,31
 1189 87 1189 87 1188 115 c 128,-1,32
 1187 143 1187 143 1190.5 171.5 c 128,-1,33
 1194 200 1194 200 1201 246 c 0,34,35
 1219 371 1219 371 1212 406 c 0,36,37
 1203 453 1203 453 1150 468 c 0,38,39
 1096 485 1096 485 891 485 c 0,40,41
 871 485 871 485 828 485 c 0,42,43
 741 485 741 485 680.5 482.5 c 128,-1,44
 620 480 620 480 569.5 471 c 128,-1,45
 519 462 519 462 490.5 449.5 c 128,-1,46
 462 437 462 437 445.5 414 c 128,-1,47
 429 391 429 391 428 363.5 c 128,-1,48
 427 336 427 336 439.5 293.5 c 128,-1,49
 452 251 452 251 475 202.5 c 128,-1,50
 498 154 498 154 536 86 c 0,51,52
 594 -19 594 -19 600.5 -89.5 c 128,-1,53
 607 -160 607 -160 563 -213 c 0,54,55
 513 -273 513 -273 472.5 -294 c 128,-1,56
 432 -315 432 -315 386.5 -296 c 128,-1,57
 341 -277 341 -277 293 -219 c 128,-1,58
 245 -161 245 -161 179 -53 c 0,0,1
1218 1004 m 0,59,60
 1218 1337 1218 1337 1071.5 1369.5 c 128,-1,61
 925 1402 925 1402 653 1130 c 0,62,63
 563 1039 563 1039 508 970 c 128,-1,64
 453 901 453 901 431.5 846 c 128,-1,65
 410 791 410 791 422.5 753.5 c 128,-1,66
 435 716 435 716 484 691.5 c 128,-1,67
 533 667 533 667 615.5 656 c 128,-1,68
 698 645 698 645 819 645 c 0,69,70
 1032 645 1032 645 1091 656 c 0,71,72
 1168 671 1168 671 1193 724 c 0,73,74
 1216 772 1216 772 1217 921 c 0,75,76
 1218 946 1218 946 1218 1004 c 0,59,60
499 1921.5 m 128,-1,78
 499 2081 499 2081 659 2081 c 128,-1,79
 819 2081 819 2081 819 1921.5 c 128,-1,80
 819 1762 819 1762 659 1762 c 128,-1,77
 499 1762 499 1762 499 1921.5 c 128,-1,78
1138 1921.5 m 128,-1,82
 1138 2081 1138 2081 1297.5 2081 c 128,-1,83
 1457 2081 1457 2081 1457 1921.5 c 128,-1,84
 1457 1762 1457 1762 1297.5 1762 c 128,-1,81
 1138 1762 1138 1762 1138 1921.5 c 128,-1,82
EndSplineSet
EndChar

StartChar: Atilde
Encoding: 195 195 131
Width: 1952
GlyphClass: 1
Flags: W
LayerCount: 2
Fore
SplineSet
168 -57 m 0,0,1
 81 85 81 85 39 232 c 128,-1,2
 -3 379 -3 379 0 514.5 c 128,-1,3
 3 650 3 650 46 779 c 128,-1,4
 89 908 89 908 167 1018 c 128,-1,5
 245 1128 245 1128 359.5 1220.5 c 128,-1,6
 474 1313 474 1313 614 1378 c 128,-1,7
 754 1443 754 1443 926 1480 c 128,-1,8
 1098 1517 1098 1517 1286 1518 c 0,9,10
 1447 1518 1447 1518 1497 1506 c 0,11,12
 1572 1487 1572 1487 1602 1420 c 0,13,14
 1637 1341 1637 1341 1643 1101 c 0,15,16
 1645 1010 1645 1010 1645 761 c 0,17,18
 1645 319 1645 319 1634 207 c 0,19,20
 1621 72 1621 72 1575 34 c 0,21,22
 1542 6 1542 6 1452 4 c 0,23,24
 1436 3 1436 3 1399 3 c 0,25,26
 1352 3 1352 3 1323 4 c 128,-1,27
 1294 5 1294 5 1266 9.5 c 128,-1,28
 1238 14 1238 14 1223.5 20 c 128,-1,29
 1209 26 1209 26 1197 40 c 128,-1,30
 1185 54 1185 54 1181 69 c 128,-1,31
 1177 84 1177 84 1176.5 112 c 128,-1,32
 1176 140 1176 140 1179 168.5 c 128,-1,33
 1182 197 1182 197 1189 243 c 0,34,35
 1207 367 1207 367 1200 403 c 0,36,37
 1192 449 1192 449 1139 465 c 0,38,39
 1084 482 1084 482 880 482 c 0,40,41
 860 482 860 482 816 482 c 0,42,43
 729 482 729 482 668.5 479 c 128,-1,44
 608 476 608 476 558 467.5 c 128,-1,45
 508 459 508 459 479.5 446.5 c 128,-1,46
 451 434 451 434 434 411 c 128,-1,47
 417 388 417 388 416 360.5 c 128,-1,48
 415 333 415 333 427.5 290 c 128,-1,49
 440 247 440 247 463 199 c 128,-1,50
 486 151 486 151 524 83 c 0,51,52
 582 -22 582 -22 588.5 -92.5 c 128,-1,53
 595 -163 595 -163 551 -216 c 0,54,55
 501 -276 501 -276 460.5 -297 c 128,-1,56
 420 -318 420 -318 375 -299 c 128,-1,57
 330 -280 330 -280 282 -222.5 c 128,-1,58
 234 -165 234 -165 168 -57 c 0,0,1
1206 1001 m 0,59,60
 1206 1333 1206 1333 1059.5 1366 c 128,-1,61
 913 1399 913 1399 641 1126 c 0,62,63
 551 1036 551 1036 496.5 966.5 c 128,-1,64
 442 897 442 897 420 842.5 c 128,-1,65
 398 788 398 788 411 750.5 c 128,-1,66
 424 713 424 713 473 688.5 c 128,-1,67
 522 664 522 664 604 653 c 128,-1,68
 686 642 686 642 807 642 c 0,69,70
 1020 642 1020 642 1079 653 c 0,71,72
 1156 668 1156 668 1181 721 c 0,73,74
 1204 769 1204 769 1206 918 c 0,75,76
 1206 943 1206 943 1206 1001 c 0,59,60
408 1743 m 0,77,78
 408 1798 408 1798 442 1845.5 c 128,-1,79
 476 1893 476 1893 529.5 1925 c 128,-1,80
 583 1957 583 1957 652.5 1974.5 c 128,-1,81
 722 1992 722 1992 790 1991 c 128,-1,82
 858 1990 858 1990 923.5 1967 c 128,-1,83
 989 1944 989 1944 1032 1900 c 0,84,85
 1090 1843 1090 1843 1144 1844 c 128,-1,86
 1198 1845 1198 1845 1295 1906 c 0,87,88
 1425 1987 1425 1987 1486 1969 c 0,89,90
 1533 1955 1533 1955 1504 1888 c 0,91,92
 1487 1849 1487 1849 1447 1801 c 0,93,94
 1388 1729 1388 1729 1284 1699.5 c 128,-1,95
 1180 1670 1180 1670 1073.5 1690.5 c 128,-1,96
 967 1711 967 1711 901 1777 c 0,97,98
 843 1835 843 1835 791 1835 c 128,-1,99
 739 1835 739 1835 646 1777 c 0,100,101
 482 1674 482 1674 437 1684 c 0,102,103
 408 1691 408 1691 408 1743 c 0,77,78
EndSplineSet
EndChar

StartChar: Adieresis
Encoding: 196 196 132
Width: 1984
GlyphClass: 1
Flags: W
LayerCount: 2
Fore
SplineSet
165 -56 m 0,0,1
 78 86 78 86 36 232.5 c 128,-1,2
 -6 379 -6 379 -3 514.5 c 128,-1,3
 0 650 0 650 43 779 c 128,-1,4
 86 908 86 908 164 1018 c 128,-1,5
 242 1128 242 1128 356.5 1220.5 c 128,-1,6
 471 1313 471 1313 611 1378.5 c 128,-1,7
 751 1444 751 1444 923 1480.5 c 128,-1,8
 1095 1517 1095 1517 1283 1518 c 0,9,10
 1444 1519 1444 1519 1495 1506 c 0,11,12
 1569 1488 1569 1488 1599 1420 c 0,13,14
 1634 1341 1634 1341 1640 1102 c 0,15,16
 1642 1010 1642 1010 1642 762 c 0,17,18
 1642 319 1642 319 1631 207 c 0,19,20
 1618 73 1618 73 1572 34 c 0,21,22
 1539 6 1539 6 1449 4 c 0,23,24
 1433 4 1433 4 1396 4 c 0,25,26
 1349 4 1349 4 1320 4.5 c 128,-1,27
 1291 5 1291 5 1263 10 c 128,-1,28
 1235 15 1235 15 1220.5 20.5 c 128,-1,29
 1206 26 1206 26 1194 40.5 c 128,-1,30
 1182 55 1182 55 1178 70 c 128,-1,31
 1174 85 1174 85 1173.5 112.5 c 128,-1,32
 1173 140 1173 140 1176 168.5 c 128,-1,33
 1179 197 1179 197 1186 243 c 0,34,35
 1204 368 1204 368 1198 403 c 0,36,37
 1189 450 1189 450 1136 466 c 0,38,39
 1082 482 1082 482 877 482 c 0,40,41
 857 482 857 482 813 482 c 0,42,43
 726 482 726 482 665.5 479.5 c 128,-1,44
 605 477 605 477 555 468 c 128,-1,45
 505 459 505 459 476.5 446.5 c 128,-1,46
 448 434 448 434 431 411.5 c 128,-1,47
 414 389 414 389 413 361 c 128,-1,48
 412 333 412 333 424.5 290.5 c 128,-1,49
 437 248 437 248 460.5 199.5 c 128,-1,50
 484 151 484 151 521 84 c 0,51,52
 579 -21 579 -21 585.5 -92 c 128,-1,53
 592 -163 592 -163 548 -216 c 0,54,55
 498 -276 498 -276 457.5 -296.5 c 128,-1,56
 417 -317 417 -317 372 -298.5 c 128,-1,57
 327 -280 327 -280 279 -222 c 128,-1,58
 231 -164 231 -164 165 -56 c 0,0,1
1203 1001 m 0,59,60
 1203 1334 1203 1334 1056.5 1366.5 c 128,-1,61
 910 1399 910 1399 638 1127 c 0,62,63
 548 1037 548 1037 493.5 967.5 c 128,-1,64
 439 898 439 898 417 843 c 128,-1,65
 395 788 395 788 408 750.5 c 128,-1,66
 421 713 421 713 470 688.5 c 128,-1,67
 519 664 519 664 601 653 c 128,-1,68
 683 642 683 642 804 642 c 0,69,70
 1018 642 1018 642 1077 654 c 0,71,72
 1153 669 1153 669 1178 721 c 0,73,74
 1201 770 1201 770 1203 918 c 0,75,76
 1203 944 1203 944 1203 1001 c 0,59,60
485 1918.5 m 128,-1,78
 485 2078 485 2078 644.5 2078 c 128,-1,79
 804 2078 804 2078 804 1918.5 c 128,-1,80
 804 1759 804 1759 644.5 1759 c 128,-1,77
 485 1759 485 1759 485 1918.5 c 128,-1,78
1123 1918.5 m 128,-1,82
 1123 2078 1123 2078 1282.5 2078 c 128,-1,83
 1442 2078 1442 2078 1442 1918.5 c 128,-1,84
 1442 1759 1442 1759 1282.5 1759 c 128,-1,81
 1123 1759 1123 1759 1123 1918.5 c 128,-1,82
EndSplineSet
EndChar

StartChar: Aring
Encoding: 197 197 133
Width: 1952
GlyphClass: 1
Flags: W
LayerCount: 2
Fore
SplineSet
173 -52 m 0,0,1
 86 90 86 90 44 236.5 c 128,-1,2
 2 383 2 383 5 518.5 c 128,-1,3
 8 654 8 654 51 783 c 128,-1,4
 94 912 94 912 172 1022 c 128,-1,5
 250 1132 250 1132 364.5 1224.5 c 128,-1,6
 479 1317 479 1317 619 1382.5 c 128,-1,7
 759 1448 759 1448 931 1484.5 c 128,-1,8
 1103 1521 1103 1521 1291 1522 c 0,9,10
 1452 1523 1452 1523 1503 1510 c 0,11,12
 1577 1492 1577 1492 1607 1424 c 0,13,14
 1642 1345 1642 1345 1648 1106 c 0,15,16
 1650 1014 1650 1014 1650 766 c 0,17,18
 1650 323 1650 323 1639 211 c 0,19,20
 1626 77 1626 77 1580 38 c 0,21,22
 1547 10 1547 10 1457 8 c 0,23,24
 1441 8 1441 8 1404 8 c 0,25,26
 1357 8 1357 8 1328 8.5 c 128,-1,27
 1299 9 1299 9 1271 14 c 128,-1,28
 1243 19 1243 19 1228.5 24.5 c 128,-1,29
 1214 30 1214 30 1202 44.5 c 128,-1,30
 1190 59 1190 59 1186 74 c 128,-1,31
 1182 89 1182 89 1181.5 116.5 c 128,-1,32
 1181 144 1181 144 1184 172.5 c 128,-1,33
 1187 201 1187 201 1194 247 c 0,34,35
 1212 372 1212 372 1206 407 c 0,36,37
 1197 454 1197 454 1144 470 c 0,38,39
 1090 486 1090 486 885 486 c 0,40,41
 865 486 865 486 821 486 c 0,42,43
 734 486 734 486 673.5 483.5 c 128,-1,44
 613 481 613 481 563 472 c 128,-1,45
 513 463 513 463 484.5 450.5 c 128,-1,46
 456 438 456 438 439 415.5 c 128,-1,47
 422 393 422 393 421 365 c 128,-1,48
 420 337 420 337 432.5 294.5 c 128,-1,49
 445 252 445 252 468.5 203.5 c 128,-1,50
 492 155 492 155 529 88 c 0,51,52
 587 -17 587 -17 593.5 -88 c 128,-1,53
 600 -159 600 -159 556 -212 c 0,54,55
 506 -272 506 -272 465.5 -292.5 c 128,-1,56
 425 -313 425 -313 380 -294.5 c 128,-1,57
 335 -276 335 -276 287 -218 c 128,-1,58
 239 -160 239 -160 173 -52 c 0,0,1
1211 1005 m 0,59,60
 1211 1338 1211 1338 1064.5 1370.5 c 128,-1,61
 918 1403 918 1403 646 1131 c 0,62,63
 556 1041 556 1041 501.5 971.5 c 128,-1,64
 447 902 447 902 425 847 c 128,-1,65
 403 792 403 792 416 754.5 c 128,-1,66
 429 717 429 717 478 692.5 c 128,-1,67
 527 668 527 668 609 657 c 128,-1,68
 691 646 691 646 812 646 c 0,69,70
 1026 646 1026 646 1085 658 c 0,71,72
 1161 673 1161 673 1186 725 c 0,73,74
 1209 774 1209 774 1211 922 c 0,75,76
 1211 948 1211 948 1211 1005 c 0,59,60
771 1845 m 0,77,78
 747 1883 747 1883 754 1933.5 c 128,-1,79
 761 1984 761 1984 795 2017 c 0,80,81
 827 2050 827 2050 876.5 2064.5 c 128,-1,82
 926 2079 926 2079 976 2073 c 128,-1,83
 1026 2067 1026 2067 1070.5 2049 c 128,-1,84
 1115 2031 1115 2031 1143 1997 c 128,-1,85
 1171 1963 1171 1963 1171 1921.5 c 128,-1,86
 1171 1880 1171 1880 1137.5 1846 c 128,-1,87
 1104 1812 1104 1812 1052.5 1795.5 c 128,-1,88
 1001 1779 1001 1779 946 1775.5 c 128,-1,89
 891 1772 891 1772 842 1790 c 128,-1,90
 793 1808 793 1808 771 1845 c 0,77,78
1051 1923 m 128,-1,92
 1051 1956 1051 1956 1028 1979.5 c 128,-1,93
 1005 2003 1005 2003 972 2003 c 128,-1,94
 939 2003 939 2003 915.5 1979.5 c 128,-1,95
 892 1956 892 1956 892 1923 c 128,-1,96
 892 1890 892 1890 915.5 1866.5 c 128,-1,97
 939 1843 939 1843 972 1843 c 128,-1,98
 1005 1843 1005 1843 1028 1866.5 c 128,-1,91
 1051 1890 1051 1890 1051 1923 c 128,-1,92
EndSplineSet
EndChar

StartChar: Ccedilla
Encoding: 199 199 134
Width: 2008
GlyphClass: 1
Flags: W
LayerCount: 2
Fore
SplineSet
983 -378 m 0,0,1
 1080 -353 1080 -353 1111 -296 c 0,2,3
 1136 -250 1136 -250 1098 -219 c 0,4,5
 1066 -194 1066 -194 1003 -194 c 0,6,7
 954 -194 954 -194 919 -161.5 c 128,-1,8
 884 -129 884 -129 884 -84 c 128,-1,9
 884 -39 884 -39 813 7.5 c 128,-1,10
 742 54 742 54 642 74 c 0,11,12
 518 99 518 99 409 160 c 128,-1,13
 300 221 300 221 220.5 305 c 128,-1,14
 141 389 141 389 87.5 494.5 c 128,-1,15
 34 600 34 600 14.5 711.5 c 128,-1,16
 -5 823 -5 823 13 941.5 c 128,-1,17
 31 1060 31 1060 88 1167 c 0,18,19
 132 1249 132 1249 219.5 1320 c 128,-1,20
 307 1391 307 1391 417 1441 c 128,-1,21
 527 1491 527 1491 656.5 1522.5 c 128,-1,22
 786 1554 786 1554 912 1560.5 c 128,-1,23
 1038 1567 1038 1567 1159.5 1546 c 128,-1,24
 1281 1525 1281 1525 1373 1476 c 0,25,26
 1460 1430 1460 1430 1522 1432 c 128,-1,27
 1584 1434 1584 1434 1647 1486 c 0,28,29
 1672 1507 1672 1507 1688.5 1517 c 128,-1,30
 1705 1527 1705 1527 1718.5 1527 c 128,-1,31
 1732 1527 1732 1527 1740 1516.5 c 128,-1,32
 1748 1506 1748 1506 1753 1481 c 128,-1,33
 1758 1456 1758 1456 1759.5 1421 c 128,-1,34
 1761 1386 1761 1386 1761 1332 c 0,35,36
 1761 1285 1761 1285 1760.5 1252.5 c 128,-1,37
 1760 1220 1760 1220 1756.5 1190.5 c 128,-1,38
 1753 1161 1753 1161 1748.5 1143.5 c 128,-1,39
 1744 1126 1744 1126 1734 1113.5 c 128,-1,40
 1724 1101 1724 1101 1713.5 1097.5 c 128,-1,41
 1703 1094 1703 1094 1684.5 1098 c 128,-1,42
 1666 1102 1666 1102 1647 1112.5 c 128,-1,43
 1628 1123 1628 1123 1598 1142.5 c 128,-1,44
 1568 1162 1568 1162 1537.5 1185 c 128,-1,45
 1507 1208 1507 1208 1464 1242 c 0,46,47
 1353 1329 1353 1329 1234.5 1371.5 c 128,-1,48
 1116 1414 1116 1414 1009 1411.5 c 128,-1,49
 902 1409 902 1409 805 1365.5 c 128,-1,50
 708 1322 708 1322 637.5 1245 c 128,-1,51
 567 1168 567 1168 526 1054 c 128,-1,52
 485 940 485 940 485 804 c 0,53,54
 485 672 485 672 521 562.5 c 128,-1,55
 557 453 557 453 621 377 c 128,-1,56
 685 301 685 301 775.5 256 c 128,-1,57
 866 211 866 211 971 202 c 128,-1,58
 1076 193 1076 193 1197.5 223.5 c 128,-1,59
 1319 254 1319 254 1442 325 c 0,60,61
 1524 372 1524 372 1606.5 405.5 c 128,-1,62
 1689 439 1689 439 1721 440 c 0,63,64
 1769 440 1769 440 1690 363 c 0,65,66
 1601 274 1601 274 1468 192 c 0,67,68
 1366 127 1366 127 1322 126 c 0,69,70
 1256 123 1256 123 1203 106 c 128,-1,71
 1150 89 1150 89 1121 61 c 128,-1,72
 1092 33 1092 33 1082.5 0 c 128,-1,73
 1073 -33 1073 -33 1092 -69.5 c 128,-1,74
 1111 -106 1111 -106 1155.5 -138.5 c 128,-1,75
 1200 -171 1200 -171 1225.5 -207 c 128,-1,76
 1251 -243 1251 -243 1255.5 -275 c 128,-1,77
 1260 -307 1260 -307 1246 -336 c 128,-1,78
 1232 -365 1232 -365 1202.5 -385.5 c 128,-1,79
 1173 -406 1173 -406 1125 -416.5 c 128,-1,80
 1077 -427 1077 -427 1019 -424 c 0,81,82
 910 -418 910 -418 909 -407 c 0,83,84
 909 -398 909 -398 983 -378 c 0,0,1
EndSplineSet
EndChar

StartChar: Egrave
Encoding: 200 200 135
Width: 2008
GlyphClass: 1
Flags: W
LayerCount: 2
Fore
SplineSet
36 89 m 0,0,1
 71 110 71 110 94 139.5 c 128,-1,2
 117 169 117 169 134 215.5 c 128,-1,3
 151 262 151 262 159.5 338 c 128,-1,4
 168 414 168 414 172 513 c 128,-1,5
 176 612 176 612 176 761 c 128,-1,6
 176 910 176 910 172 1009.5 c 128,-1,7
 168 1109 168 1109 159.5 1184.5 c 128,-1,8
 151 1260 151 1260 134 1306.5 c 128,-1,9
 117 1353 117 1353 94 1382.5 c 128,-1,10
 71 1412 71 1412 36 1433 c 0,11,12
 -32 1473 -32 1473 73 1492 c 0,13,14
 204 1515 204 1515 675 1517 c 0,15,16
 1144 1518 1144 1518 1258 1508 c 0,17,18
 1391 1496 1391 1496 1426 1453 c 0,19,20
 1451 1424 1451 1424 1452 1344 c 0,21,22
 1453 1333 1453 1333 1453 1307 c 0,23,24
 1453 1274 1453 1274 1452.5 1253 c 128,-1,25
 1452 1232 1452 1232 1450.5 1210.5 c 128,-1,26
 1449 1189 1449 1189 1447.5 1177.5 c 128,-1,27
 1446 1166 1446 1166 1441 1157 c 128,-1,28
 1436 1148 1436 1148 1431.5 1145.5 c 128,-1,29
 1427 1143 1427 1143 1417.5 1144.5 c 128,-1,30
 1408 1146 1408 1146 1399 1151.5 c 128,-1,31
 1390 1157 1390 1157 1374.5 1169 c 128,-1,32
 1359 1181 1359 1181 1344.5 1194 c 128,-1,33
 1330 1207 1330 1207 1307 1227 c 0,34,35
 1241 1287 1241 1287 1159 1323.5 c 128,-1,36
 1077 1360 1077 1360 997 1371 c 128,-1,37
 917 1382 917 1382 840 1371 c 128,-1,38
 763 1360 763 1360 704.5 1328.5 c 128,-1,39
 646 1297 646 1297 610.5 1243 c 128,-1,40
 575 1189 575 1189 575 1120 c 0,41,42
 575 1068 575 1068 578 1032.5 c 128,-1,43
 581 997 581 997 589.5 969 c 128,-1,44
 598 941 598 941 611 925 c 128,-1,45
 624 909 624 909 647 898.5 c 128,-1,46
 670 888 670 888 698.5 884.5 c 128,-1,47
 727 881 727 881 770 881 c 0,48,49
 850 881 850 881 921.5 857.5 c 128,-1,50
 993 834 993 834 1014 801 c 0,51,52
 1038 761 1038 761 966 739 c 0,53,54
 912 721 912 721 819 721 c 0,55,56
 772 721 772 721 743 720 c 128,-1,57
 714 719 714 719 685.5 713.5 c 128,-1,58
 657 708 657 708 642 701.5 c 128,-1,59
 627 695 627 695 612.5 678.5 c 128,-1,60
 598 662 598 662 592 644.5 c 128,-1,61
 586 627 586 627 581.5 594.5 c 128,-1,62
 577 562 577 562 576 528.5 c 128,-1,63
 575 495 575 495 575 442 c 0,64,65
 575 308 575 308 689 214 c 0,66,67
 787 135 787 135 910 127 c 0,68,69
 1038 119 1038 119 1105 197 c 0,70,71
 1136 235 1136 235 1147 289 c 0,72,73
 1160 352 1160 352 1190 353 c 0,74,75
 1229 353 1229 353 1338 239 c 0,76,77
 1352 226 1352 226 1367 210 c 0,78,79
 1452 119 1452 119 1466 90 c 0,80,81
 1486 47 1486 47 1433 30 c 0,82,83
 1364 7 1364 7 1043 5 c 0,84,85
 955 5 955 5 728 5 c 0,86,87
 90 7 90 7 21 48 c 0,88,89
 -6 65 -6 65 36 89 c 0,0,1
610 1872 m 0,90,91
 546 1919 546 1919 515 1966 c 1,92,93
 638 1776 638 1776 496 1625 c 1,94,95
 512 1642 512 1642 553 1638 c 0,96,97
 646 1629 646 1629 647 1630 c 0,98,99
 763 1987 763 1987 763 1987 c 1,100,101
 819 1961 819 1961 866 1933.5 c 128,-1,102
 913 1906 913 1906 943 1877 c 0,103,104
 974 1847 974 1847 974 1826 c 0,105,106
 974 1768 974 1768 902 1761 c 0,107,108
 813 1753 813 1753 683 1825 c 0,109,110
 645 1846 645 1846 610 1872 c 0,90,91
EndSplineSet
EndChar

StartChar: Eacute
Encoding: 201 201 136
Width: 2004
GlyphClass: 1
Flags: W
LayerCount: 2
Fore
SplineSet
42 90 m 0,0,1
 77 111 77 111 100 140.5 c 128,-1,2
 123 170 123 170 140 216.5 c 128,-1,3
 157 263 157 263 165.5 339 c 128,-1,4
 174 415 174 415 178 514 c 128,-1,5
 182 613 182 613 182 762 c 128,-1,6
 182 911 182 911 178 1010.5 c 128,-1,7
 174 1110 174 1110 165.5 1185.5 c 128,-1,8
 157 1261 157 1261 140 1307.5 c 128,-1,9
 123 1354 123 1354 100 1383.5 c 128,-1,10
 77 1413 77 1413 42 1434 c 0,11,12
 -26 1474 -26 1474 79 1493 c 0,13,14
 210 1516 210 1516 681 1518 c 0,15,16
 1150 1519 1150 1519 1264 1509 c 0,17,18
 1397 1497 1397 1497 1432 1454 c 0,19,20
 1457 1425 1457 1425 1458 1345 c 0,21,22
 1459 1334 1459 1334 1459 1308 c 0,23,24
 1459 1275 1459 1275 1458.5 1254 c 128,-1,25
 1458 1233 1458 1233 1456.5 1211.5 c 128,-1,26
 1455 1190 1455 1190 1453.5 1178.5 c 128,-1,27
 1452 1167 1452 1167 1447 1158 c 128,-1,28
 1442 1149 1442 1149 1437.5 1146.5 c 128,-1,29
 1433 1144 1433 1144 1423.5 1145.5 c 128,-1,30
 1414 1147 1414 1147 1405 1152.5 c 128,-1,31
 1396 1158 1396 1158 1380.5 1170 c 128,-1,32
 1365 1182 1365 1182 1350.5 1195 c 128,-1,33
 1336 1208 1336 1208 1313 1228 c 0,34,35
 1247 1288 1247 1288 1165 1324.5 c 128,-1,36
 1083 1361 1083 1361 1003 1372 c 128,-1,37
 923 1383 923 1383 846 1372 c 128,-1,38
 769 1361 769 1361 710.5 1329.5 c 128,-1,39
 652 1298 652 1298 616.5 1244 c 128,-1,40
 581 1190 581 1190 581 1121 c 0,41,42
 581 1069 581 1069 584 1033.5 c 128,-1,43
 587 998 587 998 595.5 970 c 128,-1,44
 604 942 604 942 617 926 c 128,-1,45
 630 910 630 910 653 899.5 c 128,-1,46
 676 889 676 889 704.5 885.5 c 128,-1,47
 733 882 733 882 776 882 c 0,48,49
 856 882 856 882 927.5 858.5 c 128,-1,50
 999 835 999 835 1020 802 c 0,51,52
 1044 762 1044 762 972 740 c 0,53,54
 918 722 918 722 825 722 c 0,55,56
 778 722 778 722 749 721 c 128,-1,57
 720 720 720 720 691.5 714.5 c 128,-1,58
 663 709 663 709 648 702.5 c 128,-1,59
 633 696 633 696 618.5 679.5 c 128,-1,60
 604 663 604 663 598 645.5 c 128,-1,61
 592 628 592 628 587.5 595.5 c 128,-1,62
 583 563 583 563 582 529.5 c 128,-1,63
 581 496 581 496 581 443 c 0,64,65
 581 309 581 309 695 215 c 0,66,67
 793 136 793 136 916 128 c 0,68,69
 1044 120 1044 120 1111 198 c 0,70,71
 1142 236 1142 236 1153 290 c 0,72,73
 1166 353 1166 353 1196 354 c 0,74,75
 1235 354 1235 354 1344 240 c 0,76,77
 1358 227 1358 227 1373 211 c 0,78,79
 1458 120 1458 120 1472 91 c 0,80,81
 1492 48 1492 48 1439 31 c 0,82,83
 1370 8 1370 8 1049 6 c 0,84,85
 961 6 961 6 734 6 c 0,86,87
 96 8 96 8 27 49 c 0,88,89
 0 66 0 66 42 90 c 0,0,1
581 1827 m 0,90,91
 581 1848 581 1848 611.5 1877.5 c 128,-1,92
 642 1907 642 1907 688.5 1934.5 c 128,-1,93
 735 1962 735 1962 791.5 1988 c 128,-1,94
 848 2014 848 2014 900.5 2029 c 128,-1,95
 953 2044 953 2044 993.5 2048 c 128,-1,96
 1034 2052 1034 2052 1050 2035 c 0,97,98
 1067 2018 1067 2018 1049.5 1983.5 c 128,-1,99
 1032 1949 1032 1949 989 1911.5 c 128,-1,100
 946 1874 946 1874 893.5 1839.5 c 128,-1,101
 841 1805 841 1805 783.5 1782.5 c 128,-1,102
 726 1760 726 1760 685 1760 c 0,103,104
 642 1760 642 1760 611.5 1779.5 c 128,-1,105
 581 1799 581 1799 581 1827 c 0,90,91
EndSplineSet
EndChar

